  0
SECTION
  2
BLOCKS
  0
ENDSEC
  0
SECTION
  2
ENTITIES
  0
LINE
  8
0
 10
90
 20
10
 11
130
 21
10
  0
LINE
  8
0
 10
130
 20
10
 11
130
 21
8.75999
  0
LINE
  8
0
 10
130
 20
8.75999
 11
129.968
 21
8.7583
  0
LINE
  8
0
 10
129.968
 20
8.7583
 11
129.936
 21
8.75322
  0
LINE
  8
0
 10
129.936
 20
8.75322
 11
129.904
 21
8.74483
  0
LINE
  8
0
 10
129.904
 20
8.74483
 11
129.874
 21
8.7332
  0
LINE
  8
0
 10
129.874
 20
8.7332
 11
129.845
 21
8.71846
  0
LINE
  8
0
 10
129.845
 20
8.71846
 11
129.818
 21
8.70079
  0
LINE
  8
0
 10
129.818
 20
8.70079
 11
129.793
 21
8.68037
  0
LINE
  8
0
 10
129.793
 20
8.68037
 11
129.77
 21
8.65742
  0
LINE
  8
0
 10
129.77
 20
8.65742
 11
129.749
 21
8.6322
  0
LINE
  8
0
 10
129.749
 20
8.6322
 11
129.732
 21
8.605
  0
LINE
  8
0
 10
129.732
 20
8.605
 11
129.717
 21
8.57608
  0
LINE
  8
0
 10
129.717
 20
8.57608
 11
129.705
 21
8.54579
  0
LINE
  8
0
 10
129.705
 20
8.54579
 11
129.697
 21
8.51445
  0
LINE
  8
0
 10
129.697
 20
8.51445
 11
129.692
 21
8.48239
  0
LINE
  8
0
 10
129.692
 20
8.48239
 11
129.69
 21
8.45
  0
LINE
  8
0
 10
129.69
 20
8.45
 11
129.692
 21
8.41759
  0
LINE
  8
0
 10
129.692
 20
8.41759
 11
129.697
 21
8.38554
  0
LINE
  8
0
 10
129.697
 20
8.38554
 11
129.705
 21
8.3542
  0
LINE
  8
0
 10
129.705
 20
8.3542
 11
129.717
 21
8.3239
  0
LINE
  8
0
 10
129.717
 20
8.3239
 11
129.732
 21
8.295
  0
LINE
  8
0
 10
129.732
 20
8.295
 11
129.749
 21
8.26778
  0
LINE
  8
0
 10
129.749
 20
8.26778
 11
129.77
 21
8.24257
  0
LINE
  8
0
 10
129.77
 20
8.24257
 11
129.793
 21
8.21962
  0
LINE
  8
0
 10
129.793
 20
8.21962
 11
129.818
 21
8.1992
  0
LINE
  8
0
 10
129.818
 20
8.1992
 11
129.845
 21
8.18152
  0
LINE
  8
0
 10
129.845
 20
8.18152
 11
129.874
 21
8.16679
  0
LINE
  8
0
 10
129.874
 20
8.16679
 11
129.904
 21
8.15517
  0
LINE
  8
0
 10
129.904
 20
8.15517
 11
129.936
 21
8.14677
  0
LINE
  8
0
 10
129.936
 20
8.14677
 11
129.968
 21
8.14169
  0
LINE
  8
0
 10
129.968
 20
8.14169
 11
130
 21
8.14
  0
LINE
  8
0
 10
130
 20
8.14
 11
130
 21
6.89999
  0
LINE
  8
0
 10
130
 20
6.89999
 11
170
 21
6.89999
  0
LINE
  8
0
 10
170
 20
6.89999
 11
170
 21
10
  0
LINE
  8
0
 10
170
 20
10
 11
210
 21
10
  0
LINE
  8
0
 10
210
 20
10
 11
210
 21
8.75999
  0
LINE
  8
0
 10
210
 20
8.75999
 11
209.968
 21
8.7583
  0
LINE
  8
0
 10
209.968
 20
8.7583
 11
209.936
 21
8.75322
  0
LINE
  8
0
 10
209.936
 20
8.75322
 11
209.904
 21
8.74483
  0
LINE
  8
0
 10
209.904
 20
8.74483
 11
209.874
 21
8.7332
  0
LINE
  8
0
 10
209.874
 20
8.7332
 11
209.845
 21
8.71846
  0
LINE
  8
0
 10
209.845
 20
8.71846
 11
209.818
 21
8.70079
  0
LINE
  8
0
 10
209.818
 20
8.70079
 11
209.793
 21
8.68037
  0
LINE
  8
0
 10
209.793
 20
8.68037
 11
209.77
 21
8.65742
  0
LINE
  8
0
 10
209.77
 20
8.65742
 11
209.749
 21
8.6322
  0
LINE
  8
0
 10
209.749
 20
8.6322
 11
209.732
 21
8.605
  0
LINE
  8
0
 10
209.732
 20
8.605
 11
209.717
 21
8.57608
  0
LINE
  8
0
 10
209.717
 20
8.57608
 11
209.705
 21
8.54579
  0
LINE
  8
0
 10
209.705
 20
8.54579
 11
209.697
 21
8.51445
  0
LINE
  8
0
 10
209.697
 20
8.51445
 11
209.692
 21
8.48239
  0
LINE
  8
0
 10
209.692
 20
8.48239
 11
209.69
 21
8.45
  0
LINE
  8
0
 10
209.69
 20
8.45
 11
209.692
 21
8.41759
  0
LINE
  8
0
 10
209.692
 20
8.41759
 11
209.697
 21
8.38554
  0
LINE
  8
0
 10
209.697
 20
8.38554
 11
209.705
 21
8.3542
  0
LINE
  8
0
 10
209.705
 20
8.3542
 11
209.717
 21
8.3239
  0
LINE
  8
0
 10
209.717
 20
8.3239
 11
209.732
 21
8.295
  0
LINE
  8
0
 10
209.732
 20
8.295
 11
209.749
 21
8.26778
  0
LINE
  8
0
 10
209.749
 20
8.26778
 11
209.77
 21
8.24257
  0
LINE
  8
0
 10
209.77
 20
8.24257
 11
209.793
 21
8.21962
  0
LINE
  8
0
 10
209.793
 20
8.21962
 11
209.818
 21
8.1992
  0
LINE
  8
0
 10
209.818
 20
8.1992
 11
209.845
 21
8.18152
  0
LINE
  8
0
 10
209.845
 20
8.18152
 11
209.874
 21
8.16679
  0
LINE
  8
0
 10
209.874
 20
8.16679
 11
209.904
 21
8.15517
  0
LINE
  8
0
 10
209.904
 20
8.15517
 11
209.936
 21
8.14677
  0
LINE
  8
0
 10
209.936
 20
8.14677
 11
209.968
 21
8.14169
  0
LINE
  8
0
 10
209.968
 20
8.14169
 11
210
 21
8.14
  0
LINE
  8
0
 10
210
 20
8.14
 11
210
 21
6.89999
  0
LINE
  8
0
 10
210
 20
6.89999
 11
250
 21
6.89999
  0
LINE
  8
0
 10
250
 20
6.89999
 11
250
 21
10
  0
LINE
  8
0
 10
250
 20
10
 11
290
 21
10
  0
LINE
  8
0
 10
290
 20
10
 11
290
 21
8.75999
  0
LINE
  8
0
 10
290
 20
8.75999
 11
289.968
 21
8.7583
  0
LINE
  8
0
 10
289.968
 20
8.7583
 11
289.936
 21
8.75322
  0
LINE
  8
0
 10
289.936
 20
8.75322
 11
289.904
 21
8.74483
  0
LINE
  8
0
 10
289.904
 20
8.74483
 11
289.874
 21
8.7332
  0
LINE
  8
0
 10
289.874
 20
8.7332
 11
289.845
 21
8.71846
  0
LINE
  8
0
 10
289.845
 20
8.71846
 11
289.818
 21
8.70079
  0
LINE
  8
0
 10
289.818
 20
8.70079
 11
289.793
 21
8.68037
  0
LINE
  8
0
 10
289.793
 20
8.68037
 11
289.77
 21
8.65742
  0
LINE
  8
0
 10
289.77
 20
8.65742
 11
289.749
 21
8.6322
  0
LINE
  8
0
 10
289.749
 20
8.6322
 11
289.732
 21
8.605
  0
LINE
  8
0
 10
289.732
 20
8.605
 11
289.717
 21
8.57608
  0
LINE
  8
0
 10
289.717
 20
8.57608
 11
289.705
 21
8.54579
  0
LINE
  8
0
 10
289.705
 20
8.54579
 11
289.697
 21
8.51445
  0
LINE
  8
0
 10
289.697
 20
8.51445
 11
289.692
 21
8.48239
  0
LINE
  8
0
 10
289.692
 20
8.48239
 11
289.69
 21
8.45
  0
LINE
  8
0
 10
289.69
 20
8.45
 11
289.692
 21
8.41759
  0
LINE
  8
0
 10
289.692
 20
8.41759
 11
289.697
 21
8.38554
  0
LINE
  8
0
 10
289.697
 20
8.38554
 11
289.705
 21
8.3542
  0
LINE
  8
0
 10
289.705
 20
8.3542
 11
289.717
 21
8.3239
  0
LINE
  8
0
 10
289.717
 20
8.3239
 11
289.732
 21
8.295
  0
LINE
  8
0
 10
289.732
 20
8.295
 11
289.749
 21
8.26778
  0
LINE
  8
0
 10
289.749
 20
8.26778
 11
289.77
 21
8.24257
  0
LINE
  8
0
 10
289.77
 20
8.24257
 11
289.793
 21
8.21962
  0
LINE
  8
0
 10
289.793
 20
8.21962
 11
289.818
 21
8.1992
  0
LINE
  8
0
 10
289.818
 20
8.1992
 11
289.845
 21
8.18152
  0
LINE
  8
0
 10
289.845
 20
8.18152
 11
289.874
 21
8.16679
  0
LINE
  8
0
 10
289.874
 20
8.16679
 11
289.904
 21
8.15517
  0
LINE
  8
0
 10
289.904
 20
8.15517
 11
289.936
 21
8.14677
  0
LINE
  8
0
 10
289.936
 20
8.14677
 11
289.968
 21
8.14169
  0
LINE
  8
0
 10
289.968
 20
8.14169
 11
290
 21
8.14
  0
LINE
  8
0
 10
290
 20
8.14
 11
290
 21
6.89999
  0
LINE
  8
0
 10
290
 20
6.89999
 11
330
 21
6.89999
  0
LINE
  8
0
 10
330
 20
6.89999
 11
330
 21
10
  0
LINE
  8
0
 10
330
 20
10
 11
370
 21
10
  0
LINE
  8
0
 10
370
 20
10
 11
370
 21
8.75999
  0
LINE
  8
0
 10
370
 20
8.75999
 11
369.968
 21
8.7583
  0
LINE
  8
0
 10
369.968
 20
8.7583
 11
369.936
 21
8.75322
  0
LINE
  8
0
 10
369.936
 20
8.75322
 11
369.904
 21
8.74483
  0
LINE
  8
0
 10
369.904
 20
8.74483
 11
369.874
 21
8.7332
  0
LINE
  8
0
 10
369.874
 20
8.7332
 11
369.845
 21
8.71846
  0
LINE
  8
0
 10
369.845
 20
8.71846
 11
369.818
 21
8.70079
  0
LINE
  8
0
 10
369.818
 20
8.70079
 11
369.793
 21
8.68037
  0
LINE
  8
0
 10
369.793
 20
8.68037
 11
369.77
 21
8.65742
  0
LINE
  8
0
 10
369.77
 20
8.65742
 11
369.749
 21
8.6322
  0
LINE
  8
0
 10
369.749
 20
8.6322
 11
369.732
 21
8.605
  0
LINE
  8
0
 10
369.732
 20
8.605
 11
369.717
 21
8.57608
  0
LINE
  8
0
 10
369.717
 20
8.57608
 11
369.705
 21
8.54579
  0
LINE
  8
0
 10
369.705
 20
8.54579
 11
369.697
 21
8.51445
  0
LINE
  8
0
 10
369.697
 20
8.51445
 11
369.692
 21
8.48239
  0
LINE
  8
0
 10
369.692
 20
8.48239
 11
369.69
 21
8.45
  0
LINE
  8
0
 10
369.69
 20
8.45
 11
369.692
 21
8.41759
  0
LINE
  8
0
 10
369.692
 20
8.41759
 11
369.697
 21
8.38554
  0
LINE
  8
0
 10
369.697
 20
8.38554
 11
369.705
 21
8.3542
  0
LINE
  8
0
 10
369.705
 20
8.3542
 11
369.717
 21
8.3239
  0
LINE
  8
0
 10
369.717
 20
8.3239
 11
369.732
 21
8.295
  0
LINE
  8
0
 10
369.732
 20
8.295
 11
369.749
 21
8.26778
  0
LINE
  8
0
 10
369.749
 20
8.26778
 11
369.77
 21
8.24257
  0
LINE
  8
0
 10
369.77
 20
8.24257
 11
369.793
 21
8.21962
  0
LINE
  8
0
 10
369.793
 20
8.21962
 11
369.818
 21
8.1992
  0
LINE
  8
0
 10
369.818
 20
8.1992
 11
369.845
 21
8.18152
  0
LINE
  8
0
 10
369.845
 20
8.18152
 11
369.874
 21
8.16679
  0
LINE
  8
0
 10
369.874
 20
8.16679
 11
369.904
 21
8.15517
  0
LINE
  8
0
 10
369.904
 20
8.15517
 11
369.936
 21
8.14677
  0
LINE
  8
0
 10
369.936
 20
8.14677
 11
369.968
 21
8.14169
  0
LINE
  8
0
 10
369.968
 20
8.14169
 11
370
 21
8.14
  0
LINE
  8
0
 10
370
 20
8.14
 11
370
 21
6.89999
  0
LINE
  8
0
 10
370
 20
6.89999
 11
410
 21
6.89999
  0
LINE
  8
0
 10
410
 20
6.89999
 11
410
 21
70
  0
LINE
  8
0
 10
410
 20
70
 11
411.24
 21
70
  0
LINE
  8
0
 10
411.24
 20
70
 11
411.242
 21
69.9676
  0
LINE
  8
0
 10
411.242
 20
69.9676
 11
411.247
 21
69.9355
  0
LINE
  8
0
 10
411.247
 20
69.9355
 11
411.255
 21
69.9042
  0
LINE
  8
0
 10
411.255
 20
69.9042
 11
411.267
 21
69.8739
  0
LINE
  8
0
 10
411.267
 20
69.8739
 11
411.282
 21
69.845
  0
LINE
  8
0
 10
411.282
 20
69.845
 11
411.299
 21
69.8178
  0
LINE
  8
0
 10
411.299
 20
69.8178
 11
411.32
 21
69.7926
  0
LINE
  8
0
 10
411.32
 20
69.7926
 11
411.343
 21
69.7696
  0
LINE
  8
0
 10
411.343
 20
69.7696
 11
411.368
 21
69.7492
  0
LINE
  8
0
 10
411.368
 20
69.7492
 11
411.395
 21
69.7315
  0
LINE
  8
0
 10
411.395
 20
69.7315
 11
411.424
 21
69.7168
  0
LINE
  8
0
 10
411.424
 20
69.7168
 11
411.454
 21
69.7052
  0
LINE
  8
0
 10
411.454
 20
69.7052
 11
411.486
 21
69.6968
  0
LINE
  8
0
 10
411.486
 20
69.6968
 11
411.518
 21
69.6917
  0
LINE
  8
0
 10
411.518
 20
69.6917
 11
411.55
 21
69.69
  0
LINE
  8
0
 10
411.55
 20
69.69
 11
411.582
 21
69.6917
  0
LINE
  8
0
 10
411.582
 20
69.6917
 11
411.614
 21
69.6968
  0
LINE
  8
0
 10
411.614
 20
69.6968
 11
411.646
 21
69.7052
  0
LINE
  8
0
 10
411.646
 20
69.7052
 11
411.676
 21
69.7168
  0
LINE
  8
0
 10
411.676
 20
69.7168
 11
411.705
 21
69.7315
  0
LINE
  8
0
 10
411.705
 20
69.7315
 11
411.732
 21
69.7492
  0
LINE
  8
0
 10
411.732
 20
69.7492
 11
411.757
 21
69.7696
  0
LINE
  8
0
 10
411.757
 20
69.7696
 11
411.78
 21
69.7926
  0
LINE
  8
0
 10
411.78
 20
69.7926
 11
411.801
 21
69.8178
  0
LINE
  8
0
 10
411.801
 20
69.8178
 11
411.818
 21
69.845
  0
LINE
  8
0
 10
411.818
 20
69.845
 11
411.833
 21
69.8739
  0
LINE
  8
0
 10
411.833
 20
69.8739
 11
411.845
 21
69.9042
  0
LINE
  8
0
 10
411.845
 20
69.9042
 11
411.853
 21
69.9355
  0
LINE
  8
0
 10
411.853
 20
69.9355
 11
411.858
 21
69.9676
  0
LINE
  8
0
 10
411.858
 20
69.9676
 11
411.86
 21
70
  0
LINE
  8
0
 10
411.86
 20
70
 11
413.1
 21
70
  0
LINE
  8
0
 10
413.1
 20
70
 11
413.1
 21
130
  0
LINE
  8
0
 10
413.1
 20
130
 11
410
 21
130
  0
LINE
  8
0
 10
410
 20
130
 11
410
 21
190
  0
LINE
  8
0
 10
410
 20
190
 11
411.24
 21
190
  0
LINE
  8
0
 10
411.24
 20
190
 11
411.242
 21
189.968
  0
LINE
  8
0
 10
411.242
 20
189.968
 11
411.247
 21
189.936
  0
LINE
  8
0
 10
411.247
 20
189.936
 11
411.255
 21
189.904
  0
LINE
  8
0
 10
411.255
 20
189.904
 11
411.267
 21
189.874
  0
LINE
  8
0
 10
411.267
 20
189.874
 11
411.282
 21
189.845
  0
LINE
  8
0
 10
411.282
 20
189.845
 11
411.299
 21
189.818
  0
LINE
  8
0
 10
411.299
 20
189.818
 11
411.32
 21
189.793
  0
LINE
  8
0
 10
411.32
 20
189.793
 11
411.343
 21
189.77
  0
LINE
  8
0
 10
411.343
 20
189.77
 11
411.368
 21
189.749
  0
LINE
  8
0
 10
411.368
 20
189.749
 11
411.395
 21
189.732
  0
LINE
  8
0
 10
411.395
 20
189.732
 11
411.424
 21
189.717
  0
LINE
  8
0
 10
411.424
 20
189.717
 11
411.454
 21
189.705
  0
LINE
  8
0
 10
411.454
 20
189.705
 11
411.486
 21
189.697
  0
LINE
  8
0
 10
411.486
 20
189.697
 11
411.518
 21
189.692
  0
LINE
  8
0
 10
411.518
 20
189.692
 11
411.55
 21
189.69
  0
LINE
  8
0
 10
411.55
 20
189.69
 11
411.582
 21
189.692
  0
LINE
  8
0
 10
411.582
 20
189.692
 11
411.614
 21
189.697
  0
LINE
  8
0
 10
411.614
 20
189.697
 11
411.646
 21
189.705
  0
LINE
  8
0
 10
411.646
 20
189.705
 11
411.676
 21
189.717
  0
LINE
  8
0
 10
411.676
 20
189.717
 11
411.705
 21
189.732
  0
LINE
  8
0
 10
411.705
 20
189.732
 11
411.732
 21
189.749
  0
LINE
  8
0
 10
411.732
 20
189.749
 11
411.757
 21
189.77
  0
LINE
  8
0
 10
411.757
 20
189.77
 11
411.78
 21
189.793
  0
LINE
  8
0
 10
411.78
 20
189.793
 11
411.801
 21
189.818
  0
LINE
  8
0
 10
411.801
 20
189.818
 11
411.818
 21
189.845
  0
LINE
  8
0
 10
411.818
 20
189.845
 11
411.833
 21
189.874
  0
LINE
  8
0
 10
411.833
 20
189.874
 11
411.845
 21
189.904
  0
LINE
  8
0
 10
411.845
 20
189.904
 11
411.853
 21
189.936
  0
LINE
  8
0
 10
411.853
 20
189.936
 11
411.858
 21
189.968
  0
LINE
  8
0
 10
411.858
 20
189.968
 11
411.86
 21
190
  0
LINE
  8
0
 10
411.86
 20
190
 11
413.1
 21
190
  0
LINE
  8
0
 10
413.1
 20
190
 11
413.1
 21
250
  0
LINE
  8
0
 10
413.1
 20
250
 11
410
 21
250
  0
LINE
  8
0
 10
410
 20
250
 11
410
 21
310
  0
LINE
  8
0
 10
410
 20
310
 11
411.24
 21
310
  0
LINE
  8
0
 10
411.24
 20
310
 11
411.242
 21
309.968
  0
LINE
  8
0
 10
411.242
 20
309.968
 11
411.247
 21
309.936
  0
LINE
  8
0
 10
411.247
 20
309.936
 11
411.255
 21
309.904
  0
LINE
  8
0
 10
411.255
 20
309.904
 11
411.267
 21
309.874
  0
LINE
  8
0
 10
411.267
 20
309.874
 11
411.282
 21
309.845
  0
LINE
  8
0
 10
411.282
 20
309.845
 11
411.299
 21
309.818
  0
LINE
  8
0
 10
411.299
 20
309.818
 11
411.32
 21
309.793
  0
LINE
  8
0
 10
411.32
 20
309.793
 11
411.343
 21
309.77
  0
LINE
  8
0
 10
411.343
 20
309.77
 11
411.368
 21
309.749
  0
LINE
  8
0
 10
411.368
 20
309.749
 11
411.395
 21
309.732
  0
LINE
  8
0
 10
411.395
 20
309.732
 11
411.424
 21
309.717
  0
LINE
  8
0
 10
411.424
 20
309.717
 11
411.454
 21
309.705
  0
LINE
  8
0
 10
411.454
 20
309.705
 11
411.486
 21
309.697
  0
LINE
  8
0
 10
411.486
 20
309.697
 11
411.518
 21
309.692
  0
LINE
  8
0
 10
411.518
 20
309.692
 11
411.55
 21
309.69
  0
LINE
  8
0
 10
411.55
 20
309.69
 11
411.582
 21
309.692
  0
LINE
  8
0
 10
411.582
 20
309.692
 11
411.614
 21
309.697
  0
LINE
  8
0
 10
411.614
 20
309.697
 11
411.646
 21
309.705
  0
LINE
  8
0
 10
411.646
 20
309.705
 11
411.676
 21
309.717
  0
LINE
  8
0
 10
411.676
 20
309.717
 11
411.705
 21
309.732
  0
LINE
  8
0
 10
411.705
 20
309.732
 11
411.732
 21
309.749
  0
LINE
  8
0
 10
411.732
 20
309.749
 11
411.757
 21
309.77
  0
LINE
  8
0
 10
411.757
 20
309.77
 11
411.78
 21
309.793
  0
LINE
  8
0
 10
411.78
 20
309.793
 11
411.801
 21
309.818
  0
LINE
  8
0
 10
411.801
 20
309.818
 11
411.818
 21
309.845
  0
LINE
  8
0
 10
411.818
 20
309.845
 11
411.833
 21
309.874
  0
LINE
  8
0
 10
411.833
 20
309.874
 11
411.845
 21
309.904
  0
LINE
  8
0
 10
411.845
 20
309.904
 11
411.853
 21
309.936
  0
LINE
  8
0
 10
411.853
 20
309.936
 11
411.858
 21
309.968
  0
LINE
  8
0
 10
411.858
 20
309.968
 11
411.86
 21
310
  0
LINE
  8
0
 10
411.86
 20
310
 11
413.1
 21
310
  0
LINE
  8
0
 10
413.1
 20
310
 11
413.1
 21
370
  0
LINE
  8
0
 10
413.1
 20
370
 11
410
 21
370
  0
LINE
  8
0
 10
410
 20
370
 11
410
 21
430
  0
LINE
  8
0
 10
410
 20
430
 11
411.24
 21
430
  0
LINE
  8
0
 10
411.24
 20
430
 11
411.242
 21
429.968
  0
LINE
  8
0
 10
411.242
 20
429.968
 11
411.247
 21
429.936
  0
LINE
  8
0
 10
411.247
 20
429.936
 11
411.255
 21
429.904
  0
LINE
  8
0
 10
411.255
 20
429.904
 11
411.267
 21
429.874
  0
LINE
  8
0
 10
411.267
 20
429.874
 11
411.282
 21
429.845
  0
LINE
  8
0
 10
411.282
 20
429.845
 11
411.299
 21
429.818
  0
LINE
  8
0
 10
411.299
 20
429.818
 11
411.32
 21
429.793
  0
LINE
  8
0
 10
411.32
 20
429.793
 11
411.343
 21
429.77
  0
LINE
  8
0
 10
411.343
 20
429.77
 11
411.368
 21
429.749
  0
LINE
  8
0
 10
411.368
 20
429.749
 11
411.395
 21
429.732
  0
LINE
  8
0
 10
411.395
 20
429.732
 11
411.424
 21
429.717
  0
LINE
  8
0
 10
411.424
 20
429.717
 11
411.454
 21
429.705
  0
LINE
  8
0
 10
411.454
 20
429.705
 11
411.486
 21
429.697
  0
LINE
  8
0
 10
411.486
 20
429.697
 11
411.518
 21
429.692
  0
LINE
  8
0
 10
411.518
 20
429.692
 11
411.55
 21
429.69
  0
LINE
  8
0
 10
411.55
 20
429.69
 11
411.582
 21
429.692
  0
LINE
  8
0
 10
411.582
 20
429.692
 11
411.614
 21
429.697
  0
LINE
  8
0
 10
411.614
 20
429.697
 11
411.646
 21
429.705
  0
LINE
  8
0
 10
411.646
 20
429.705
 11
411.676
 21
429.717
  0
LINE
  8
0
 10
411.676
 20
429.717
 11
411.705
 21
429.732
  0
LINE
  8
0
 10
411.705
 20
429.732
 11
411.732
 21
429.749
  0
LINE
  8
0
 10
411.732
 20
429.749
 11
411.757
 21
429.77
  0
LINE
  8
0
 10
411.757
 20
429.77
 11
411.78
 21
429.793
  0
LINE
  8
0
 10
411.78
 20
429.793
 11
411.801
 21
429.818
  0
LINE
  8
0
 10
411.801
 20
429.818
 11
411.818
 21
429.845
  0
LINE
  8
0
 10
411.818
 20
429.845
 11
411.833
 21
429.874
  0
LINE
  8
0
 10
411.833
 20
429.874
 11
411.845
 21
429.904
  0
LINE
  8
0
 10
411.845
 20
429.904
 11
411.853
 21
429.936
  0
LINE
  8
0
 10
411.853
 20
429.936
 11
411.858
 21
429.968
  0
LINE
  8
0
 10
411.858
 20
429.968
 11
411.86
 21
430
  0
LINE
  8
0
 10
411.86
 20
430
 11
413.1
 21
430
  0
LINE
  8
0
 10
413.1
 20
430
 11
413.1
 21
490
  0
LINE
  8
0
 10
413.1
 20
490
 11
410
 21
490
  0
LINE
  8
0
 10
410
 20
490
 11
410
 21
550
  0
LINE
  8
0
 10
410
 20
550
 11
411.24
 21
550
  0
LINE
  8
0
 10
411.24
 20
550
 11
411.242
 21
549.968
  0
LINE
  8
0
 10
411.242
 20
549.968
 11
411.247
 21
549.936
  0
LINE
  8
0
 10
411.247
 20
549.936
 11
411.255
 21
549.904
  0
LINE
  8
0
 10
411.255
 20
549.904
 11
411.267
 21
549.874
  0
LINE
  8
0
 10
411.267
 20
549.874
 11
411.282
 21
549.845
  0
LINE
  8
0
 10
411.282
 20
549.845
 11
411.299
 21
549.818
  0
LINE
  8
0
 10
411.299
 20
549.818
 11
411.32
 21
549.793
  0
LINE
  8
0
 10
411.32
 20
549.793
 11
411.343
 21
549.77
  0
LINE
  8
0
 10
411.343
 20
549.77
 11
411.368
 21
549.749
  0
LINE
  8
0
 10
411.368
 20
549.749
 11
411.395
 21
549.732
  0
LINE
  8
0
 10
411.395
 20
549.732
 11
411.424
 21
549.717
  0
LINE
  8
0
 10
411.424
 20
549.717
 11
411.454
 21
549.705
  0
LINE
  8
0
 10
411.454
 20
549.705
 11
411.486
 21
549.697
  0
LINE
  8
0
 10
411.486
 20
549.697
 11
411.518
 21
549.692
  0
LINE
  8
0
 10
411.518
 20
549.692
 11
411.55
 21
549.69
  0
LINE
  8
0
 10
411.55
 20
549.69
 11
411.582
 21
549.692
  0
LINE
  8
0
 10
411.582
 20
549.692
 11
411.614
 21
549.697
  0
LINE
  8
0
 10
411.614
 20
549.697
 11
411.646
 21
549.705
  0
LINE
  8
0
 10
411.646
 20
549.705
 11
411.676
 21
549.717
  0
LINE
  8
0
 10
411.676
 20
549.717
 11
411.705
 21
549.732
  0
LINE
  8
0
 10
411.705
 20
549.732
 11
411.732
 21
549.749
  0
LINE
  8
0
 10
411.732
 20
549.749
 11
411.757
 21
549.77
  0
LINE
  8
0
 10
411.757
 20
549.77
 11
411.78
 21
549.793
  0
LINE
  8
0
 10
411.78
 20
549.793
 11
411.801
 21
549.818
  0
LINE
  8
0
 10
411.801
 20
549.818
 11
411.818
 21
549.845
  0
LINE
  8
0
 10
411.818
 20
549.845
 11
411.833
 21
549.874
  0
LINE
  8
0
 10
411.833
 20
549.874
 11
411.845
 21
549.904
  0
LINE
  8
0
 10
411.845
 20
549.904
 11
411.853
 21
549.936
  0
LINE
  8
0
 10
411.853
 20
549.936
 11
411.858
 21
549.968
  0
LINE
  8
0
 10
411.858
 20
549.968
 11
411.86
 21
550
  0
LINE
  8
0
 10
411.86
 20
550
 11
413.1
 21
550
  0
LINE
  8
0
 10
413.1
 20
550
 11
413.1
 21
610
  0
LINE
  8
0
 10
413.1
 20
610
 11
370
 21
610
  0
LINE
  8
0
 10
370
 20
610
 11
370
 21
611.24
  0
LINE
  8
0
 10
370
 20
611.24
 11
370.032
 21
611.242
  0
LINE
  8
0
 10
370.032
 20
611.242
 11
370.064
 21
611.247
  0
LINE
  8
0
 10
370.064
 20
611.247
 11
370.096
 21
611.255
  0
LINE
  8
0
 10
370.096
 20
611.255
 11
370.126
 21
611.267
  0
LINE
  8
0
 10
370.126
 20
611.267
 11
370.155
 21
611.282
  0
LINE
  8
0
 10
370.155
 20
611.282
 11
370.182
 21
611.299
  0
LINE
  8
0
 10
370.182
 20
611.299
 11
370.207
 21
611.32
  0
LINE
  8
0
 10
370.207
 20
611.32
 11
370.23
 21
611.343
  0
LINE
  8
0
 10
370.23
 20
611.343
 11
370.251
 21
611.368
  0
LINE
  8
0
 10
370.251
 20
611.368
 11
370.268
 21
611.395
  0
LINE
  8
0
 10
370.268
 20
611.395
 11
370.283
 21
611.424
  0
LINE
  8
0
 10
370.283
 20
611.424
 11
370.295
 21
611.454
  0
LINE
  8
0
 10
370.295
 20
611.454
 11
370.303
 21
611.486
  0
LINE
  8
0
 10
370.303
 20
611.486
 11
370.308
 21
611.518
  0
LINE
  8
0
 10
370.308
 20
611.518
 11
370.31
 21
611.55
  0
LINE
  8
0
 10
370.31
 20
611.55
 11
370.308
 21
611.582
  0
LINE
  8
0
 10
370.308
 20
611.582
 11
370.303
 21
611.614
  0
LINE
  8
0
 10
370.303
 20
611.614
 11
370.295
 21
611.646
  0
LINE
  8
0
 10
370.295
 20
611.646
 11
370.283
 21
611.676
  0
LINE
  8
0
 10
370.283
 20
611.676
 11
370.268
 21
611.705
  0
LINE
  8
0
 10
370.268
 20
611.705
 11
370.251
 21
611.732
  0
LINE
  8
0
 10
370.251
 20
611.732
 11
370.23
 21
611.757
  0
LINE
  8
0
 10
370.23
 20
611.757
 11
370.207
 21
611.78
  0
LINE
  8
0
 10
370.207
 20
611.78
 11
370.182
 21
611.801
  0
LINE
  8
0
 10
370.182
 20
611.801
 11
370.155
 21
611.818
  0
LINE
  8
0
 10
370.155
 20
611.818
 11
370.126
 21
611.833
  0
LINE
  8
0
 10
370.126
 20
611.833
 11
370.096
 21
611.845
  0
LINE
  8
0
 10
370.096
 20
611.845
 11
370.064
 21
611.853
  0
LINE
  8
0
 10
370.064
 20
611.853
 11
370.032
 21
611.858
  0
LINE
  8
0
 10
370.032
 20
611.858
 11
370
 21
611.86
  0
LINE
  8
0
 10
370
 20
611.86
 11
370
 21
613.1
  0
LINE
  8
0
 10
370
 20
613.1
 11
330
 21
613.1
  0
LINE
  8
0
 10
330
 20
613.1
 11
330
 21
610
  0
LINE
  8
0
 10
330
 20
610
 11
290
 21
610
  0
LINE
  8
0
 10
290
 20
610
 11
290
 21
611.24
  0
LINE
  8
0
 10
290
 20
611.24
 11
290.032
 21
611.242
  0
LINE
  8
0
 10
290.032
 20
611.242
 11
290.064
 21
611.247
  0
LINE
  8
0
 10
290.064
 20
611.247
 11
290.096
 21
611.255
  0
LINE
  8
0
 10
290.096
 20
611.255
 11
290.126
 21
611.267
  0
LINE
  8
0
 10
290.126
 20
611.267
 11
290.155
 21
611.282
  0
LINE
  8
0
 10
290.155
 20
611.282
 11
290.182
 21
611.299
  0
LINE
  8
0
 10
290.182
 20
611.299
 11
290.207
 21
611.32
  0
LINE
  8
0
 10
290.207
 20
611.32
 11
290.23
 21
611.343
  0
LINE
  8
0
 10
290.23
 20
611.343
 11
290.251
 21
611.368
  0
LINE
  8
0
 10
290.251
 20
611.368
 11
290.268
 21
611.395
  0
LINE
  8
0
 10
290.268
 20
611.395
 11
290.283
 21
611.424
  0
LINE
  8
0
 10
290.283
 20
611.424
 11
290.295
 21
611.454
  0
LINE
  8
0
 10
290.295
 20
611.454
 11
290.303
 21
611.486
  0
LINE
  8
0
 10
290.303
 20
611.486
 11
290.308
 21
611.518
  0
LINE
  8
0
 10
290.308
 20
611.518
 11
290.31
 21
611.55
  0
LINE
  8
0
 10
290.31
 20
611.55
 11
290.308
 21
611.582
  0
LINE
  8
0
 10
290.308
 20
611.582
 11
290.303
 21
611.614
  0
LINE
  8
0
 10
290.303
 20
611.614
 11
290.295
 21
611.646
  0
LINE
  8
0
 10
290.295
 20
611.646
 11
290.283
 21
611.676
  0
LINE
  8
0
 10
290.283
 20
611.676
 11
290.268
 21
611.705
  0
LINE
  8
0
 10
290.268
 20
611.705
 11
290.251
 21
611.732
  0
LINE
  8
0
 10
290.251
 20
611.732
 11
290.23
 21
611.757
  0
LINE
  8
0
 10
290.23
 20
611.757
 11
290.207
 21
611.78
  0
LINE
  8
0
 10
290.207
 20
611.78
 11
290.182
 21
611.801
  0
LINE
  8
0
 10
290.182
 20
611.801
 11
290.155
 21
611.818
  0
LINE
  8
0
 10
290.155
 20
611.818
 11
290.126
 21
611.833
  0
LINE
  8
0
 10
290.126
 20
611.833
 11
290.096
 21
611.845
  0
LINE
  8
0
 10
290.096
 20
611.845
 11
290.064
 21
611.853
  0
LINE
  8
0
 10
290.064
 20
611.853
 11
290.032
 21
611.858
  0
LINE
  8
0
 10
290.032
 20
611.858
 11
290
 21
611.86
  0
LINE
  8
0
 10
290
 20
611.86
 11
290
 21
613.1
  0
LINE
  8
0
 10
290
 20
613.1
 11
250
 21
613.1
  0
LINE
  8
0
 10
250
 20
613.1
 11
250
 21
610
  0
LINE
  8
0
 10
250
 20
610
 11
210
 21
610
  0
LINE
  8
0
 10
210
 20
610
 11
210
 21
611.24
  0
LINE
  8
0
 10
210
 20
611.24
 11
210.032
 21
611.242
  0
LINE
  8
0
 10
210.032
 20
611.242
 11
210.064
 21
611.247
  0
LINE
  8
0
 10
210.064
 20
611.247
 11
210.096
 21
611.255
  0
LINE
  8
0
 10
210.096
 20
611.255
 11
210.126
 21
611.267
  0
LINE
  8
0
 10
210.126
 20
611.267
 11
210.155
 21
611.282
  0
LINE
  8
0
 10
210.155
 20
611.282
 11
210.182
 21
611.299
  0
LINE
  8
0
 10
210.182
 20
611.299
 11
210.207
 21
611.32
  0
LINE
  8
0
 10
210.207
 20
611.32
 11
210.23
 21
611.343
  0
LINE
  8
0
 10
210.23
 20
611.343
 11
210.251
 21
611.368
  0
LINE
  8
0
 10
210.251
 20
611.368
 11
210.268
 21
611.395
  0
LINE
  8
0
 10
210.268
 20
611.395
 11
210.283
 21
611.424
  0
LINE
  8
0
 10
210.283
 20
611.424
 11
210.295
 21
611.454
  0
LINE
  8
0
 10
210.295
 20
611.454
 11
210.303
 21
611.486
  0
LINE
  8
0
 10
210.303
 20
611.486
 11
210.308
 21
611.518
  0
LINE
  8
0
 10
210.308
 20
611.518
 11
210.31
 21
611.55
  0
LINE
  8
0
 10
210.31
 20
611.55
 11
210.308
 21
611.582
  0
LINE
  8
0
 10
210.308
 20
611.582
 11
210.303
 21
611.614
  0
LINE
  8
0
 10
210.303
 20
611.614
 11
210.295
 21
611.646
  0
LINE
  8
0
 10
210.295
 20
611.646
 11
210.283
 21
611.676
  0
LINE
  8
0
 10
210.283
 20
611.676
 11
210.268
 21
611.705
  0
LINE
  8
0
 10
210.268
 20
611.705
 11
210.251
 21
611.732
  0
LINE
  8
0
 10
210.251
 20
611.732
 11
210.23
 21
611.757
  0
LINE
  8
0
 10
210.23
 20
611.757
 11
210.207
 21
611.78
  0
LINE
  8
0
 10
210.207
 20
611.78
 11
210.182
 21
611.801
  0
LINE
  8
0
 10
210.182
 20
611.801
 11
210.155
 21
611.818
  0
LINE
  8
0
 10
210.155
 20
611.818
 11
210.126
 21
611.833
  0
LINE
  8
0
 10
210.126
 20
611.833
 11
210.096
 21
611.845
  0
LINE
  8
0
 10
210.096
 20
611.845
 11
210.064
 21
611.853
  0
LINE
  8
0
 10
210.064
 20
611.853
 11
210.032
 21
611.858
  0
LINE
  8
0
 10
210.032
 20
611.858
 11
210
 21
611.86
  0
LINE
  8
0
 10
210
 20
611.86
 11
210
 21
613.1
  0
LINE
  8
0
 10
210
 20
613.1
 11
170
 21
613.1
  0
LINE
  8
0
 10
170
 20
613.1
 11
170
 21
610
  0
LINE
  8
0
 10
170
 20
610
 11
130
 21
610
  0
LINE
  8
0
 10
130
 20
610
 11
130
 21
611.24
  0
LINE
  8
0
 10
130
 20
611.24
 11
130.032
 21
611.242
  0
LINE
  8
0
 10
130.032
 20
611.242
 11
130.064
 21
611.247
  0
LINE
  8
0
 10
130.064
 20
611.247
 11
130.096
 21
611.255
  0
LINE
  8
0
 10
130.096
 20
611.255
 11
130.126
 21
611.267
  0
LINE
  8
0
 10
130.126
 20
611.267
 11
130.155
 21
611.282
  0
LINE
  8
0
 10
130.155
 20
611.282
 11
130.182
 21
611.299
  0
LINE
  8
0
 10
130.182
 20
611.299
 11
130.207
 21
611.32
  0
LINE
  8
0
 10
130.207
 20
611.32
 11
130.23
 21
611.343
  0
LINE
  8
0
 10
130.23
 20
611.343
 11
130.251
 21
611.368
  0
LINE
  8
0
 10
130.251
 20
611.368
 11
130.268
 21
611.395
  0
LINE
  8
0
 10
130.268
 20
611.395
 11
130.283
 21
611.424
  0
LINE
  8
0
 10
130.283
 20
611.424
 11
130.295
 21
611.454
  0
LINE
  8
0
 10
130.295
 20
611.454
 11
130.303
 21
611.486
  0
LINE
  8
0
 10
130.303
 20
611.486
 11
130.308
 21
611.518
  0
LINE
  8
0
 10
130.308
 20
611.518
 11
130.31
 21
611.55
  0
LINE
  8
0
 10
130.31
 20
611.55
 11
130.308
 21
611.582
  0
LINE
  8
0
 10
130.308
 20
611.582
 11
130.303
 21
611.614
  0
LINE
  8
0
 10
130.303
 20
611.614
 11
130.295
 21
611.646
  0
LINE
  8
0
 10
130.295
 20
611.646
 11
130.283
 21
611.676
  0
LINE
  8
0
 10
130.283
 20
611.676
 11
130.268
 21
611.705
  0
LINE
  8
0
 10
130.268
 20
611.705
 11
130.251
 21
611.732
  0
LINE
  8
0
 10
130.251
 20
611.732
 11
130.23
 21
611.757
  0
LINE
  8
0
 10
130.23
 20
611.757
 11
130.207
 21
611.78
  0
LINE
  8
0
 10
130.207
 20
611.78
 11
130.182
 21
611.801
  0
LINE
  8
0
 10
130.182
 20
611.801
 11
130.155
 21
611.818
  0
LINE
  8
0
 10
130.155
 20
611.818
 11
130.126
 21
611.833
  0
LINE
  8
0
 10
130.126
 20
611.833
 11
130.096
 21
611.845
  0
LINE
  8
0
 10
130.096
 20
611.845
 11
130.064
 21
611.853
  0
LINE
  8
0
 10
130.064
 20
611.853
 11
130.032
 21
611.858
  0
LINE
  8
0
 10
130.032
 20
611.858
 11
130
 21
611.86
  0
LINE
  8
0
 10
130
 20
611.86
 11
130
 21
613.1
  0
LINE
  8
0
 10
130
 20
613.1
 11
90
 21
613.1
  0
LINE
  8
0
 10
90
 20
613.1
 11
90
 21
610
  0
LINE
  8
0
 10
90
 20
610
 11
50
 21
610
  0
LINE
  8
0
 10
50
 20
610
 11
50
 21
611.24
  0
LINE
  8
0
 10
50
 20
611.24
 11
50.0324
 21
611.242
  0
LINE
  8
0
 10
50.0324
 20
611.242
 11
50.0645
 21
611.247
  0
LINE
  8
0
 10
50.0645
 20
611.247
 11
50.0958
 21
611.255
  0
LINE
  8
0
 10
50.0958
 20
611.255
 11
50.1261
 21
611.267
  0
LINE
  8
0
 10
50.1261
 20
611.267
 11
50.155
 21
611.282
  0
LINE
  8
0
 10
50.155
 20
611.282
 11
50.1822
 21
611.299
  0
LINE
  8
0
 10
50.1822
 20
611.299
 11
50.2074
 21
611.32
  0
LINE
  8
0
 10
50.2074
 20
611.32
 11
50.2304
 21
611.343
  0
LINE
  8
0
 10
50.2304
 20
611.343
 11
50.2508
 21
611.368
  0
LINE
  8
0
 10
50.2508
 20
611.368
 11
50.2685
 21
611.395
  0
LINE
  8
0
 10
50.2685
 20
611.395
 11
50.2832
 21
611.424
  0
LINE
  8
0
 10
50.2832
 20
611.424
 11
50.2948
 21
611.454
  0
LINE
  8
0
 10
50.2948
 20
611.454
 11
50.3032
 21
611.486
  0
LINE
  8
0
 10
50.3032
 20
611.486
 11
50.3083
 21
611.518
  0
LINE
  8
0
 10
50.3083
 20
611.518
 11
50.31
 21
611.55
  0
LINE
  8
0
 10
50.31
 20
611.55
 11
50.3083
 21
611.582
  0
LINE
  8
0
 10
50.3083
 20
611.582
 11
50.3032
 21
611.614
  0
LINE
  8
0
 10
50.3032
 20
611.614
 11
50.2948
 21
611.646
  0
LINE
  8
0
 10
50.2948
 20
611.646
 11
50.2832
 21
611.676
  0
LINE
  8
0
 10
50.2832
 20
611.676
 11
50.2685
 21
611.705
  0
LINE
  8
0
 10
50.2685
 20
611.705
 11
50.2508
 21
611.732
  0
LINE
  8
0
 10
50.2508
 20
611.732
 11
50.2304
 21
611.757
  0
LINE
  8
0
 10
50.2304
 20
611.757
 11
50.2074
 21
611.78
  0
LINE
  8
0
 10
50.2074
 20
611.78
 11
50.1822
 21
611.801
  0
LINE
  8
0
 10
50.1822
 20
611.801
 11
50.155
 21
611.818
  0
LINE
  8
0
 10
50.155
 20
611.818
 11
50.1261
 21
611.833
  0
LINE
  8
0
 10
50.1261
 20
611.833
 11
50.0958
 21
611.845
  0
LINE
  8
0
 10
50.0958
 20
611.845
 11
50.0645
 21
611.853
  0
LINE
  8
0
 10
50.0645
 20
611.853
 11
50.0324
 21
611.858
  0
LINE
  8
0
 10
50.0324
 20
611.858
 11
50
 21
611.86
  0
LINE
  8
0
 10
50
 20
611.86
 11
50
 21
613.1
  0
LINE
  8
0
 10
50
 20
613.1
 11
10
 21
613.1
  0
LINE
  8
0
 10
10
 20
613.1
 11
10
 21
550
  0
LINE
  8
0
 10
10
 20
550
 11
8.75999
 21
550
  0
LINE
  8
0
 10
8.75999
 20
550
 11
8.7583
 21
550.032
  0
LINE
  8
0
 10
8.7583
 20
550.032
 11
8.75322
 21
550.064
  0
LINE
  8
0
 10
8.75322
 20
550.064
 11
8.74483
 21
550.096
  0
LINE
  8
0
 10
8.74483
 20
550.096
 11
8.7332
 21
550.126
  0
LINE
  8
0
 10
8.7332
 20
550.126
 11
8.71846
 21
550.155
  0
LINE
  8
0
 10
8.71846
 20
550.155
 11
8.70079
 21
550.182
  0
LINE
  8
0
 10
8.70079
 20
550.182
 11
8.68037
 21
550.207
  0
LINE
  8
0
 10
8.68037
 20
550.207
 11
8.65742
 21
550.23
  0
LINE
  8
0
 10
8.65742
 20
550.23
 11
8.6322
 21
550.251
  0
LINE
  8
0
 10
8.6322
 20
550.251
 11
8.605
 21
550.268
  0
LINE
  8
0
 10
8.605
 20
550.268
 11
8.57608
 21
550.283
  0
LINE
  8
0
 10
8.57608
 20
550.283
 11
8.54579
 21
550.295
  0
LINE
  8
0
 10
8.54579
 20
550.295
 11
8.51445
 21
550.303
  0
LINE
  8
0
 10
8.51445
 20
550.303
 11
8.48239
 21
550.308
  0
LINE
  8
0
 10
8.48239
 20
550.308
 11
8.45
 21
550.31
  0
LINE
  8
0
 10
8.45
 20
550.31
 11
8.41759
 21
550.308
  0
LINE
  8
0
 10
8.41759
 20
550.308
 11
8.38554
 21
550.303
  0
LINE
  8
0
 10
8.38554
 20
550.303
 11
8.3542
 21
550.295
  0
LINE
  8
0
 10
8.3542
 20
550.295
 11
8.3239
 21
550.283
  0
LINE
  8
0
 10
8.3239
 20
550.283
 11
8.295
 21
550.268
  0
LINE
  8
0
 10
8.295
 20
550.268
 11
8.26778
 21
550.251
  0
LINE
  8
0
 10
8.26778
 20
550.251
 11
8.24257
 21
550.23
  0
LINE
  8
0
 10
8.24257
 20
550.23
 11
8.21962
 21
550.207
  0
LINE
  8
0
 10
8.21962
 20
550.207
 11
8.1992
 21
550.182
  0
LINE
  8
0
 10
8.1992
 20
550.182
 11
8.18152
 21
550.155
  0
LINE
  8
0
 10
8.18152
 20
550.155
 11
8.16679
 21
550.126
  0
LINE
  8
0
 10
8.16679
 20
550.126
 11
8.15517
 21
550.096
  0
LINE
  8
0
 10
8.15517
 20
550.096
 11
8.14677
 21
550.064
  0
LINE
  8
0
 10
8.14677
 20
550.064
 11
8.14169
 21
550.032
  0
LINE
  8
0
 10
8.14169
 20
550.032
 11
8.14
 21
550
  0
LINE
  8
0
 10
8.14
 20
550
 11
6.89999
 21
550
  0
LINE
  8
0
 10
6.89999
 20
550
 11
6.89999
 21
490
  0
LINE
  8
0
 10
6.89999
 20
490
 11
10
 21
490
  0
LINE
  8
0
 10
10
 20
490
 11
10
 21
430
  0
LINE
  8
0
 10
10
 20
430
 11
8.75999
 21
430
  0
LINE
  8
0
 10
8.75999
 20
430
 11
8.7583
 21
430.032
  0
LINE
  8
0
 10
8.7583
 20
430.032
 11
8.75322
 21
430.064
  0
LINE
  8
0
 10
8.75322
 20
430.064
 11
8.74483
 21
430.096
  0
LINE
  8
0
 10
8.74483
 20
430.096
 11
8.7332
 21
430.126
  0
LINE
  8
0
 10
8.7332
 20
430.126
 11
8.71846
 21
430.155
  0
LINE
  8
0
 10
8.71846
 20
430.155
 11
8.70079
 21
430.182
  0
LINE
  8
0
 10
8.70079
 20
430.182
 11
8.68037
 21
430.207
  0
LINE
  8
0
 10
8.68037
 20
430.207
 11
8.65742
 21
430.23
  0
LINE
  8
0
 10
8.65742
 20
430.23
 11
8.6322
 21
430.251
  0
LINE
  8
0
 10
8.6322
 20
430.251
 11
8.605
 21
430.268
  0
LINE
  8
0
 10
8.605
 20
430.268
 11
8.57608
 21
430.283
  0
LINE
  8
0
 10
8.57608
 20
430.283
 11
8.54579
 21
430.295
  0
LINE
  8
0
 10
8.54579
 20
430.295
 11
8.51445
 21
430.303
  0
LINE
  8
0
 10
8.51445
 20
430.303
 11
8.48239
 21
430.308
  0
LINE
  8
0
 10
8.48239
 20
430.308
 11
8.45
 21
430.31
  0
LINE
  8
0
 10
8.45
 20
430.31
 11
8.41759
 21
430.308
  0
LINE
  8
0
 10
8.41759
 20
430.308
 11
8.38554
 21
430.303
  0
LINE
  8
0
 10
8.38554
 20
430.303
 11
8.3542
 21
430.295
  0
LINE
  8
0
 10
8.3542
 20
430.295
 11
8.3239
 21
430.283
  0
LINE
  8
0
 10
8.3239
 20
430.283
 11
8.295
 21
430.268
  0
LINE
  8
0
 10
8.295
 20
430.268
 11
8.26778
 21
430.251
  0
LINE
  8
0
 10
8.26778
 20
430.251
 11
8.24257
 21
430.23
  0
LINE
  8
0
 10
8.24257
 20
430.23
 11
8.21962
 21
430.207
  0
LINE
  8
0
 10
8.21962
 20
430.207
 11
8.1992
 21
430.182
  0
LINE
  8
0
 10
8.1992
 20
430.182
 11
8.18152
 21
430.155
  0
LINE
  8
0
 10
8.18152
 20
430.155
 11
8.16679
 21
430.126
  0
LINE
  8
0
 10
8.16679
 20
430.126
 11
8.15517
 21
430.096
  0
LINE
  8
0
 10
8.15517
 20
430.096
 11
8.14677
 21
430.064
  0
LINE
  8
0
 10
8.14677
 20
430.064
 11
8.14169
 21
430.032
  0
LINE
  8
0
 10
8.14169
 20
430.032
 11
8.14
 21
430
  0
LINE
  8
0
 10
8.14
 20
430
 11
6.89999
 21
430
  0
LINE
  8
0
 10
6.89999
 20
430
 11
6.89999
 21
370
  0
LINE
  8
0
 10
6.89999
 20
370
 11
10
 21
370
  0
LINE
  8
0
 10
10
 20
370
 11
10
 21
310
  0
LINE
  8
0
 10
10
 20
310
 11
8.75999
 21
310
  0
LINE
  8
0
 10
8.75999
 20
310
 11
8.7583
 21
310.032
  0
LINE
  8
0
 10
8.7583
 20
310.032
 11
8.75322
 21
310.064
  0
LINE
  8
0
 10
8.75322
 20
310.064
 11
8.74483
 21
310.096
  0
LINE
  8
0
 10
8.74483
 20
310.096
 11
8.7332
 21
310.126
  0
LINE
  8
0
 10
8.7332
 20
310.126
 11
8.71846
 21
310.155
  0
LINE
  8
0
 10
8.71846
 20
310.155
 11
8.70079
 21
310.182
  0
LINE
  8
0
 10
8.70079
 20
310.182
 11
8.68037
 21
310.207
  0
LINE
  8
0
 10
8.68037
 20
310.207
 11
8.65742
 21
310.23
  0
LINE
  8
0
 10
8.65742
 20
310.23
 11
8.6322
 21
310.251
  0
LINE
  8
0
 10
8.6322
 20
310.251
 11
8.605
 21
310.268
  0
LINE
  8
0
 10
8.605
 20
310.268
 11
8.57608
 21
310.283
  0
LINE
  8
0
 10
8.57608
 20
310.283
 11
8.54579
 21
310.295
  0
LINE
  8
0
 10
8.54579
 20
310.295
 11
8.51445
 21
310.303
  0
LINE
  8
0
 10
8.51445
 20
310.303
 11
8.48239
 21
310.308
  0
LINE
  8
0
 10
8.48239
 20
310.308
 11
8.45
 21
310.31
  0
LINE
  8
0
 10
8.45
 20
310.31
 11
8.41759
 21
310.308
  0
LINE
  8
0
 10
8.41759
 20
310.308
 11
8.38554
 21
310.303
  0
LINE
  8
0
 10
8.38554
 20
310.303
 11
8.3542
 21
310.295
  0
LINE
  8
0
 10
8.3542
 20
310.295
 11
8.3239
 21
310.283
  0
LINE
  8
0
 10
8.3239
 20
310.283
 11
8.295
 21
310.268
  0
LINE
  8
0
 10
8.295
 20
310.268
 11
8.26778
 21
310.251
  0
LINE
  8
0
 10
8.26778
 20
310.251
 11
8.24257
 21
310.23
  0
LINE
  8
0
 10
8.24257
 20
310.23
 11
8.21962
 21
310.207
  0
LINE
  8
0
 10
8.21962
 20
310.207
 11
8.1992
 21
310.182
  0
LINE
  8
0
 10
8.1992
 20
310.182
 11
8.18152
 21
310.155
  0
LINE
  8
0
 10
8.18152
 20
310.155
 11
8.16679
 21
310.126
  0
LINE
  8
0
 10
8.16679
 20
310.126
 11
8.15517
 21
310.096
  0
LINE
  8
0
 10
8.15517
 20
310.096
 11
8.14677
 21
310.064
  0
LINE
  8
0
 10
8.14677
 20
310.064
 11
8.14169
 21
310.032
  0
LINE
  8
0
 10
8.14169
 20
310.032
 11
8.14
 21
310
  0
LINE
  8
0
 10
8.14
 20
310
 11
6.89999
 21
310
  0
LINE
  8
0
 10
6.89999
 20
310
 11
6.89999
 21
250
  0
LINE
  8
0
 10
6.89999
 20
250
 11
10
 21
250
  0
LINE
  8
0
 10
10
 20
250
 11
10
 21
190
  0
LINE
  8
0
 10
10
 20
190
 11
8.75999
 21
190
  0
LINE
  8
0
 10
8.75999
 20
190
 11
8.7583
 21
190.032
  0
LINE
  8
0
 10
8.7583
 20
190.032
 11
8.75322
 21
190.064
  0
LINE
  8
0
 10
8.75322
 20
190.064
 11
8.74483
 21
190.096
  0
LINE
  8
0
 10
8.74483
 20
190.096
 11
8.7332
 21
190.126
  0
LINE
  8
0
 10
8.7332
 20
190.126
 11
8.71846
 21
190.155
  0
LINE
  8
0
 10
8.71846
 20
190.155
 11
8.70079
 21
190.182
  0
LINE
  8
0
 10
8.70079
 20
190.182
 11
8.68037
 21
190.207
  0
LINE
  8
0
 10
8.68037
 20
190.207
 11
8.65742
 21
190.23
  0
LINE
  8
0
 10
8.65742
 20
190.23
 11
8.6322
 21
190.251
  0
LINE
  8
0
 10
8.6322
 20
190.251
 11
8.605
 21
190.268
  0
LINE
  8
0
 10
8.605
 20
190.268
 11
8.57608
 21
190.283
  0
LINE
  8
0
 10
8.57608
 20
190.283
 11
8.54579
 21
190.295
  0
LINE
  8
0
 10
8.54579
 20
190.295
 11
8.51445
 21
190.303
  0
LINE
  8
0
 10
8.51445
 20
190.303
 11
8.48239
 21
190.308
  0
LINE
  8
0
 10
8.48239
 20
190.308
 11
8.45
 21
190.31
  0
LINE
  8
0
 10
8.45
 20
190.31
 11
8.41759
 21
190.308
  0
LINE
  8
0
 10
8.41759
 20
190.308
 11
8.38554
 21
190.303
  0
LINE
  8
0
 10
8.38554
 20
190.303
 11
8.3542
 21
190.295
  0
LINE
  8
0
 10
8.3542
 20
190.295
 11
8.3239
 21
190.283
  0
LINE
  8
0
 10
8.3239
 20
190.283
 11
8.295
 21
190.268
  0
LINE
  8
0
 10
8.295
 20
190.268
 11
8.26778
 21
190.251
  0
LINE
  8
0
 10
8.26778
 20
190.251
 11
8.24257
 21
190.23
  0
LINE
  8
0
 10
8.24257
 20
190.23
 11
8.21962
 21
190.207
  0
LINE
  8
0
 10
8.21962
 20
190.207
 11
8.1992
 21
190.182
  0
LINE
  8
0
 10
8.1992
 20
190.182
 11
8.18152
 21
190.155
  0
LINE
  8
0
 10
8.18152
 20
190.155
 11
8.16679
 21
190.126
  0
LINE
  8
0
 10
8.16679
 20
190.126
 11
8.15517
 21
190.096
  0
LINE
  8
0
 10
8.15517
 20
190.096
 11
8.14677
 21
190.064
  0
LINE
  8
0
 10
8.14677
 20
190.064
 11
8.14169
 21
190.032
  0
LINE
  8
0
 10
8.14169
 20
190.032
 11
8.14
 21
190
  0
LINE
  8
0
 10
8.14
 20
190
 11
6.89999
 21
190
  0
LINE
  8
0
 10
6.89999
 20
190
 11
6.89999
 21
130
  0
LINE
  8
0
 10
6.89999
 20
130
 11
10
 21
130
  0
LINE
  8
0
 10
10
 20
130
 11
10
 21
70
  0
LINE
  8
0
 10
10
 20
70
 11
8.75999
 21
70
  0
LINE
  8
0
 10
8.75999
 20
70
 11
8.7583
 21
70.0324
  0
LINE
  8
0
 10
8.7583
 20
70.0324
 11
8.75322
 21
70.0645
  0
LINE
  8
0
 10
8.75322
 20
70.0645
 11
8.74483
 21
70.0958
  0
LINE
  8
0
 10
8.74483
 20
70.0958
 11
8.7332
 21
70.1261
  0
LINE
  8
0
 10
8.7332
 20
70.1261
 11
8.71846
 21
70.155
  0
LINE
  8
0
 10
8.71846
 20
70.155
 11
8.70079
 21
70.1822
  0
LINE
  8
0
 10
8.70079
 20
70.1822
 11
8.68037
 21
70.2074
  0
LINE
  8
0
 10
8.68037
 20
70.2074
 11
8.65742
 21
70.2304
  0
LINE
  8
0
 10
8.65742
 20
70.2304
 11
8.6322
 21
70.2508
  0
LINE
  8
0
 10
8.6322
 20
70.2508
 11
8.605
 21
70.2685
  0
LINE
  8
0
 10
8.605
 20
70.2685
 11
8.57608
 21
70.2832
  0
LINE
  8
0
 10
8.57608
 20
70.2832
 11
8.54579
 21
70.2948
  0
LINE
  8
0
 10
8.54579
 20
70.2948
 11
8.51445
 21
70.3032
  0
LINE
  8
0
 10
8.51445
 20
70.3032
 11
8.48239
 21
70.3083
  0
LINE
  8
0
 10
8.48239
 20
70.3083
 11
8.45
 21
70.31
  0
LINE
  8
0
 10
8.45
 20
70.31
 11
8.41759
 21
70.3083
  0
LINE
  8
0
 10
8.41759
 20
70.3083
 11
8.38554
 21
70.3032
  0
LINE
  8
0
 10
8.38554
 20
70.3032
 11
8.3542
 21
70.2948
  0
LINE
  8
0
 10
8.3542
 20
70.2948
 11
8.3239
 21
70.2832
  0
LINE
  8
0
 10
8.3239
 20
70.2832
 11
8.295
 21
70.2685
  0
LINE
  8
0
 10
8.295
 20
70.2685
 11
8.26778
 21
70.2508
  0
LINE
  8
0
 10
8.26778
 20
70.2508
 11
8.24257
 21
70.2304
  0
LINE
  8
0
 10
8.24257
 20
70.2304
 11
8.21962
 21
70.2074
  0
LINE
  8
0
 10
8.21962
 20
70.2074
 11
8.1992
 21
70.1822
  0
LINE
  8
0
 10
8.1992
 20
70.1822
 11
8.18152
 21
70.155
  0
LINE
  8
0
 10
8.18152
 20
70.155
 11
8.16679
 21
70.1261
  0
LINE
  8
0
 10
8.16679
 20
70.1261
 11
8.15517
 21
70.0958
  0
LINE
  8
0
 10
8.15517
 20
70.0958
 11
8.14677
 21
70.0645
  0
LINE
  8
0
 10
8.14677
 20
70.0645
 11
8.14169
 21
70.0324
  0
LINE
  8
0
 10
8.14169
 20
70.0324
 11
8.14
 21
70
  0
LINE
  8
0
 10
8.14
 20
70
 11
6.89999
 21
70
  0
LINE
  8
0
 10
6.89999
 20
70
 11
6.89999
 21
10
  0
LINE
  8
0
 10
6.89999
 20
10
 11
50
 21
10
  0
LINE
  8
0
 10
50
 20
10
 11
50
 21
8.75999
  0
LINE
  8
0
 10
50
 20
8.75999
 11
49.9676
 21
8.7583
  0
LINE
  8
0
 10
49.9676
 20
8.7583
 11
49.9355
 21
8.75322
  0
LINE
  8
0
 10
49.9355
 20
8.75322
 11
49.9042
 21
8.74483
  0
LINE
  8
0
 10
49.9042
 20
8.74483
 11
49.8739
 21
8.7332
  0
LINE
  8
0
 10
49.8739
 20
8.7332
 11
49.845
 21
8.71846
  0
LINE
  8
0
 10
49.845
 20
8.71846
 11
49.8178
 21
8.70079
  0
LINE
  8
0
 10
49.8178
 20
8.70079
 11
49.7926
 21
8.68037
  0
LINE
  8
0
 10
49.7926
 20
8.68037
 11
49.7696
 21
8.65742
  0
LINE
  8
0
 10
49.7696
 20
8.65742
 11
49.7492
 21
8.6322
  0
LINE
  8
0
 10
49.7492
 20
8.6322
 11
49.7315
 21
8.605
  0
LINE
  8
0
 10
49.7315
 20
8.605
 11
49.7168
 21
8.57608
  0
LINE
  8
0
 10
49.7168
 20
8.57608
 11
49.7052
 21
8.54579
  0
LINE
  8
0
 10
49.7052
 20
8.54579
 11
49.6968
 21
8.51445
  0
LINE
  8
0
 10
49.6968
 20
8.51445
 11
49.6917
 21
8.48239
  0
LINE
  8
0
 10
49.6917
 20
8.48239
 11
49.69
 21
8.45
  0
LINE
  8
0
 10
49.69
 20
8.45
 11
49.6917
 21
8.41759
  0
LINE
  8
0
 10
49.6917
 20
8.41759
 11
49.6968
 21
8.38554
  0
LINE
  8
0
 10
49.6968
 20
8.38554
 11
49.7052
 21
8.3542
  0
LINE
  8
0
 10
49.7052
 20
8.3542
 11
49.7168
 21
8.3239
  0
LINE
  8
0
 10
49.7168
 20
8.3239
 11
49.7315
 21
8.295
  0
LINE
  8
0
 10
49.7315
 20
8.295
 11
49.7492
 21
8.26778
  0
LINE
  8
0
 10
49.7492
 20
8.26778
 11
49.7696
 21
8.24257
  0
LINE
  8
0
 10
49.7696
 20
8.24257
 11
49.7926
 21
8.21962
  0
LINE
  8
0
 10
49.7926
 20
8.21962
 11
49.8178
 21
8.1992
  0
LINE
  8
0
 10
49.8178
 20
8.1992
 11
49.845
 21
8.18152
  0
LINE
  8
0
 10
49.845
 20
8.18152
 11
49.8739
 21
8.16679
  0
LINE
  8
0
 10
49.8739
 20
8.16679
 11
49.9042
 21
8.15517
  0
LINE
  8
0
 10
49.9042
 20
8.15517
 11
49.9355
 21
8.14677
  0
LINE
  8
0
 10
49.9355
 20
8.14677
 11
49.9676
 21
8.14169
  0
LINE
  8
0
 10
49.9676
 20
8.14169
 11
50
 21
8.14
  0
LINE
  8
0
 10
50
 20
8.14
 11
50
 21
6.89999
  0
LINE
  8
0
 10
50
 20
6.89999
 11
90
 21
6.89999
  0
LINE
  8
0
 10
90
 20
6.89999
 11
90
 21
10
  0
LINE
  8
0
 10
1653.26
 20
64.124
 11
1650
 21
64.124
  0
LINE
  8
0
 10
1650
 20
64.124
 11
1650
 21
119.124
  0
LINE
  8
0
 10
1650
 20
119.124
 11
1653.26
 21
119.124
  0
LINE
  8
0
 10
1653.26
 20
119.124
 11
1653.26
 21
174.124
  0
LINE
  8
0
 10
1653.26
 20
174.124
 11
1650
 21
174.124
  0
LINE
  8
0
 10
1650
 20
174.124
 11
1650
 21
229.124
  0
LINE
  8
0
 10
1650
 20
229.124
 11
1653.26
 21
229.124
  0
LINE
  8
0
 10
1653.26
 20
229.124
 11
1653.26
 21
284.124
  0
LINE
  8
0
 10
1653.26
 20
284.124
 11
1650
 21
284.124
  0
LINE
  8
0
 10
1650
 20
284.124
 11
1650
 21
339.124
  0
LINE
  8
0
 10
1650
 20
339.124
 11
1653.26
 21
339.124
  0
LINE
  8
0
 10
1653.26
 20
339.124
 11
1653.26
 21
394.124
  0
LINE
  8
0
 10
1653.26
 20
394.124
 11
1650
 21
394.124
  0
LINE
  8
0
 10
1650
 20
394.124
 11
1650
 21
449.124
  0
LINE
  8
0
 10
1650
 20
449.124
 11
1653.26
 21
449.124
  0
LINE
  8
0
 10
1653.26
 20
449.124
 11
1653.26
 21
504.124
  0
LINE
  8
0
 10
1653.26
 20
504.124
 11
1650
 21
504.124
  0
LINE
  8
0
 10
1650
 20
504.124
 11
1650
 21
559.124
  0
LINE
  8
0
 10
1650
 20
559.124
 11
1250
 21
559.124
  0
LINE
  8
0
 10
1250
 20
559.124
 11
1250
 21
504.124
  0
LINE
  8
0
 10
1250
 20
504.124
 11
1248.7
 21
504.124
  0
LINE
  8
0
 10
1248.7
 20
504.124
 11
1248.7
 21
504.158
  0
LINE
  8
0
 10
1248.7
 20
504.158
 11
1248.69
 21
504.192
  0
LINE
  8
0
 10
1248.69
 20
504.192
 11
1248.68
 21
504.225
  0
LINE
  8
0
 10
1248.68
 20
504.225
 11
1248.67
 21
504.256
  0
LINE
  8
0
 10
1248.67
 20
504.256
 11
1248.65
 21
504.287
  0
LINE
  8
0
 10
1248.65
 20
504.287
 11
1248.64
 21
504.315
  0
LINE
  8
0
 10
1248.64
 20
504.315
 11
1248.61
 21
504.342
  0
LINE
  8
0
 10
1248.61
 20
504.342
 11
1248.59
 21
504.366
  0
LINE
  8
0
 10
1248.59
 20
504.366
 11
1248.56
 21
504.387
  0
LINE
  8
0
 10
1248.56
 20
504.387
 11
1248.54
 21
504.406
  0
LINE
  8
0
 10
1248.54
 20
504.406
 11
1248.5
 21
504.421
  0
LINE
  8
0
 10
1248.5
 20
504.421
 11
1248.47
 21
504.434
  0
LINE
  8
0
 10
1248.47
 20
504.434
 11
1248.44
 21
504.442
  0
LINE
  8
0
 10
1248.44
 20
504.442
 11
1248.41
 21
504.448
  0
LINE
  8
0
 10
1248.41
 20
504.448
 11
1248.37
 21
504.45
  0
LINE
  8
0
 10
1248.37
 20
504.45
 11
1248.34
 21
504.448
  0
LINE
  8
0
 10
1248.34
 20
504.448
 11
1248.3
 21
504.442
  0
LINE
  8
0
 10
1248.3
 20
504.442
 11
1248.27
 21
504.434
  0
LINE
  8
0
 10
1248.27
 20
504.434
 11
1248.24
 21
504.421
  0
LINE
  8
0
 10
1248.24
 20
504.421
 11
1248.21
 21
504.406
  0
LINE
  8
0
 10
1248.21
 20
504.406
 11
1248.18
 21
504.387
  0
LINE
  8
0
 10
1248.18
 20
504.387
 11
1248.15
 21
504.366
  0
LINE
  8
0
 10
1248.15
 20
504.366
 11
1248.13
 21
504.342
  0
LINE
  8
0
 10
1248.13
 20
504.342
 11
1248.11
 21
504.315
  0
LINE
  8
0
 10
1248.11
 20
504.315
 11
1248.09
 21
504.287
  0
LINE
  8
0
 10
1248.09
 20
504.287
 11
1248.08
 21
504.256
  0
LINE
  8
0
 10
1248.08
 20
504.256
 11
1248.06
 21
504.225
  0
LINE
  8
0
 10
1248.06
 20
504.225
 11
1248.05
 21
504.192
  0
LINE
  8
0
 10
1248.05
 20
504.192
 11
1248.05
 21
504.158
  0
LINE
  8
0
 10
1248.05
 20
504.158
 11
1248.05
 21
504.124
  0
LINE
  8
0
 10
1248.05
 20
504.124
 11
1246.74
 21
504.124
  0
LINE
  8
0
 10
1246.74
 20
504.124
 11
1246.74
 21
449.124
  0
LINE
  8
0
 10
1246.74
 20
449.124
 11
1250
 21
449.124
  0
LINE
  8
0
 10
1250
 20
449.124
 11
1250
 21
394.124
  0
LINE
  8
0
 10
1250
 20
394.124
 11
1248.7
 21
394.124
  0
LINE
  8
0
 10
1248.7
 20
394.124
 11
1248.7
 21
394.158
  0
LINE
  8
0
 10
1248.7
 20
394.158
 11
1248.69
 21
394.192
  0
LINE
  8
0
 10
1248.69
 20
394.192
 11
1248.68
 21
394.225
  0
LINE
  8
0
 10
1248.68
 20
394.225
 11
1248.67
 21
394.256
  0
LINE
  8
0
 10
1248.67
 20
394.256
 11
1248.65
 21
394.287
  0
LINE
  8
0
 10
1248.65
 20
394.287
 11
1248.64
 21
394.315
  0
LINE
  8
0
 10
1248.64
 20
394.315
 11
1248.61
 21
394.342
  0
LINE
  8
0
 10
1248.61
 20
394.342
 11
1248.59
 21
394.366
  0
LINE
  8
0
 10
1248.59
 20
394.366
 11
1248.56
 21
394.387
  0
LINE
  8
0
 10
1248.56
 20
394.387
 11
1248.54
 21
394.406
  0
LINE
  8
0
 10
1248.54
 20
394.406
 11
1248.5
 21
394.421
  0
LINE
  8
0
 10
1248.5
 20
394.421
 11
1248.47
 21
394.434
  0
LINE
  8
0
 10
1248.47
 20
394.434
 11
1248.44
 21
394.442
  0
LINE
  8
0
 10
1248.44
 20
394.442
 11
1248.41
 21
394.448
  0
LINE
  8
0
 10
1248.41
 20
394.448
 11
1248.37
 21
394.45
  0
LINE
  8
0
 10
1248.37
 20
394.45
 11
1248.34
 21
394.448
  0
LINE
  8
0
 10
1248.34
 20
394.448
 11
1248.3
 21
394.442
  0
LINE
  8
0
 10
1248.3
 20
394.442
 11
1248.27
 21
394.434
  0
LINE
  8
0
 10
1248.27
 20
394.434
 11
1248.24
 21
394.421
  0
LINE
  8
0
 10
1248.24
 20
394.421
 11
1248.21
 21
394.406
  0
LINE
  8
0
 10
1248.21
 20
394.406
 11
1248.18
 21
394.387
  0
LINE
  8
0
 10
1248.18
 20
394.387
 11
1248.15
 21
394.366
  0
LINE
  8
0
 10
1248.15
 20
394.366
 11
1248.13
 21
394.342
  0
LINE
  8
0
 10
1248.13
 20
394.342
 11
1248.11
 21
394.315
  0
LINE
  8
0
 10
1248.11
 20
394.315
 11
1248.09
 21
394.287
  0
LINE
  8
0
 10
1248.09
 20
394.287
 11
1248.08
 21
394.256
  0
LINE
  8
0
 10
1248.08
 20
394.256
 11
1248.06
 21
394.225
  0
LINE
  8
0
 10
1248.06
 20
394.225
 11
1248.05
 21
394.192
  0
LINE
  8
0
 10
1248.05
 20
394.192
 11
1248.05
 21
394.158
  0
LINE
  8
0
 10
1248.05
 20
394.158
 11
1248.05
 21
394.124
  0
LINE
  8
0
 10
1248.05
 20
394.124
 11
1246.74
 21
394.124
  0
LINE
  8
0
 10
1246.74
 20
394.124
 11
1246.74
 21
339.124
  0
LINE
  8
0
 10
1246.74
 20
339.124
 11
1250
 21
339.124
  0
LINE
  8
0
 10
1250
 20
339.124
 11
1250
 21
284.124
  0
LINE
  8
0
 10
1250
 20
284.124
 11
1248.7
 21
284.124
  0
LINE
  8
0
 10
1248.7
 20
284.124
 11
1248.7
 21
284.158
  0
LINE
  8
0
 10
1248.7
 20
284.158
 11
1248.69
 21
284.192
  0
LINE
  8
0
 10
1248.69
 20
284.192
 11
1248.68
 21
284.225
  0
LINE
  8
0
 10
1248.68
 20
284.225
 11
1248.67
 21
284.256
  0
LINE
  8
0
 10
1248.67
 20
284.256
 11
1248.65
 21
284.287
  0
LINE
  8
0
 10
1248.65
 20
284.287
 11
1248.64
 21
284.315
  0
LINE
  8
0
 10
1248.64
 20
284.315
 11
1248.61
 21
284.342
  0
LINE
  8
0
 10
1248.61
 20
284.342
 11
1248.59
 21
284.366
  0
LINE
  8
0
 10
1248.59
 20
284.366
 11
1248.56
 21
284.387
  0
LINE
  8
0
 10
1248.56
 20
284.387
 11
1248.54
 21
284.406
  0
LINE
  8
0
 10
1248.54
 20
284.406
 11
1248.5
 21
284.421
  0
LINE
  8
0
 10
1248.5
 20
284.421
 11
1248.47
 21
284.434
  0
LINE
  8
0
 10
1248.47
 20
284.434
 11
1248.44
 21
284.442
  0
LINE
  8
0
 10
1248.44
 20
284.442
 11
1248.41
 21
284.448
  0
LINE
  8
0
 10
1248.41
 20
284.448
 11
1248.37
 21
284.45
  0
LINE
  8
0
 10
1248.37
 20
284.45
 11
1248.34
 21
284.448
  0
LINE
  8
0
 10
1248.34
 20
284.448
 11
1248.3
 21
284.442
  0
LINE
  8
0
 10
1248.3
 20
284.442
 11
1248.27
 21
284.434
  0
LINE
  8
0
 10
1248.27
 20
284.434
 11
1248.24
 21
284.421
  0
LINE
  8
0
 10
1248.24
 20
284.421
 11
1248.21
 21
284.406
  0
LINE
  8
0
 10
1248.21
 20
284.406
 11
1248.18
 21
284.387
  0
LINE
  8
0
 10
1248.18
 20
284.387
 11
1248.15
 21
284.366
  0
LINE
  8
0
 10
1248.15
 20
284.366
 11
1248.13
 21
284.342
  0
LINE
  8
0
 10
1248.13
 20
284.342
 11
1248.11
 21
284.315
  0
LINE
  8
0
 10
1248.11
 20
284.315
 11
1248.09
 21
284.287
  0
LINE
  8
0
 10
1248.09
 20
284.287
 11
1248.08
 21
284.256
  0
LINE
  8
0
 10
1248.08
 20
284.256
 11
1248.06
 21
284.225
  0
LINE
  8
0
 10
1248.06
 20
284.225
 11
1248.05
 21
284.192
  0
LINE
  8
0
 10
1248.05
 20
284.192
 11
1248.05
 21
284.158
  0
LINE
  8
0
 10
1248.05
 20
284.158
 11
1248.05
 21
284.124
  0
LINE
  8
0
 10
1248.05
 20
284.124
 11
1246.74
 21
284.124
  0
LINE
  8
0
 10
1246.74
 20
284.124
 11
1246.74
 21
229.124
  0
LINE
  8
0
 10
1246.74
 20
229.124
 11
1250
 21
229.124
  0
LINE
  8
0
 10
1250
 20
229.124
 11
1250
 21
174.124
  0
LINE
  8
0
 10
1250
 20
174.124
 11
1248.7
 21
174.124
  0
LINE
  8
0
 10
1248.7
 20
174.124
 11
1248.7
 21
174.158
  0
LINE
  8
0
 10
1248.7
 20
174.158
 11
1248.69
 21
174.192
  0
LINE
  8
0
 10
1248.69
 20
174.192
 11
1248.68
 21
174.225
  0
LINE
  8
0
 10
1248.68
 20
174.225
 11
1248.67
 21
174.256
  0
LINE
  8
0
 10
1248.67
 20
174.256
 11
1248.65
 21
174.287
  0
LINE
  8
0
 10
1248.65
 20
174.287
 11
1248.64
 21
174.315
  0
LINE
  8
0
 10
1248.64
 20
174.315
 11
1248.61
 21
174.342
  0
LINE
  8
0
 10
1248.61
 20
174.342
 11
1248.59
 21
174.366
  0
LINE
  8
0
 10
1248.59
 20
174.366
 11
1248.56
 21
174.387
  0
LINE
  8
0
 10
1248.56
 20
174.387
 11
1248.54
 21
174.406
  0
LINE
  8
0
 10
1248.54
 20
174.406
 11
1248.5
 21
174.421
  0
LINE
  8
0
 10
1248.5
 20
174.421
 11
1248.47
 21
174.434
  0
LINE
  8
0
 10
1248.47
 20
174.434
 11
1248.44
 21
174.442
  0
LINE
  8
0
 10
1248.44
 20
174.442
 11
1248.41
 21
174.448
  0
LINE
  8
0
 10
1248.41
 20
174.448
 11
1248.37
 21
174.45
  0
LINE
  8
0
 10
1248.37
 20
174.45
 11
1248.34
 21
174.448
  0
LINE
  8
0
 10
1248.34
 20
174.448
 11
1248.3
 21
174.442
  0
LINE
  8
0
 10
1248.3
 20
174.442
 11
1248.27
 21
174.434
  0
LINE
  8
0
 10
1248.27
 20
174.434
 11
1248.24
 21
174.421
  0
LINE
  8
0
 10
1248.24
 20
174.421
 11
1248.21
 21
174.406
  0
LINE
  8
0
 10
1248.21
 20
174.406
 11
1248.18
 21
174.387
  0
LINE
  8
0
 10
1248.18
 20
174.387
 11
1248.15
 21
174.366
  0
LINE
  8
0
 10
1248.15
 20
174.366
 11
1248.13
 21
174.342
  0
LINE
  8
0
 10
1248.13
 20
174.342
 11
1248.11
 21
174.315
  0
LINE
  8
0
 10
1248.11
 20
174.315
 11
1248.09
 21
174.287
  0
LINE
  8
0
 10
1248.09
 20
174.287
 11
1248.08
 21
174.256
  0
LINE
  8
0
 10
1248.08
 20
174.256
 11
1248.06
 21
174.225
  0
LINE
  8
0
 10
1248.06
 20
174.225
 11
1248.05
 21
174.192
  0
LINE
  8
0
 10
1248.05
 20
174.192
 11
1248.05
 21
174.158
  0
LINE
  8
0
 10
1248.05
 20
174.158
 11
1248.05
 21
174.124
  0
LINE
  8
0
 10
1248.05
 20
174.124
 11
1246.74
 21
174.124
  0
LINE
  8
0
 10
1246.74
 20
174.124
 11
1246.74
 21
119.124
  0
LINE
  8
0
 10
1246.74
 20
119.124
 11
1250
 21
119.124
  0
LINE
  8
0
 10
1250
 20
119.124
 11
1250
 21
64.124
  0
LINE
  8
0
 10
1250
 20
64.124
 11
1248.7
 21
64.124
  0
LINE
  8
0
 10
1248.7
 20
64.124
 11
1248.7
 21
64.1581
  0
LINE
  8
0
 10
1248.7
 20
64.1581
 11
1248.69
 21
64.1917
  0
LINE
  8
0
 10
1248.69
 20
64.1917
 11
1248.68
 21
64.2246
  0
LINE
  8
0
 10
1248.68
 20
64.2246
 11
1248.67
 21
64.2564
  0
LINE
  8
0
 10
1248.67
 20
64.2564
 11
1248.65
 21
64.2868
  0
LINE
  8
0
 10
1248.65
 20
64.2868
 11
1248.64
 21
64.3154
  0
LINE
  8
0
 10
1248.64
 20
64.3154
 11
1248.61
 21
64.3418
  0
LINE
  8
0
 10
1248.61
 20
64.3418
 11
1248.59
 21
64.3659
  0
LINE
  8
0
 10
1248.59
 20
64.3659
 11
1248.56
 21
64.3874
  0
LINE
  8
0
 10
1248.56
 20
64.3874
 11
1248.54
 21
64.4059
  0
LINE
  8
0
 10
1248.54
 20
64.4059
 11
1248.5
 21
64.4214
  0
LINE
  8
0
 10
1248.5
 20
64.4214
 11
1248.47
 21
64.4336
  0
LINE
  8
0
 10
1248.47
 20
64.4336
 11
1248.44
 21
64.4424
  0
LINE
  8
0
 10
1248.44
 20
64.4424
 11
1248.41
 21
64.4478
  0
LINE
  8
0
 10
1248.41
 20
64.4478
 11
1248.37
 21
64.4495
  0
LINE
  8
0
 10
1248.37
 20
64.4495
 11
1248.34
 21
64.4478
  0
LINE
  8
0
 10
1248.34
 20
64.4478
 11
1248.3
 21
64.4424
  0
LINE
  8
0
 10
1248.3
 20
64.4424
 11
1248.27
 21
64.4336
  0
LINE
  8
0
 10
1248.27
 20
64.4336
 11
1248.24
 21
64.4214
  0
LINE
  8
0
 10
1248.24
 20
64.4214
 11
1248.21
 21
64.4059
  0
LINE
  8
0
 10
1248.21
 20
64.4059
 11
1248.18
 21
64.3874
  0
LINE
  8
0
 10
1248.18
 20
64.3874
 11
1248.15
 21
64.3659
  0
LINE
  8
0
 10
1248.15
 20
64.3659
 11
1248.13
 21
64.3418
  0
LINE
  8
0
 10
1248.13
 20
64.3418
 11
1248.11
 21
64.3154
  0
LINE
  8
0
 10
1248.11
 20
64.3154
 11
1248.09
 21
64.2868
  0
LINE
  8
0
 10
1248.09
 20
64.2868
 11
1248.08
 21
64.2564
  0
LINE
  8
0
 10
1248.08
 20
64.2564
 11
1248.06
 21
64.2246
  0
LINE
  8
0
 10
1248.06
 20
64.2246
 11
1248.05
 21
64.1917
  0
LINE
  8
0
 10
1248.05
 20
64.1917
 11
1248.05
 21
64.1581
  0
LINE
  8
0
 10
1248.05
 20
64.1581
 11
1248.05
 21
64.124
  0
LINE
  8
0
 10
1248.05
 20
64.124
 11
1246.74
 21
64.124
  0
LINE
  8
0
 10
1246.74
 20
64.124
 11
1246.74
 21
9.12402
  0
LINE
  8
0
 10
1246.74
 20
9.12402
 11
1653.26
 21
9.12402
  0
LINE
  8
0
 10
1653.26
 20
9.12402
 11
1653.26
 21
64.124
  0
LINE
  8
0
 10
825.382
 20
489.692
 11
825.414
 21
489.697
  0
LINE
  8
0
 10
825.414
 20
489.697
 11
825.446
 21
489.705
  0
LINE
  8
0
 10
825.446
 20
489.705
 11
825.476
 21
489.717
  0
LINE
  8
0
 10
825.476
 20
489.717
 11
825.505
 21
489.732
  0
LINE
  8
0
 10
825.505
 20
489.732
 11
825.532
 21
489.749
  0
LINE
  8
0
 10
825.532
 20
489.749
 11
825.557
 21
489.77
  0
LINE
  8
0
 10
825.557
 20
489.77
 11
825.58
 21
489.793
  0
LINE
  8
0
 10
825.58
 20
489.793
 11
825.601
 21
489.818
  0
LINE
  8
0
 10
825.601
 20
489.818
 11
825.618
 21
489.845
  0
LINE
  8
0
 10
825.618
 20
489.845
 11
825.633
 21
489.874
  0
LINE
  8
0
 10
825.633
 20
489.874
 11
825.645
 21
489.904
  0
LINE
  8
0
 10
825.645
 20
489.904
 11
825.653
 21
489.936
  0
LINE
  8
0
 10
825.653
 20
489.936
 11
825.658
 21
489.968
  0
LINE
  8
0
 10
825.658
 20
489.968
 11
825.66
 21
490
  0
LINE
  8
0
 10
825.66
 20
490
 11
825.658
 21
490.032
  0
LINE
  8
0
 10
825.658
 20
490.032
 11
825.653
 21
490.064
  0
LINE
  8
0
 10
825.653
 20
490.064
 11
825.645
 21
490.096
  0
LINE
  8
0
 10
825.645
 20
490.096
 11
825.633
 21
490.126
  0
LINE
  8
0
 10
825.633
 20
490.126
 11
825.618
 21
490.155
  0
LINE
  8
0
 10
825.618
 20
490.155
 11
825.601
 21
490.182
  0
LINE
  8
0
 10
825.601
 20
490.182
 11
825.58
 21
490.207
  0
LINE
  8
0
 10
825.58
 20
490.207
 11
825.557
 21
490.23
  0
LINE
  8
0
 10
825.557
 20
490.23
 11
825.532
 21
490.251
  0
LINE
  8
0
 10
825.532
 20
490.251
 11
825.505
 21
490.268
  0
LINE
  8
0
 10
825.505
 20
490.268
 11
825.476
 21
490.283
  0
LINE
  8
0
 10
825.476
 20
490.283
 11
825.446
 21
490.295
  0
LINE
  8
0
 10
825.446
 20
490.295
 11
825.414
 21
490.303
  0
LINE
  8
0
 10
825.414
 20
490.303
 11
825.382
 21
490.308
  0
LINE
  8
0
 10
825.382
 20
490.308
 11
825.35
 21
490.31
  0
LINE
  8
0
 10
825.35
 20
490.31
 11
825.318
 21
490.308
  0
LINE
  8
0
 10
825.318
 20
490.308
 11
825.286
 21
490.303
  0
LINE
  8
0
 10
825.286
 20
490.303
 11
825.254
 21
490.295
  0
LINE
  8
0
 10
825.254
 20
490.295
 11
825.224
 21
490.283
  0
LINE
  8
0
 10
825.224
 20
490.283
 11
825.195
 21
490.268
  0
LINE
  8
0
 10
825.195
 20
490.268
 11
825.168
 21
490.251
  0
LINE
  8
0
 10
825.168
 20
490.251
 11
825.143
 21
490.23
  0
LINE
  8
0
 10
825.143
 20
490.23
 11
825.12
 21
490.207
  0
LINE
  8
0
 10
825.12
 20
490.207
 11
825.099
 21
490.182
  0
LINE
  8
0
 10
825.099
 20
490.182
 11
825.082
 21
490.155
  0
LINE
  8
0
 10
825.082
 20
490.155
 11
825.067
 21
490.126
  0
LINE
  8
0
 10
825.067
 20
490.126
 11
825.055
 21
490.096
  0
LINE
  8
0
 10
825.055
 20
490.096
 11
825.047
 21
490.064
  0
LINE
  8
0
 10
825.047
 20
490.064
 11
825.042
 21
490.032
  0
LINE
  8
0
 10
825.042
 20
490.032
 11
825.04
 21
490
  0
LINE
  8
0
 10
825.04
 20
490
 11
825.042
 21
489.968
  0
LINE
  8
0
 10
825.042
 20
489.968
 11
825.047
 21
489.936
  0
LINE
  8
0
 10
825.047
 20
489.936
 11
825.055
 21
489.904
  0
LINE
  8
0
 10
825.055
 20
489.904
 11
825.067
 21
489.874
  0
LINE
  8
0
 10
825.067
 20
489.874
 11
825.082
 21
489.845
  0
LINE
  8
0
 10
825.082
 20
489.845
 11
825.099
 21
489.818
  0
LINE
  8
0
 10
825.099
 20
489.818
 11
825.12
 21
489.793
  0
LINE
  8
0
 10
825.12
 20
489.793
 11
825.143
 21
489.77
  0
LINE
  8
0
 10
825.143
 20
489.77
 11
825.168
 21
489.749
  0
LINE
  8
0
 10
825.168
 20
489.749
 11
825.195
 21
489.732
  0
LINE
  8
0
 10
825.195
 20
489.732
 11
825.224
 21
489.717
  0
LINE
  8
0
 10
825.224
 20
489.717
 11
825.254
 21
489.705
  0
LINE
  8
0
 10
825.254
 20
489.705
 11
825.286
 21
489.697
  0
LINE
  8
0
 10
825.286
 20
489.697
 11
825.318
 21
489.692
  0
LINE
  8
0
 10
825.318
 20
489.692
 11
825.35
 21
489.69
  0
LINE
  8
0
 10
825.35
 20
489.69
 11
825.382
 21
489.692
  0
LINE
  8
0
 10
1035.38
 20
489.692
 11
1035.41
 21
489.697
  0
LINE
  8
0
 10
1035.41
 20
489.697
 11
1035.45
 21
489.705
  0
LINE
  8
0
 10
1035.45
 20
489.705
 11
1035.48
 21
489.717
  0
LINE
  8
0
 10
1035.48
 20
489.717
 11
1035.51
 21
489.732
  0
LINE
  8
0
 10
1035.51
 20
489.732
 11
1035.53
 21
489.749
  0
LINE
  8
0
 10
1035.53
 20
489.749
 11
1035.56
 21
489.77
  0
LINE
  8
0
 10
1035.56
 20
489.77
 11
1035.58
 21
489.793
  0
LINE
  8
0
 10
1035.58
 20
489.793
 11
1035.6
 21
489.818
  0
LINE
  8
0
 10
1035.6
 20
489.818
 11
1035.62
 21
489.845
  0
LINE
  8
0
 10
1035.62
 20
489.845
 11
1035.63
 21
489.874
  0
LINE
  8
0
 10
1035.63
 20
489.874
 11
1035.64
 21
489.904
  0
LINE
  8
0
 10
1035.64
 20
489.904
 11
1035.65
 21
489.936
  0
LINE
  8
0
 10
1035.65
 20
489.936
 11
1035.66
 21
489.968
  0
LINE
  8
0
 10
1035.66
 20
489.968
 11
1035.66
 21
490
  0
LINE
  8
0
 10
1035.66
 20
490
 11
1035.66
 21
490.032
  0
LINE
  8
0
 10
1035.66
 20
490.032
 11
1035.65
 21
490.064
  0
LINE
  8
0
 10
1035.65
 20
490.064
 11
1035.64
 21
490.096
  0
LINE
  8
0
 10
1035.64
 20
490.096
 11
1035.63
 21
490.126
  0
LINE
  8
0
 10
1035.63
 20
490.126
 11
1035.62
 21
490.155
  0
LINE
  8
0
 10
1035.62
 20
490.155
 11
1035.6
 21
490.182
  0
LINE
  8
0
 10
1035.6
 20
490.182
 11
1035.58
 21
490.207
  0
LINE
  8
0
 10
1035.58
 20
490.207
 11
1035.56
 21
490.23
  0
LINE
  8
0
 10
1035.56
 20
490.23
 11
1035.53
 21
490.251
  0
LINE
  8
0
 10
1035.53
 20
490.251
 11
1035.51
 21
490.268
  0
LINE
  8
0
 10
1035.51
 20
490.268
 11
1035.48
 21
490.283
  0
LINE
  8
0
 10
1035.48
 20
490.283
 11
1035.45
 21
490.295
  0
LINE
  8
0
 10
1035.45
 20
490.295
 11
1035.41
 21
490.303
  0
LINE
  8
0
 10
1035.41
 20
490.303
 11
1035.38
 21
490.308
  0
LINE
  8
0
 10
1035.38
 20
490.308
 11
1035.35
 21
490.31
  0
LINE
  8
0
 10
1035.35
 20
490.31
 11
1035.32
 21
490.308
  0
LINE
  8
0
 10
1035.32
 20
490.308
 11
1035.29
 21
490.303
  0
LINE
  8
0
 10
1035.29
 20
490.303
 11
1035.25
 21
490.295
  0
LINE
  8
0
 10
1035.25
 20
490.295
 11
1035.22
 21
490.283
  0
LINE
  8
0
 10
1035.22
 20
490.283
 11
1035.19
 21
490.268
  0
LINE
  8
0
 10
1035.19
 20
490.268
 11
1035.17
 21
490.251
  0
LINE
  8
0
 10
1035.17
 20
490.251
 11
1035.14
 21
490.23
  0
LINE
  8
0
 10
1035.14
 20
490.23
 11
1035.12
 21
490.207
  0
LINE
  8
0
 10
1035.12
 20
490.207
 11
1035.1
 21
490.182
  0
LINE
  8
0
 10
1035.1
 20
490.182
 11
1035.08
 21
490.155
  0
LINE
  8
0
 10
1035.08
 20
490.155
 11
1035.07
 21
490.126
  0
LINE
  8
0
 10
1035.07
 20
490.126
 11
1035.06
 21
490.096
  0
LINE
  8
0
 10
1035.06
 20
490.096
 11
1035.05
 21
490.064
  0
LINE
  8
0
 10
1035.05
 20
490.064
 11
1035.04
 21
490.032
  0
LINE
  8
0
 10
1035.04
 20
490.032
 11
1035.04
 21
490
  0
LINE
  8
0
 10
1035.04
 20
490
 11
1035.04
 21
489.968
  0
LINE
  8
0
 10
1035.04
 20
489.968
 11
1035.05
 21
489.936
  0
LINE
  8
0
 10
1035.05
 20
489.936
 11
1035.06
 21
489.904
  0
LINE
  8
0
 10
1035.06
 20
489.904
 11
1035.07
 21
489.874
  0
LINE
  8
0
 10
1035.07
 20
489.874
 11
1035.08
 21
489.845
  0
LINE
  8
0
 10
1035.08
 20
489.845
 11
1035.1
 21
489.818
  0
LINE
  8
0
 10
1035.1
 20
489.818
 11
1035.12
 21
489.793
  0
LINE
  8
0
 10
1035.12
 20
489.793
 11
1035.14
 21
489.77
  0
LINE
  8
0
 10
1035.14
 20
489.77
 11
1035.17
 21
489.749
  0
LINE
  8
0
 10
1035.17
 20
489.749
 11
1035.19
 21
489.732
  0
LINE
  8
0
 10
1035.19
 20
489.732
 11
1035.22
 21
489.717
  0
LINE
  8
0
 10
1035.22
 20
489.717
 11
1035.25
 21
489.705
  0
LINE
  8
0
 10
1035.25
 20
489.705
 11
1035.29
 21
489.697
  0
LINE
  8
0
 10
1035.29
 20
489.697
 11
1035.32
 21
489.692
  0
LINE
  8
0
 10
1035.32
 20
489.692
 11
1035.35
 21
489.69
  0
LINE
  8
0
 10
1035.35
 20
489.69
 11
1035.38
 21
489.692
  0
LINE
  8
0
 10
1654.92
 20
448.8
 11
1654.95
 21
448.806
  0
LINE
  8
0
 10
1654.95
 20
448.806
 11
1654.98
 21
448.814
  0
LINE
  8
0
 10
1654.98
 20
448.814
 11
1655.01
 21
448.827
  0
LINE
  8
0
 10
1655.01
 20
448.827
 11
1655.05
 21
448.842
  0
LINE
  8
0
 10
1655.05
 20
448.842
 11
1655.07
 21
448.861
  0
LINE
  8
0
 10
1655.07
 20
448.861
 11
1655.1
 21
448.882
  0
LINE
  8
0
 10
1655.1
 20
448.882
 11
1655.12
 21
448.906
  0
LINE
  8
0
 10
1655.12
 20
448.906
 11
1655.15
 21
448.933
  0
LINE
  8
0
 10
1655.15
 20
448.933
 11
1655.16
 21
448.961
  0
LINE
  8
0
 10
1655.16
 20
448.961
 11
1655.18
 21
448.992
  0
LINE
  8
0
 10
1655.18
 20
448.992
 11
1655.19
 21
449.023
  0
LINE
  8
0
 10
1655.19
 20
449.023
 11
1655.2
 21
449.056
  0
LINE
  8
0
 10
1655.2
 20
449.056
 11
1655.21
 21
449.09
  0
LINE
  8
0
 10
1655.21
 20
449.09
 11
1655.21
 21
449.124
  0
LINE
  8
0
 10
1655.21
 20
449.124
 11
1655.21
 21
449.158
  0
LINE
  8
0
 10
1655.21
 20
449.158
 11
1655.2
 21
449.192
  0
LINE
  8
0
 10
1655.2
 20
449.192
 11
1655.19
 21
449.225
  0
LINE
  8
0
 10
1655.19
 20
449.225
 11
1655.18
 21
449.256
  0
LINE
  8
0
 10
1655.18
 20
449.256
 11
1655.16
 21
449.287
  0
LINE
  8
0
 10
1655.16
 20
449.287
 11
1655.15
 21
449.315
  0
LINE
  8
0
 10
1655.15
 20
449.315
 11
1655.12
 21
449.342
  0
LINE
  8
0
 10
1655.12
 20
449.342
 11
1655.1
 21
449.366
  0
LINE
  8
0
 10
1655.1
 20
449.366
 11
1655.07
 21
449.387
  0
LINE
  8
0
 10
1655.07
 20
449.387
 11
1655.05
 21
449.406
  0
LINE
  8
0
 10
1655.05
 20
449.406
 11
1655.01
 21
449.421
  0
LINE
  8
0
 10
1655.01
 20
449.421
 11
1654.98
 21
449.434
  0
LINE
  8
0
 10
1654.98
 20
449.434
 11
1654.95
 21
449.442
  0
LINE
  8
0
 10
1654.95
 20
449.442
 11
1654.92
 21
449.448
  0
LINE
  8
0
 10
1654.92
 20
449.448
 11
1654.88
 21
449.45
  0
LINE
  8
0
 10
1654.88
 20
449.45
 11
1654.85
 21
449.448
  0
LINE
  8
0
 10
1654.85
 20
449.448
 11
1654.81
 21
449.442
  0
LINE
  8
0
 10
1654.81
 20
449.442
 11
1654.78
 21
449.434
  0
LINE
  8
0
 10
1654.78
 20
449.434
 11
1654.75
 21
449.421
  0
LINE
  8
0
 10
1654.75
 20
449.421
 11
1654.72
 21
449.406
  0
LINE
  8
0
 10
1654.72
 20
449.406
 11
1654.69
 21
449.387
  0
LINE
  8
0
 10
1654.69
 20
449.387
 11
1654.66
 21
449.366
  0
LINE
  8
0
 10
1654.66
 20
449.366
 11
1654.64
 21
449.342
  0
LINE
  8
0
 10
1654.64
 20
449.342
 11
1654.62
 21
449.315
  0
LINE
  8
0
 10
1654.62
 20
449.315
 11
1654.6
 21
449.287
  0
LINE
  8
0
 10
1654.6
 20
449.287
 11
1654.59
 21
449.256
  0
LINE
  8
0
 10
1654.59
 20
449.256
 11
1654.57
 21
449.225
  0
LINE
  8
0
 10
1654.57
 20
449.225
 11
1654.56
 21
449.192
  0
LINE
  8
0
 10
1654.56
 20
449.192
 11
1654.56
 21
449.158
  0
LINE
  8
0
 10
1654.56
 20
449.158
 11
1654.56
 21
449.124
  0
LINE
  8
0
 10
1654.56
 20
449.124
 11
1654.56
 21
449.09
  0
LINE
  8
0
 10
1654.56
 20
449.09
 11
1654.56
 21
449.056
  0
LINE
  8
0
 10
1654.56
 20
449.056
 11
1654.57
 21
449.023
  0
LINE
  8
0
 10
1654.57
 20
449.023
 11
1654.59
 21
448.992
  0
LINE
  8
0
 10
1654.59
 20
448.992
 11
1654.6
 21
448.961
  0
LINE
  8
0
 10
1654.6
 20
448.961
 11
1654.62
 21
448.933
  0
LINE
  8
0
 10
1654.62
 20
448.933
 11
1654.64
 21
448.906
  0
LINE
  8
0
 10
1654.64
 20
448.906
 11
1654.66
 21
448.882
  0
LINE
  8
0
 10
1654.66
 20
448.882
 11
1654.69
 21
448.861
  0
LINE
  8
0
 10
1654.69
 20
448.861
 11
1654.72
 21
448.842
  0
LINE
  8
0
 10
1654.72
 20
448.842
 11
1654.75
 21
448.827
  0
LINE
  8
0
 10
1654.75
 20
448.827
 11
1654.78
 21
448.814
  0
LINE
  8
0
 10
1654.78
 20
448.814
 11
1654.81
 21
448.806
  0
LINE
  8
0
 10
1654.81
 20
448.806
 11
1654.85
 21
448.8
  0
LINE
  8
0
 10
1654.85
 20
448.8
 11
1654.88
 21
448.799
  0
LINE
  8
0
 10
1654.88
 20
448.799
 11
1654.92
 21
448.8
  0
LINE
  8
0
 10
825.382
 20
369.692
 11
825.414
 21
369.697
  0
LINE
  8
0
 10
825.414
 20
369.697
 11
825.446
 21
369.705
  0
LINE
  8
0
 10
825.446
 20
369.705
 11
825.476
 21
369.717
  0
LINE
  8
0
 10
825.476
 20
369.717
 11
825.505
 21
369.732
  0
LINE
  8
0
 10
825.505
 20
369.732
 11
825.532
 21
369.749
  0
LINE
  8
0
 10
825.532
 20
369.749
 11
825.557
 21
369.77
  0
LINE
  8
0
 10
825.557
 20
369.77
 11
825.58
 21
369.793
  0
LINE
  8
0
 10
825.58
 20
369.793
 11
825.601
 21
369.818
  0
LINE
  8
0
 10
825.601
 20
369.818
 11
825.618
 21
369.845
  0
LINE
  8
0
 10
825.618
 20
369.845
 11
825.633
 21
369.874
  0
LINE
  8
0
 10
825.633
 20
369.874
 11
825.645
 21
369.904
  0
LINE
  8
0
 10
825.645
 20
369.904
 11
825.653
 21
369.936
  0
LINE
  8
0
 10
825.653
 20
369.936
 11
825.658
 21
369.968
  0
LINE
  8
0
 10
825.658
 20
369.968
 11
825.66
 21
370
  0
LINE
  8
0
 10
825.66
 20
370
 11
825.658
 21
370.032
  0
LINE
  8
0
 10
825.658
 20
370.032
 11
825.653
 21
370.064
  0
LINE
  8
0
 10
825.653
 20
370.064
 11
825.645
 21
370.096
  0
LINE
  8
0
 10
825.645
 20
370.096
 11
825.633
 21
370.126
  0
LINE
  8
0
 10
825.633
 20
370.126
 11
825.618
 21
370.155
  0
LINE
  8
0
 10
825.618
 20
370.155
 11
825.601
 21
370.182
  0
LINE
  8
0
 10
825.601
 20
370.182
 11
825.58
 21
370.207
  0
LINE
  8
0
 10
825.58
 20
370.207
 11
825.557
 21
370.23
  0
LINE
  8
0
 10
825.557
 20
370.23
 11
825.532
 21
370.251
  0
LINE
  8
0
 10
825.532
 20
370.251
 11
825.505
 21
370.268
  0
LINE
  8
0
 10
825.505
 20
370.268
 11
825.476
 21
370.283
  0
LINE
  8
0
 10
825.476
 20
370.283
 11
825.446
 21
370.295
  0
LINE
  8
0
 10
825.446
 20
370.295
 11
825.414
 21
370.303
  0
LINE
  8
0
 10
825.414
 20
370.303
 11
825.382
 21
370.308
  0
LINE
  8
0
 10
825.382
 20
370.308
 11
825.35
 21
370.31
  0
LINE
  8
0
 10
825.35
 20
370.31
 11
825.318
 21
370.308
  0
LINE
  8
0
 10
825.318
 20
370.308
 11
825.286
 21
370.303
  0
LINE
  8
0
 10
825.286
 20
370.303
 11
825.254
 21
370.295
  0
LINE
  8
0
 10
825.254
 20
370.295
 11
825.224
 21
370.283
  0
LINE
  8
0
 10
825.224
 20
370.283
 11
825.195
 21
370.268
  0
LINE
  8
0
 10
825.195
 20
370.268
 11
825.168
 21
370.251
  0
LINE
  8
0
 10
825.168
 20
370.251
 11
825.143
 21
370.23
  0
LINE
  8
0
 10
825.143
 20
370.23
 11
825.12
 21
370.207
  0
LINE
  8
0
 10
825.12
 20
370.207
 11
825.099
 21
370.182
  0
LINE
  8
0
 10
825.099
 20
370.182
 11
825.082
 21
370.155
  0
LINE
  8
0
 10
825.082
 20
370.155
 11
825.067
 21
370.126
  0
LINE
  8
0
 10
825.067
 20
370.126
 11
825.055
 21
370.096
  0
LINE
  8
0
 10
825.055
 20
370.096
 11
825.047
 21
370.064
  0
LINE
  8
0
 10
825.047
 20
370.064
 11
825.042
 21
370.032
  0
LINE
  8
0
 10
825.042
 20
370.032
 11
825.04
 21
370
  0
LINE
  8
0
 10
825.04
 20
370
 11
825.042
 21
369.968
  0
LINE
  8
0
 10
825.042
 20
369.968
 11
825.047
 21
369.936
  0
LINE
  8
0
 10
825.047
 20
369.936
 11
825.055
 21
369.904
  0
LINE
  8
0
 10
825.055
 20
369.904
 11
825.067
 21
369.874
  0
LINE
  8
0
 10
825.067
 20
369.874
 11
825.082
 21
369.845
  0
LINE
  8
0
 10
825.082
 20
369.845
 11
825.099
 21
369.818
  0
LINE
  8
0
 10
825.099
 20
369.818
 11
825.12
 21
369.793
  0
LINE
  8
0
 10
825.12
 20
369.793
 11
825.143
 21
369.77
  0
LINE
  8
0
 10
825.143
 20
369.77
 11
825.168
 21
369.749
  0
LINE
  8
0
 10
825.168
 20
369.749
 11
825.195
 21
369.732
  0
LINE
  8
0
 10
825.195
 20
369.732
 11
825.224
 21
369.717
  0
LINE
  8
0
 10
825.224
 20
369.717
 11
825.254
 21
369.705
  0
LINE
  8
0
 10
825.254
 20
369.705
 11
825.286
 21
369.697
  0
LINE
  8
0
 10
825.286
 20
369.697
 11
825.318
 21
369.692
  0
LINE
  8
0
 10
825.318
 20
369.692
 11
825.35
 21
369.69
  0
LINE
  8
0
 10
825.35
 20
369.69
 11
825.382
 21
369.692
  0
LINE
  8
0
 10
1035.38
 20
369.692
 11
1035.41
 21
369.697
  0
LINE
  8
0
 10
1035.41
 20
369.697
 11
1035.45
 21
369.705
  0
LINE
  8
0
 10
1035.45
 20
369.705
 11
1035.48
 21
369.717
  0
LINE
  8
0
 10
1035.48
 20
369.717
 11
1035.51
 21
369.732
  0
LINE
  8
0
 10
1035.51
 20
369.732
 11
1035.53
 21
369.749
  0
LINE
  8
0
 10
1035.53
 20
369.749
 11
1035.56
 21
369.77
  0
LINE
  8
0
 10
1035.56
 20
369.77
 11
1035.58
 21
369.793
  0
LINE
  8
0
 10
1035.58
 20
369.793
 11
1035.6
 21
369.818
  0
LINE
  8
0
 10
1035.6
 20
369.818
 11
1035.62
 21
369.845
  0
LINE
  8
0
 10
1035.62
 20
369.845
 11
1035.63
 21
369.874
  0
LINE
  8
0
 10
1035.63
 20
369.874
 11
1035.64
 21
369.904
  0
LINE
  8
0
 10
1035.64
 20
369.904
 11
1035.65
 21
369.936
  0
LINE
  8
0
 10
1035.65
 20
369.936
 11
1035.66
 21
369.968
  0
LINE
  8
0
 10
1035.66
 20
369.968
 11
1035.66
 21
370
  0
LINE
  8
0
 10
1035.66
 20
370
 11
1035.66
 21
370.032
  0
LINE
  8
0
 10
1035.66
 20
370.032
 11
1035.65
 21
370.064
  0
LINE
  8
0
 10
1035.65
 20
370.064
 11
1035.64
 21
370.096
  0
LINE
  8
0
 10
1035.64
 20
370.096
 11
1035.63
 21
370.126
  0
LINE
  8
0
 10
1035.63
 20
370.126
 11
1035.62
 21
370.155
  0
LINE
  8
0
 10
1035.62
 20
370.155
 11
1035.6
 21
370.182
  0
LINE
  8
0
 10
1035.6
 20
370.182
 11
1035.58
 21
370.207
  0
LINE
  8
0
 10
1035.58
 20
370.207
 11
1035.56
 21
370.23
  0
LINE
  8
0
 10
1035.56
 20
370.23
 11
1035.53
 21
370.251
  0
LINE
  8
0
 10
1035.53
 20
370.251
 11
1035.51
 21
370.268
  0
LINE
  8
0
 10
1035.51
 20
370.268
 11
1035.48
 21
370.283
  0
LINE
  8
0
 10
1035.48
 20
370.283
 11
1035.45
 21
370.295
  0
LINE
  8
0
 10
1035.45
 20
370.295
 11
1035.41
 21
370.303
  0
LINE
  8
0
 10
1035.41
 20
370.303
 11
1035.38
 21
370.308
  0
LINE
  8
0
 10
1035.38
 20
370.308
 11
1035.35
 21
370.31
  0
LINE
  8
0
 10
1035.35
 20
370.31
 11
1035.32
 21
370.308
  0
LINE
  8
0
 10
1035.32
 20
370.308
 11
1035.29
 21
370.303
  0
LINE
  8
0
 10
1035.29
 20
370.303
 11
1035.25
 21
370.295
  0
LINE
  8
0
 10
1035.25
 20
370.295
 11
1035.22
 21
370.283
  0
LINE
  8
0
 10
1035.22
 20
370.283
 11
1035.19
 21
370.268
  0
LINE
  8
0
 10
1035.19
 20
370.268
 11
1035.17
 21
370.251
  0
LINE
  8
0
 10
1035.17
 20
370.251
 11
1035.14
 21
370.23
  0
LINE
  8
0
 10
1035.14
 20
370.23
 11
1035.12
 21
370.207
  0
LINE
  8
0
 10
1035.12
 20
370.207
 11
1035.1
 21
370.182
  0
LINE
  8
0
 10
1035.1
 20
370.182
 11
1035.08
 21
370.155
  0
LINE
  8
0
 10
1035.08
 20
370.155
 11
1035.07
 21
370.126
  0
LINE
  8
0
 10
1035.07
 20
370.126
 11
1035.06
 21
370.096
  0
LINE
  8
0
 10
1035.06
 20
370.096
 11
1035.05
 21
370.064
  0
LINE
  8
0
 10
1035.05
 20
370.064
 11
1035.04
 21
370.032
  0
LINE
  8
0
 10
1035.04
 20
370.032
 11
1035.04
 21
370
  0
LINE
  8
0
 10
1035.04
 20
370
 11
1035.04
 21
369.968
  0
LINE
  8
0
 10
1035.04
 20
369.968
 11
1035.05
 21
369.936
  0
LINE
  8
0
 10
1035.05
 20
369.936
 11
1035.06
 21
369.904
  0
LINE
  8
0
 10
1035.06
 20
369.904
 11
1035.07
 21
369.874
  0
LINE
  8
0
 10
1035.07
 20
369.874
 11
1035.08
 21
369.845
  0
LINE
  8
0
 10
1035.08
 20
369.845
 11
1035.1
 21
369.818
  0
LINE
  8
0
 10
1035.1
 20
369.818
 11
1035.12
 21
369.793
  0
LINE
  8
0
 10
1035.12
 20
369.793
 11
1035.14
 21
369.77
  0
LINE
  8
0
 10
1035.14
 20
369.77
 11
1035.17
 21
369.749
  0
LINE
  8
0
 10
1035.17
 20
369.749
 11
1035.19
 21
369.732
  0
LINE
  8
0
 10
1035.19
 20
369.732
 11
1035.22
 21
369.717
  0
LINE
  8
0
 10
1035.22
 20
369.717
 11
1035.25
 21
369.705
  0
LINE
  8
0
 10
1035.25
 20
369.705
 11
1035.29
 21
369.697
  0
LINE
  8
0
 10
1035.29
 20
369.697
 11
1035.32
 21
369.692
  0
LINE
  8
0
 10
1035.32
 20
369.692
 11
1035.35
 21
369.69
  0
LINE
  8
0
 10
1035.35
 20
369.69
 11
1035.38
 21
369.692
  0
LINE
  8
0
 10
1654.92
 20
338.8
 11
1654.95
 21
338.806
  0
LINE
  8
0
 10
1654.95
 20
338.806
 11
1654.98
 21
338.814
  0
LINE
  8
0
 10
1654.98
 20
338.814
 11
1655.01
 21
338.827
  0
LINE
  8
0
 10
1655.01
 20
338.827
 11
1655.05
 21
338.842
  0
LINE
  8
0
 10
1655.05
 20
338.842
 11
1655.07
 21
338.861
  0
LINE
  8
0
 10
1655.07
 20
338.861
 11
1655.1
 21
338.882
  0
LINE
  8
0
 10
1655.1
 20
338.882
 11
1655.12
 21
338.906
  0
LINE
  8
0
 10
1655.12
 20
338.906
 11
1655.15
 21
338.933
  0
LINE
  8
0
 10
1655.15
 20
338.933
 11
1655.16
 21
338.961
  0
LINE
  8
0
 10
1655.16
 20
338.961
 11
1655.18
 21
338.992
  0
LINE
  8
0
 10
1655.18
 20
338.992
 11
1655.19
 21
339.023
  0
LINE
  8
0
 10
1655.19
 20
339.023
 11
1655.2
 21
339.056
  0
LINE
  8
0
 10
1655.2
 20
339.056
 11
1655.21
 21
339.09
  0
LINE
  8
0
 10
1655.21
 20
339.09
 11
1655.21
 21
339.124
  0
LINE
  8
0
 10
1655.21
 20
339.124
 11
1655.21
 21
339.158
  0
LINE
  8
0
 10
1655.21
 20
339.158
 11
1655.2
 21
339.192
  0
LINE
  8
0
 10
1655.2
 20
339.192
 11
1655.19
 21
339.225
  0
LINE
  8
0
 10
1655.19
 20
339.225
 11
1655.18
 21
339.256
  0
LINE
  8
0
 10
1655.18
 20
339.256
 11
1655.16
 21
339.287
  0
LINE
  8
0
 10
1655.16
 20
339.287
 11
1655.15
 21
339.315
  0
LINE
  8
0
 10
1655.15
 20
339.315
 11
1655.12
 21
339.342
  0
LINE
  8
0
 10
1655.12
 20
339.342
 11
1655.1
 21
339.366
  0
LINE
  8
0
 10
1655.1
 20
339.366
 11
1655.07
 21
339.387
  0
LINE
  8
0
 10
1655.07
 20
339.387
 11
1655.05
 21
339.406
  0
LINE
  8
0
 10
1655.05
 20
339.406
 11
1655.01
 21
339.421
  0
LINE
  8
0
 10
1655.01
 20
339.421
 11
1654.98
 21
339.434
  0
LINE
  8
0
 10
1654.98
 20
339.434
 11
1654.95
 21
339.442
  0
LINE
  8
0
 10
1654.95
 20
339.442
 11
1654.92
 21
339.448
  0
LINE
  8
0
 10
1654.92
 20
339.448
 11
1654.88
 21
339.45
  0
LINE
  8
0
 10
1654.88
 20
339.45
 11
1654.85
 21
339.448
  0
LINE
  8
0
 10
1654.85
 20
339.448
 11
1654.81
 21
339.442
  0
LINE
  8
0
 10
1654.81
 20
339.442
 11
1654.78
 21
339.434
  0
LINE
  8
0
 10
1654.78
 20
339.434
 11
1654.75
 21
339.421
  0
LINE
  8
0
 10
1654.75
 20
339.421
 11
1654.72
 21
339.406
  0
LINE
  8
0
 10
1654.72
 20
339.406
 11
1654.69
 21
339.387
  0
LINE
  8
0
 10
1654.69
 20
339.387
 11
1654.66
 21
339.366
  0
LINE
  8
0
 10
1654.66
 20
339.366
 11
1654.64
 21
339.342
  0
LINE
  8
0
 10
1654.64
 20
339.342
 11
1654.62
 21
339.315
  0
LINE
  8
0
 10
1654.62
 20
339.315
 11
1654.6
 21
339.287
  0
LINE
  8
0
 10
1654.6
 20
339.287
 11
1654.59
 21
339.256
  0
LINE
  8
0
 10
1654.59
 20
339.256
 11
1654.57
 21
339.225
  0
LINE
  8
0
 10
1654.57
 20
339.225
 11
1654.56
 21
339.192
  0
LINE
  8
0
 10
1654.56
 20
339.192
 11
1654.56
 21
339.158
  0
LINE
  8
0
 10
1654.56
 20
339.158
 11
1654.56
 21
339.124
  0
LINE
  8
0
 10
1654.56
 20
339.124
 11
1654.56
 21
339.09
  0
LINE
  8
0
 10
1654.56
 20
339.09
 11
1654.56
 21
339.056
  0
LINE
  8
0
 10
1654.56
 20
339.056
 11
1654.57
 21
339.023
  0
LINE
  8
0
 10
1654.57
 20
339.023
 11
1654.59
 21
338.992
  0
LINE
  8
0
 10
1654.59
 20
338.992
 11
1654.6
 21
338.961
  0
LINE
  8
0
 10
1654.6
 20
338.961
 11
1654.62
 21
338.933
  0
LINE
  8
0
 10
1654.62
 20
338.933
 11
1654.64
 21
338.906
  0
LINE
  8
0
 10
1654.64
 20
338.906
 11
1654.66
 21
338.882
  0
LINE
  8
0
 10
1654.66
 20
338.882
 11
1654.69
 21
338.861
  0
LINE
  8
0
 10
1654.69
 20
338.861
 11
1654.72
 21
338.842
  0
LINE
  8
0
 10
1654.72
 20
338.842
 11
1654.75
 21
338.827
  0
LINE
  8
0
 10
1654.75
 20
338.827
 11
1654.78
 21
338.814
  0
LINE
  8
0
 10
1654.78
 20
338.814
 11
1654.81
 21
338.806
  0
LINE
  8
0
 10
1654.81
 20
338.806
 11
1654.85
 21
338.8
  0
LINE
  8
0
 10
1654.85
 20
338.8
 11
1654.88
 21
338.799
  0
LINE
  8
0
 10
1654.88
 20
338.799
 11
1654.92
 21
338.8
  0
LINE
  8
0
 10
825.382
 20
249.692
 11
825.414
 21
249.697
  0
LINE
  8
0
 10
825.414
 20
249.697
 11
825.446
 21
249.705
  0
LINE
  8
0
 10
825.446
 20
249.705
 11
825.476
 21
249.717
  0
LINE
  8
0
 10
825.476
 20
249.717
 11
825.505
 21
249.732
  0
LINE
  8
0
 10
825.505
 20
249.732
 11
825.532
 21
249.749
  0
LINE
  8
0
 10
825.532
 20
249.749
 11
825.557
 21
249.77
  0
LINE
  8
0
 10
825.557
 20
249.77
 11
825.58
 21
249.793
  0
LINE
  8
0
 10
825.58
 20
249.793
 11
825.601
 21
249.818
  0
LINE
  8
0
 10
825.601
 20
249.818
 11
825.618
 21
249.845
  0
LINE
  8
0
 10
825.618
 20
249.845
 11
825.633
 21
249.874
  0
LINE
  8
0
 10
825.633
 20
249.874
 11
825.645
 21
249.904
  0
LINE
  8
0
 10
825.645
 20
249.904
 11
825.653
 21
249.936
  0
LINE
  8
0
 10
825.653
 20
249.936
 11
825.658
 21
249.968
  0
LINE
  8
0
 10
825.658
 20
249.968
 11
825.66
 21
250
  0
LINE
  8
0
 10
825.66
 20
250
 11
825.658
 21
250.032
  0
LINE
  8
0
 10
825.658
 20
250.032
 11
825.653
 21
250.064
  0
LINE
  8
0
 10
825.653
 20
250.064
 11
825.645
 21
250.096
  0
LINE
  8
0
 10
825.645
 20
250.096
 11
825.633
 21
250.126
  0
LINE
  8
0
 10
825.633
 20
250.126
 11
825.618
 21
250.155
  0
LINE
  8
0
 10
825.618
 20
250.155
 11
825.601
 21
250.182
  0
LINE
  8
0
 10
825.601
 20
250.182
 11
825.58
 21
250.207
  0
LINE
  8
0
 10
825.58
 20
250.207
 11
825.557
 21
250.23
  0
LINE
  8
0
 10
825.557
 20
250.23
 11
825.532
 21
250.251
  0
LINE
  8
0
 10
825.532
 20
250.251
 11
825.505
 21
250.268
  0
LINE
  8
0
 10
825.505
 20
250.268
 11
825.476
 21
250.283
  0
LINE
  8
0
 10
825.476
 20
250.283
 11
825.446
 21
250.295
  0
LINE
  8
0
 10
825.446
 20
250.295
 11
825.414
 21
250.303
  0
LINE
  8
0
 10
825.414
 20
250.303
 11
825.382
 21
250.308
  0
LINE
  8
0
 10
825.382
 20
250.308
 11
825.35
 21
250.31
  0
LINE
  8
0
 10
825.35
 20
250.31
 11
825.318
 21
250.308
  0
LINE
  8
0
 10
825.318
 20
250.308
 11
825.286
 21
250.303
  0
LINE
  8
0
 10
825.286
 20
250.303
 11
825.254
 21
250.295
  0
LINE
  8
0
 10
825.254
 20
250.295
 11
825.224
 21
250.283
  0
LINE
  8
0
 10
825.224
 20
250.283
 11
825.195
 21
250.268
  0
LINE
  8
0
 10
825.195
 20
250.268
 11
825.168
 21
250.251
  0
LINE
  8
0
 10
825.168
 20
250.251
 11
825.143
 21
250.23
  0
LINE
  8
0
 10
825.143
 20
250.23
 11
825.12
 21
250.207
  0
LINE
  8
0
 10
825.12
 20
250.207
 11
825.099
 21
250.182
  0
LINE
  8
0
 10
825.099
 20
250.182
 11
825.082
 21
250.155
  0
LINE
  8
0
 10
825.082
 20
250.155
 11
825.067
 21
250.126
  0
LINE
  8
0
 10
825.067
 20
250.126
 11
825.055
 21
250.096
  0
LINE
  8
0
 10
825.055
 20
250.096
 11
825.047
 21
250.064
  0
LINE
  8
0
 10
825.047
 20
250.064
 11
825.042
 21
250.032
  0
LINE
  8
0
 10
825.042
 20
250.032
 11
825.04
 21
250
  0
LINE
  8
0
 10
825.04
 20
250
 11
825.042
 21
249.968
  0
LINE
  8
0
 10
825.042
 20
249.968
 11
825.047
 21
249.936
  0
LINE
  8
0
 10
825.047
 20
249.936
 11
825.055
 21
249.904
  0
LINE
  8
0
 10
825.055
 20
249.904
 11
825.067
 21
249.874
  0
LINE
  8
0
 10
825.067
 20
249.874
 11
825.082
 21
249.845
  0
LINE
  8
0
 10
825.082
 20
249.845
 11
825.099
 21
249.818
  0
LINE
  8
0
 10
825.099
 20
249.818
 11
825.12
 21
249.793
  0
LINE
  8
0
 10
825.12
 20
249.793
 11
825.143
 21
249.77
  0
LINE
  8
0
 10
825.143
 20
249.77
 11
825.168
 21
249.749
  0
LINE
  8
0
 10
825.168
 20
249.749
 11
825.195
 21
249.732
  0
LINE
  8
0
 10
825.195
 20
249.732
 11
825.224
 21
249.717
  0
LINE
  8
0
 10
825.224
 20
249.717
 11
825.254
 21
249.705
  0
LINE
  8
0
 10
825.254
 20
249.705
 11
825.286
 21
249.697
  0
LINE
  8
0
 10
825.286
 20
249.697
 11
825.318
 21
249.692
  0
LINE
  8
0
 10
825.318
 20
249.692
 11
825.35
 21
249.69
  0
LINE
  8
0
 10
825.35
 20
249.69
 11
825.382
 21
249.692
  0
LINE
  8
0
 10
1035.38
 20
249.692
 11
1035.41
 21
249.697
  0
LINE
  8
0
 10
1035.41
 20
249.697
 11
1035.45
 21
249.705
  0
LINE
  8
0
 10
1035.45
 20
249.705
 11
1035.48
 21
249.717
  0
LINE
  8
0
 10
1035.48
 20
249.717
 11
1035.51
 21
249.732
  0
LINE
  8
0
 10
1035.51
 20
249.732
 11
1035.53
 21
249.749
  0
LINE
  8
0
 10
1035.53
 20
249.749
 11
1035.56
 21
249.77
  0
LINE
  8
0
 10
1035.56
 20
249.77
 11
1035.58
 21
249.793
  0
LINE
  8
0
 10
1035.58
 20
249.793
 11
1035.6
 21
249.818
  0
LINE
  8
0
 10
1035.6
 20
249.818
 11
1035.62
 21
249.845
  0
LINE
  8
0
 10
1035.62
 20
249.845
 11
1035.63
 21
249.874
  0
LINE
  8
0
 10
1035.63
 20
249.874
 11
1035.64
 21
249.904
  0
LINE
  8
0
 10
1035.64
 20
249.904
 11
1035.65
 21
249.936
  0
LINE
  8
0
 10
1035.65
 20
249.936
 11
1035.66
 21
249.968
  0
LINE
  8
0
 10
1035.66
 20
249.968
 11
1035.66
 21
250
  0
LINE
  8
0
 10
1035.66
 20
250
 11
1035.66
 21
250.032
  0
LINE
  8
0
 10
1035.66
 20
250.032
 11
1035.65
 21
250.064
  0
LINE
  8
0
 10
1035.65
 20
250.064
 11
1035.64
 21
250.096
  0
LINE
  8
0
 10
1035.64
 20
250.096
 11
1035.63
 21
250.126
  0
LINE
  8
0
 10
1035.63
 20
250.126
 11
1035.62
 21
250.155
  0
LINE
  8
0
 10
1035.62
 20
250.155
 11
1035.6
 21
250.182
  0
LINE
  8
0
 10
1035.6
 20
250.182
 11
1035.58
 21
250.207
  0
LINE
  8
0
 10
1035.58
 20
250.207
 11
1035.56
 21
250.23
  0
LINE
  8
0
 10
1035.56
 20
250.23
 11
1035.53
 21
250.251
  0
LINE
  8
0
 10
1035.53
 20
250.251
 11
1035.51
 21
250.268
  0
LINE
  8
0
 10
1035.51
 20
250.268
 11
1035.48
 21
250.283
  0
LINE
  8
0
 10
1035.48
 20
250.283
 11
1035.45
 21
250.295
  0
LINE
  8
0
 10
1035.45
 20
250.295
 11
1035.41
 21
250.303
  0
LINE
  8
0
 10
1035.41
 20
250.303
 11
1035.38
 21
250.308
  0
LINE
  8
0
 10
1035.38
 20
250.308
 11
1035.35
 21
250.31
  0
LINE
  8
0
 10
1035.35
 20
250.31
 11
1035.32
 21
250.308
  0
LINE
  8
0
 10
1035.32
 20
250.308
 11
1035.29
 21
250.303
  0
LINE
  8
0
 10
1035.29
 20
250.303
 11
1035.25
 21
250.295
  0
LINE
  8
0
 10
1035.25
 20
250.295
 11
1035.22
 21
250.283
  0
LINE
  8
0
 10
1035.22
 20
250.283
 11
1035.19
 21
250.268
  0
LINE
  8
0
 10
1035.19
 20
250.268
 11
1035.17
 21
250.251
  0
LINE
  8
0
 10
1035.17
 20
250.251
 11
1035.14
 21
250.23
  0
LINE
  8
0
 10
1035.14
 20
250.23
 11
1035.12
 21
250.207
  0
LINE
  8
0
 10
1035.12
 20
250.207
 11
1035.1
 21
250.182
  0
LINE
  8
0
 10
1035.1
 20
250.182
 11
1035.08
 21
250.155
  0
LINE
  8
0
 10
1035.08
 20
250.155
 11
1035.07
 21
250.126
  0
LINE
  8
0
 10
1035.07
 20
250.126
 11
1035.06
 21
250.096
  0
LINE
  8
0
 10
1035.06
 20
250.096
 11
1035.05
 21
250.064
  0
LINE
  8
0
 10
1035.05
 20
250.064
 11
1035.04
 21
250.032
  0
LINE
  8
0
 10
1035.04
 20
250.032
 11
1035.04
 21
250
  0
LINE
  8
0
 10
1035.04
 20
250
 11
1035.04
 21
249.968
  0
LINE
  8
0
 10
1035.04
 20
249.968
 11
1035.05
 21
249.936
  0
LINE
  8
0
 10
1035.05
 20
249.936
 11
1035.06
 21
249.904
  0
LINE
  8
0
 10
1035.06
 20
249.904
 11
1035.07
 21
249.874
  0
LINE
  8
0
 10
1035.07
 20
249.874
 11
1035.08
 21
249.845
  0
LINE
  8
0
 10
1035.08
 20
249.845
 11
1035.1
 21
249.818
  0
LINE
  8
0
 10
1035.1
 20
249.818
 11
1035.12
 21
249.793
  0
LINE
  8
0
 10
1035.12
 20
249.793
 11
1035.14
 21
249.77
  0
LINE
  8
0
 10
1035.14
 20
249.77
 11
1035.17
 21
249.749
  0
LINE
  8
0
 10
1035.17
 20
249.749
 11
1035.19
 21
249.732
  0
LINE
  8
0
 10
1035.19
 20
249.732
 11
1035.22
 21
249.717
  0
LINE
  8
0
 10
1035.22
 20
249.717
 11
1035.25
 21
249.705
  0
LINE
  8
0
 10
1035.25
 20
249.705
 11
1035.29
 21
249.697
  0
LINE
  8
0
 10
1035.29
 20
249.697
 11
1035.32
 21
249.692
  0
LINE
  8
0
 10
1035.32
 20
249.692
 11
1035.35
 21
249.69
  0
LINE
  8
0
 10
1035.35
 20
249.69
 11
1035.38
 21
249.692
  0
LINE
  8
0
 10
1654.92
 20
228.8
 11
1654.95
 21
228.806
  0
LINE
  8
0
 10
1654.95
 20
228.806
 11
1654.98
 21
228.814
  0
LINE
  8
0
 10
1654.98
 20
228.814
 11
1655.01
 21
228.827
  0
LINE
  8
0
 10
1655.01
 20
228.827
 11
1655.05
 21
228.842
  0
LINE
  8
0
 10
1655.05
 20
228.842
 11
1655.07
 21
228.861
  0
LINE
  8
0
 10
1655.07
 20
228.861
 11
1655.1
 21
228.882
  0
LINE
  8
0
 10
1655.1
 20
228.882
 11
1655.12
 21
228.906
  0
LINE
  8
0
 10
1655.12
 20
228.906
 11
1655.15
 21
228.933
  0
LINE
  8
0
 10
1655.15
 20
228.933
 11
1655.16
 21
228.961
  0
LINE
  8
0
 10
1655.16
 20
228.961
 11
1655.18
 21
228.992
  0
LINE
  8
0
 10
1655.18
 20
228.992
 11
1655.19
 21
229.023
  0
LINE
  8
0
 10
1655.19
 20
229.023
 11
1655.2
 21
229.056
  0
LINE
  8
0
 10
1655.2
 20
229.056
 11
1655.21
 21
229.09
  0
LINE
  8
0
 10
1655.21
 20
229.09
 11
1655.21
 21
229.124
  0
LINE
  8
0
 10
1655.21
 20
229.124
 11
1655.21
 21
229.158
  0
LINE
  8
0
 10
1655.21
 20
229.158
 11
1655.2
 21
229.192
  0
LINE
  8
0
 10
1655.2
 20
229.192
 11
1655.19
 21
229.225
  0
LINE
  8
0
 10
1655.19
 20
229.225
 11
1655.18
 21
229.256
  0
LINE
  8
0
 10
1655.18
 20
229.256
 11
1655.16
 21
229.287
  0
LINE
  8
0
 10
1655.16
 20
229.287
 11
1655.15
 21
229.315
  0
LINE
  8
0
 10
1655.15
 20
229.315
 11
1655.12
 21
229.342
  0
LINE
  8
0
 10
1655.12
 20
229.342
 11
1655.1
 21
229.366
  0
LINE
  8
0
 10
1655.1
 20
229.366
 11
1655.07
 21
229.387
  0
LINE
  8
0
 10
1655.07
 20
229.387
 11
1655.05
 21
229.406
  0
LINE
  8
0
 10
1655.05
 20
229.406
 11
1655.01
 21
229.421
  0
LINE
  8
0
 10
1655.01
 20
229.421
 11
1654.98
 21
229.434
  0
LINE
  8
0
 10
1654.98
 20
229.434
 11
1654.95
 21
229.442
  0
LINE
  8
0
 10
1654.95
 20
229.442
 11
1654.92
 21
229.448
  0
LINE
  8
0
 10
1654.92
 20
229.448
 11
1654.88
 21
229.45
  0
LINE
  8
0
 10
1654.88
 20
229.45
 11
1654.85
 21
229.448
  0
LINE
  8
0
 10
1654.85
 20
229.448
 11
1654.81
 21
229.442
  0
LINE
  8
0
 10
1654.81
 20
229.442
 11
1654.78
 21
229.434
  0
LINE
  8
0
 10
1654.78
 20
229.434
 11
1654.75
 21
229.421
  0
LINE
  8
0
 10
1654.75
 20
229.421
 11
1654.72
 21
229.406
  0
LINE
  8
0
 10
1654.72
 20
229.406
 11
1654.69
 21
229.387
  0
LINE
  8
0
 10
1654.69
 20
229.387
 11
1654.66
 21
229.366
  0
LINE
  8
0
 10
1654.66
 20
229.366
 11
1654.64
 21
229.342
  0
LINE
  8
0
 10
1654.64
 20
229.342
 11
1654.62
 21
229.315
  0
LINE
  8
0
 10
1654.62
 20
229.315
 11
1654.6
 21
229.287
  0
LINE
  8
0
 10
1654.6
 20
229.287
 11
1654.59
 21
229.256
  0
LINE
  8
0
 10
1654.59
 20
229.256
 11
1654.57
 21
229.225
  0
LINE
  8
0
 10
1654.57
 20
229.225
 11
1654.56
 21
229.192
  0
LINE
  8
0
 10
1654.56
 20
229.192
 11
1654.56
 21
229.158
  0
LINE
  8
0
 10
1654.56
 20
229.158
 11
1654.56
 21
229.124
  0
LINE
  8
0
 10
1654.56
 20
229.124
 11
1654.56
 21
229.09
  0
LINE
  8
0
 10
1654.56
 20
229.09
 11
1654.56
 21
229.056
  0
LINE
  8
0
 10
1654.56
 20
229.056
 11
1654.57
 21
229.023
  0
LINE
  8
0
 10
1654.57
 20
229.023
 11
1654.59
 21
228.992
  0
LINE
  8
0
 10
1654.59
 20
228.992
 11
1654.6
 21
228.961
  0
LINE
  8
0
 10
1654.6
 20
228.961
 11
1654.62
 21
228.933
  0
LINE
  8
0
 10
1654.62
 20
228.933
 11
1654.64
 21
228.906
  0
LINE
  8
0
 10
1654.64
 20
228.906
 11
1654.66
 21
228.882
  0
LINE
  8
0
 10
1654.66
 20
228.882
 11
1654.69
 21
228.861
  0
LINE
  8
0
 10
1654.69
 20
228.861
 11
1654.72
 21
228.842
  0
LINE
  8
0
 10
1654.72
 20
228.842
 11
1654.75
 21
228.827
  0
LINE
  8
0
 10
1654.75
 20
228.827
 11
1654.78
 21
228.814
  0
LINE
  8
0
 10
1654.78
 20
228.814
 11
1654.81
 21
228.806
  0
LINE
  8
0
 10
1654.81
 20
228.806
 11
1654.85
 21
228.8
  0
LINE
  8
0
 10
1654.85
 20
228.8
 11
1654.88
 21
228.799
  0
LINE
  8
0
 10
1654.88
 20
228.799
 11
1654.92
 21
228.8
  0
LINE
  8
0
 10
460
 20
10
 11
500
 21
10
  0
LINE
  8
0
 10
500
 20
10
 11
500
 21
6.89999
  0
LINE
  8
0
 10
500
 20
6.89999
 11
540
 21
6.89999
  0
LINE
  8
0
 10
540
 20
6.89999
 11
540
 21
10
  0
LINE
  8
0
 10
540
 20
10
 11
580
 21
10
  0
LINE
  8
0
 10
580
 20
10
 11
580
 21
6.89999
  0
LINE
  8
0
 10
580
 20
6.89999
 11
620
 21
6.89999
  0
LINE
  8
0
 10
620
 20
6.89999
 11
620
 21
10
  0
LINE
  8
0
 10
620
 20
10
 11
660
 21
10
  0
LINE
  8
0
 10
660
 20
10
 11
660
 21
6.89999
  0
LINE
  8
0
 10
660
 20
6.89999
 11
700
 21
6.89999
  0
LINE
  8
0
 10
700
 20
6.89999
 11
700
 21
10
  0
LINE
  8
0
 10
700
 20
10
 11
740
 21
10
  0
LINE
  8
0
 10
740
 20
10
 11
740
 21
6.89999
  0
LINE
  8
0
 10
740
 20
6.89999
 11
780
 21
6.89999
  0
LINE
  8
0
 10
780
 20
6.89999
 11
780
 21
10
  0
LINE
  8
0
 10
780
 20
10
 11
823.1
 21
10
  0
LINE
  8
0
 10
823.1
 20
10
 11
823.1
 21
30
  0
LINE
  8
0
 10
823.1
 20
30
 11
820
 21
30
  0
LINE
  8
0
 10
820
 20
30
 11
820
 21
50
  0
LINE
  8
0
 10
820
 20
50
 11
823.1
 21
50
  0
LINE
  8
0
 10
823.1
 20
50
 11
823.1
 21
70
  0
LINE
  8
0
 10
823.1
 20
70
 11
820
 21
70
  0
LINE
  8
0
 10
820
 20
70
 11
820
 21
90
  0
LINE
  8
0
 10
820
 20
90
 11
823.1
 21
90
  0
LINE
  8
0
 10
823.1
 20
90
 11
823.1
 21
110
  0
LINE
  8
0
 10
823.1
 20
110
 11
820
 21
110
  0
LINE
  8
0
 10
820
 20
110
 11
820
 21
130
  0
LINE
  8
0
 10
820
 20
130
 11
823.1
 21
130
  0
LINE
  8
0
 10
823.1
 20
130
 11
823.1
 21
150
  0
LINE
  8
0
 10
823.1
 20
150
 11
820
 21
150
  0
LINE
  8
0
 10
820
 20
150
 11
820
 21
170
  0
LINE
  8
0
 10
820
 20
170
 11
823.1
 21
170
  0
LINE
  8
0
 10
823.1
 20
170
 11
823.1
 21
190
  0
LINE
  8
0
 10
823.1
 20
190
 11
820
 21
190
  0
LINE
  8
0
 10
820
 20
190
 11
820
 21
210
  0
LINE
  8
0
 10
820
 20
210
 11
416.9
 21
210
  0
LINE
  8
0
 10
416.9
 20
210
 11
416.9
 21
190
  0
LINE
  8
0
 10
416.9
 20
190
 11
420
 21
190
  0
LINE
  8
0
 10
420
 20
190
 11
420
 21
170
  0
LINE
  8
0
 10
420
 20
170
 11
416.9
 21
170
  0
LINE
  8
0
 10
416.9
 20
170
 11
416.9
 21
150
  0
LINE
  8
0
 10
416.9
 20
150
 11
420
 21
150
  0
LINE
  8
0
 10
420
 20
150
 11
420
 21
130
  0
LINE
  8
0
 10
420
 20
130
 11
416.9
 21
130
  0
LINE
  8
0
 10
416.9
 20
130
 11
416.9
 21
110
  0
LINE
  8
0
 10
416.9
 20
110
 11
420
 21
110
  0
LINE
  8
0
 10
420
 20
110
 11
420
 21
90
  0
LINE
  8
0
 10
420
 20
90
 11
416.9
 21
90
  0
LINE
  8
0
 10
416.9
 20
90
 11
416.9
 21
70
  0
LINE
  8
0
 10
416.9
 20
70
 11
420
 21
70
  0
LINE
  8
0
 10
420
 20
70
 11
420
 21
50
  0
LINE
  8
0
 10
420
 20
50
 11
416.9
 21
50
  0
LINE
  8
0
 10
416.9
 20
50
 11
416.9
 21
30
  0
LINE
  8
0
 10
416.9
 20
30
 11
420
 21
30
  0
LINE
  8
0
 10
420
 20
30
 11
420
 21
6.89999
  0
LINE
  8
0
 10
420
 20
6.89999
 11
460
 21
6.89999
  0
LINE
  8
0
 10
460
 20
6.89999
 11
460
 21
10
  0
LINE
  8
0
 10
824.682
 20
169.692
 11
824.714
 21
169.697
  0
LINE
  8
0
 10
824.714
 20
169.697
 11
824.746
 21
169.705
  0
LINE
  8
0
 10
824.746
 20
169.705
 11
824.776
 21
169.717
  0
LINE
  8
0
 10
824.776
 20
169.717
 11
824.805
 21
169.732
  0
LINE
  8
0
 10
824.805
 20
169.732
 11
824.832
 21
169.749
  0
LINE
  8
0
 10
824.832
 20
169.749
 11
824.857
 21
169.77
  0
LINE
  8
0
 10
824.857
 20
169.77
 11
824.88
 21
169.793
  0
LINE
  8
0
 10
824.88
 20
169.793
 11
824.901
 21
169.818
  0
LINE
  8
0
 10
824.901
 20
169.818
 11
824.918
 21
169.845
  0
LINE
  8
0
 10
824.918
 20
169.845
 11
824.933
 21
169.874
  0
LINE
  8
0
 10
824.933
 20
169.874
 11
824.945
 21
169.904
  0
LINE
  8
0
 10
824.945
 20
169.904
 11
824.953
 21
169.936
  0
LINE
  8
0
 10
824.953
 20
169.936
 11
824.958
 21
169.968
  0
LINE
  8
0
 10
824.958
 20
169.968
 11
824.96
 21
170
  0
LINE
  8
0
 10
824.96
 20
170
 11
824.958
 21
170.032
  0
LINE
  8
0
 10
824.958
 20
170.032
 11
824.953
 21
170.064
  0
LINE
  8
0
 10
824.953
 20
170.064
 11
824.945
 21
170.096
  0
LINE
  8
0
 10
824.945
 20
170.096
 11
824.933
 21
170.126
  0
LINE
  8
0
 10
824.933
 20
170.126
 11
824.918
 21
170.155
  0
LINE
  8
0
 10
824.918
 20
170.155
 11
824.901
 21
170.182
  0
LINE
  8
0
 10
824.901
 20
170.182
 11
824.88
 21
170.207
  0
LINE
  8
0
 10
824.88
 20
170.207
 11
824.857
 21
170.23
  0
LINE
  8
0
 10
824.857
 20
170.23
 11
824.832
 21
170.251
  0
LINE
  8
0
 10
824.832
 20
170.251
 11
824.805
 21
170.268
  0
LINE
  8
0
 10
824.805
 20
170.268
 11
824.776
 21
170.283
  0
LINE
  8
0
 10
824.776
 20
170.283
 11
824.746
 21
170.295
  0
LINE
  8
0
 10
824.746
 20
170.295
 11
824.714
 21
170.303
  0
LINE
  8
0
 10
824.714
 20
170.303
 11
824.682
 21
170.308
  0
LINE
  8
0
 10
824.682
 20
170.308
 11
824.65
 21
170.31
  0
LINE
  8
0
 10
824.65
 20
170.31
 11
824.618
 21
170.308
  0
LINE
  8
0
 10
824.618
 20
170.308
 11
824.586
 21
170.303
  0
LINE
  8
0
 10
824.586
 20
170.303
 11
824.554
 21
170.295
  0
LINE
  8
0
 10
824.554
 20
170.295
 11
824.524
 21
170.283
  0
LINE
  8
0
 10
824.524
 20
170.283
 11
824.495
 21
170.268
  0
LINE
  8
0
 10
824.495
 20
170.268
 11
824.468
 21
170.251
  0
LINE
  8
0
 10
824.468
 20
170.251
 11
824.443
 21
170.23
  0
LINE
  8
0
 10
824.443
 20
170.23
 11
824.42
 21
170.207
  0
LINE
  8
0
 10
824.42
 20
170.207
 11
824.399
 21
170.182
  0
LINE
  8
0
 10
824.399
 20
170.182
 11
824.382
 21
170.155
  0
LINE
  8
0
 10
824.382
 20
170.155
 11
824.367
 21
170.126
  0
LINE
  8
0
 10
824.367
 20
170.126
 11
824.355
 21
170.096
  0
LINE
  8
0
 10
824.355
 20
170.096
 11
824.347
 21
170.064
  0
LINE
  8
0
 10
824.347
 20
170.064
 11
824.342
 21
170.032
  0
LINE
  8
0
 10
824.342
 20
170.032
 11
824.34
 21
170
  0
LINE
  8
0
 10
824.34
 20
170
 11
824.342
 21
169.968
  0
LINE
  8
0
 10
824.342
 20
169.968
 11
824.347
 21
169.936
  0
LINE
  8
0
 10
824.347
 20
169.936
 11
824.355
 21
169.904
  0
LINE
  8
0
 10
824.355
 20
169.904
 11
824.367
 21
169.874
  0
LINE
  8
0
 10
824.367
 20
169.874
 11
824.382
 21
169.845
  0
LINE
  8
0
 10
824.382
 20
169.845
 11
824.399
 21
169.818
  0
LINE
  8
0
 10
824.399
 20
169.818
 11
824.42
 21
169.793
  0
LINE
  8
0
 10
824.42
 20
169.793
 11
824.443
 21
169.77
  0
LINE
  8
0
 10
824.443
 20
169.77
 11
824.468
 21
169.749
  0
LINE
  8
0
 10
824.468
 20
169.749
 11
824.495
 21
169.732
  0
LINE
  8
0
 10
824.495
 20
169.732
 11
824.524
 21
169.717
  0
LINE
  8
0
 10
824.524
 20
169.717
 11
824.554
 21
169.705
  0
LINE
  8
0
 10
824.554
 20
169.705
 11
824.586
 21
169.697
  0
LINE
  8
0
 10
824.586
 20
169.697
 11
824.618
 21
169.692
  0
LINE
  8
0
 10
824.618
 20
169.692
 11
824.65
 21
169.69
  0
LINE
  8
0
 10
824.65
 20
169.69
 11
824.682
 21
169.692
  0
LINE
  8
0
 10
415.382
 20
169.692
 11
415.414
 21
169.697
  0
LINE
  8
0
 10
415.414
 20
169.697
 11
415.446
 21
169.705
  0
LINE
  8
0
 10
415.446
 20
169.705
 11
415.476
 21
169.717
  0
LINE
  8
0
 10
415.476
 20
169.717
 11
415.505
 21
169.732
  0
LINE
  8
0
 10
415.505
 20
169.732
 11
415.532
 21
169.749
  0
LINE
  8
0
 10
415.532
 20
169.749
 11
415.557
 21
169.77
  0
LINE
  8
0
 10
415.557
 20
169.77
 11
415.58
 21
169.793
  0
LINE
  8
0
 10
415.58
 20
169.793
 11
415.601
 21
169.818
  0
LINE
  8
0
 10
415.601
 20
169.818
 11
415.618
 21
169.845
  0
LINE
  8
0
 10
415.618
 20
169.845
 11
415.633
 21
169.874
  0
LINE
  8
0
 10
415.633
 20
169.874
 11
415.645
 21
169.904
  0
LINE
  8
0
 10
415.645
 20
169.904
 11
415.653
 21
169.936
  0
LINE
  8
0
 10
415.653
 20
169.936
 11
415.658
 21
169.968
  0
LINE
  8
0
 10
415.658
 20
169.968
 11
415.66
 21
170
  0
LINE
  8
0
 10
415.66
 20
170
 11
415.658
 21
170.032
  0
LINE
  8
0
 10
415.658
 20
170.032
 11
415.653
 21
170.064
  0
LINE
  8
0
 10
415.653
 20
170.064
 11
415.645
 21
170.096
  0
LINE
  8
0
 10
415.645
 20
170.096
 11
415.633
 21
170.126
  0
LINE
  8
0
 10
415.633
 20
170.126
 11
415.618
 21
170.155
  0
LINE
  8
0
 10
415.618
 20
170.155
 11
415.601
 21
170.182
  0
LINE
  8
0
 10
415.601
 20
170.182
 11
415.58
 21
170.207
  0
LINE
  8
0
 10
415.58
 20
170.207
 11
415.557
 21
170.23
  0
LINE
  8
0
 10
415.557
 20
170.23
 11
415.532
 21
170.251
  0
LINE
  8
0
 10
415.532
 20
170.251
 11
415.505
 21
170.268
  0
LINE
  8
0
 10
415.505
 20
170.268
 11
415.476
 21
170.283
  0
LINE
  8
0
 10
415.476
 20
170.283
 11
415.446
 21
170.295
  0
LINE
  8
0
 10
415.446
 20
170.295
 11
415.414
 21
170.303
  0
LINE
  8
0
 10
415.414
 20
170.303
 11
415.382
 21
170.308
  0
LINE
  8
0
 10
415.382
 20
170.308
 11
415.35
 21
170.31
  0
LINE
  8
0
 10
415.35
 20
170.31
 11
415.318
 21
170.308
  0
LINE
  8
0
 10
415.318
 20
170.308
 11
415.286
 21
170.303
  0
LINE
  8
0
 10
415.286
 20
170.303
 11
415.254
 21
170.295
  0
LINE
  8
0
 10
415.254
 20
170.295
 11
415.224
 21
170.283
  0
LINE
  8
0
 10
415.224
 20
170.283
 11
415.195
 21
170.268
  0
LINE
  8
0
 10
415.195
 20
170.268
 11
415.168
 21
170.251
  0
LINE
  8
0
 10
415.168
 20
170.251
 11
415.143
 21
170.23
  0
LINE
  8
0
 10
415.143
 20
170.23
 11
415.12
 21
170.207
  0
LINE
  8
0
 10
415.12
 20
170.207
 11
415.099
 21
170.182
  0
LINE
  8
0
 10
415.099
 20
170.182
 11
415.082
 21
170.155
  0
LINE
  8
0
 10
415.082
 20
170.155
 11
415.067
 21
170.126
  0
LINE
  8
0
 10
415.067
 20
170.126
 11
415.055
 21
170.096
  0
LINE
  8
0
 10
415.055
 20
170.096
 11
415.047
 21
170.064
  0
LINE
  8
0
 10
415.047
 20
170.064
 11
415.042
 21
170.032
  0
LINE
  8
0
 10
415.042
 20
170.032
 11
415.04
 21
170
  0
LINE
  8
0
 10
415.04
 20
170
 11
415.042
 21
169.968
  0
LINE
  8
0
 10
415.042
 20
169.968
 11
415.047
 21
169.936
  0
LINE
  8
0
 10
415.047
 20
169.936
 11
415.055
 21
169.904
  0
LINE
  8
0
 10
415.055
 20
169.904
 11
415.067
 21
169.874
  0
LINE
  8
0
 10
415.067
 20
169.874
 11
415.082
 21
169.845
  0
LINE
  8
0
 10
415.082
 20
169.845
 11
415.099
 21
169.818
  0
LINE
  8
0
 10
415.099
 20
169.818
 11
415.12
 21
169.793
  0
LINE
  8
0
 10
415.12
 20
169.793
 11
415.143
 21
169.77
  0
LINE
  8
0
 10
415.143
 20
169.77
 11
415.168
 21
169.749
  0
LINE
  8
0
 10
415.168
 20
169.749
 11
415.195
 21
169.732
  0
LINE
  8
0
 10
415.195
 20
169.732
 11
415.224
 21
169.717
  0
LINE
  8
0
 10
415.224
 20
169.717
 11
415.254
 21
169.705
  0
LINE
  8
0
 10
415.254
 20
169.705
 11
415.286
 21
169.697
  0
LINE
  8
0
 10
415.286
 20
169.697
 11
415.318
 21
169.692
  0
LINE
  8
0
 10
415.318
 20
169.692
 11
415.35
 21
169.69
  0
LINE
  8
0
 10
415.35
 20
169.69
 11
415.382
 21
169.692
  0
LINE
  8
0
 10
415.382
 20
129.692
 11
415.414
 21
129.697
  0
LINE
  8
0
 10
415.414
 20
129.697
 11
415.446
 21
129.705
  0
LINE
  8
0
 10
415.446
 20
129.705
 11
415.476
 21
129.717
  0
LINE
  8
0
 10
415.476
 20
129.717
 11
415.505
 21
129.732
  0
LINE
  8
0
 10
415.505
 20
129.732
 11
415.532
 21
129.749
  0
LINE
  8
0
 10
415.532
 20
129.749
 11
415.557
 21
129.77
  0
LINE
  8
0
 10
415.557
 20
129.77
 11
415.58
 21
129.793
  0
LINE
  8
0
 10
415.58
 20
129.793
 11
415.601
 21
129.818
  0
LINE
  8
0
 10
415.601
 20
129.818
 11
415.618
 21
129.845
  0
LINE
  8
0
 10
415.618
 20
129.845
 11
415.633
 21
129.874
  0
LINE
  8
0
 10
415.633
 20
129.874
 11
415.645
 21
129.904
  0
LINE
  8
0
 10
415.645
 20
129.904
 11
415.653
 21
129.936
  0
LINE
  8
0
 10
415.653
 20
129.936
 11
415.658
 21
129.968
  0
LINE
  8
0
 10
415.658
 20
129.968
 11
415.66
 21
130
  0
LINE
  8
0
 10
415.66
 20
130
 11
415.658
 21
130.032
  0
LINE
  8
0
 10
415.658
 20
130.032
 11
415.653
 21
130.064
  0
LINE
  8
0
 10
415.653
 20
130.064
 11
415.645
 21
130.096
  0
LINE
  8
0
 10
415.645
 20
130.096
 11
415.633
 21
130.126
  0
LINE
  8
0
 10
415.633
 20
130.126
 11
415.618
 21
130.155
  0
LINE
  8
0
 10
415.618
 20
130.155
 11
415.601
 21
130.182
  0
LINE
  8
0
 10
415.601
 20
130.182
 11
415.58
 21
130.207
  0
LINE
  8
0
 10
415.58
 20
130.207
 11
415.557
 21
130.23
  0
LINE
  8
0
 10
415.557
 20
130.23
 11
415.532
 21
130.251
  0
LINE
  8
0
 10
415.532
 20
130.251
 11
415.505
 21
130.268
  0
LINE
  8
0
 10
415.505
 20
130.268
 11
415.476
 21
130.283
  0
LINE
  8
0
 10
415.476
 20
130.283
 11
415.446
 21
130.295
  0
LINE
  8
0
 10
415.446
 20
130.295
 11
415.414
 21
130.303
  0
LINE
  8
0
 10
415.414
 20
130.303
 11
415.382
 21
130.308
  0
LINE
  8
0
 10
415.382
 20
130.308
 11
415.35
 21
130.31
  0
LINE
  8
0
 10
415.35
 20
130.31
 11
415.318
 21
130.308
  0
LINE
  8
0
 10
415.318
 20
130.308
 11
415.286
 21
130.303
  0
LINE
  8
0
 10
415.286
 20
130.303
 11
415.254
 21
130.295
  0
LINE
  8
0
 10
415.254
 20
130.295
 11
415.224
 21
130.283
  0
LINE
  8
0
 10
415.224
 20
130.283
 11
415.195
 21
130.268
  0
LINE
  8
0
 10
415.195
 20
130.268
 11
415.168
 21
130.251
  0
LINE
  8
0
 10
415.168
 20
130.251
 11
415.143
 21
130.23
  0
LINE
  8
0
 10
415.143
 20
130.23
 11
415.12
 21
130.207
  0
LINE
  8
0
 10
415.12
 20
130.207
 11
415.099
 21
130.182
  0
LINE
  8
0
 10
415.099
 20
130.182
 11
415.082
 21
130.155
  0
LINE
  8
0
 10
415.082
 20
130.155
 11
415.067
 21
130.126
  0
LINE
  8
0
 10
415.067
 20
130.126
 11
415.055
 21
130.096
  0
LINE
  8
0
 10
415.055
 20
130.096
 11
415.047
 21
130.064
  0
LINE
  8
0
 10
415.047
 20
130.064
 11
415.042
 21
130.032
  0
LINE
  8
0
 10
415.042
 20
130.032
 11
415.04
 21
130
  0
LINE
  8
0
 10
415.04
 20
130
 11
415.042
 21
129.968
  0
LINE
  8
0
 10
415.042
 20
129.968
 11
415.047
 21
129.936
  0
LINE
  8
0
 10
415.047
 20
129.936
 11
415.055
 21
129.904
  0
LINE
  8
0
 10
415.055
 20
129.904
 11
415.067
 21
129.874
  0
LINE
  8
0
 10
415.067
 20
129.874
 11
415.082
 21
129.845
  0
LINE
  8
0
 10
415.082
 20
129.845
 11
415.099
 21
129.818
  0
LINE
  8
0
 10
415.099
 20
129.818
 11
415.12
 21
129.793
  0
LINE
  8
0
 10
415.12
 20
129.793
 11
415.143
 21
129.77
  0
LINE
  8
0
 10
415.143
 20
129.77
 11
415.168
 21
129.749
  0
LINE
  8
0
 10
415.168
 20
129.749
 11
415.195
 21
129.732
  0
LINE
  8
0
 10
415.195
 20
129.732
 11
415.224
 21
129.717
  0
LINE
  8
0
 10
415.224
 20
129.717
 11
415.254
 21
129.705
  0
LINE
  8
0
 10
415.254
 20
129.705
 11
415.286
 21
129.697
  0
LINE
  8
0
 10
415.286
 20
129.697
 11
415.318
 21
129.692
  0
LINE
  8
0
 10
415.318
 20
129.692
 11
415.35
 21
129.69
  0
LINE
  8
0
 10
415.35
 20
129.69
 11
415.382
 21
129.692
  0
LINE
  8
0
 10
1035.38
 20
129.692
 11
1035.41
 21
129.697
  0
LINE
  8
0
 10
1035.41
 20
129.697
 11
1035.45
 21
129.705
  0
LINE
  8
0
 10
1035.45
 20
129.705
 11
1035.48
 21
129.717
  0
LINE
  8
0
 10
1035.48
 20
129.717
 11
1035.51
 21
129.732
  0
LINE
  8
0
 10
1035.51
 20
129.732
 11
1035.53
 21
129.749
  0
LINE
  8
0
 10
1035.53
 20
129.749
 11
1035.56
 21
129.77
  0
LINE
  8
0
 10
1035.56
 20
129.77
 11
1035.58
 21
129.793
  0
LINE
  8
0
 10
1035.58
 20
129.793
 11
1035.6
 21
129.818
  0
LINE
  8
0
 10
1035.6
 20
129.818
 11
1035.62
 21
129.845
  0
LINE
  8
0
 10
1035.62
 20
129.845
 11
1035.63
 21
129.874
  0
LINE
  8
0
 10
1035.63
 20
129.874
 11
1035.64
 21
129.904
  0
LINE
  8
0
 10
1035.64
 20
129.904
 11
1035.65
 21
129.936
  0
LINE
  8
0
 10
1035.65
 20
129.936
 11
1035.66
 21
129.968
  0
LINE
  8
0
 10
1035.66
 20
129.968
 11
1035.66
 21
130
  0
LINE
  8
0
 10
1035.66
 20
130
 11
1035.66
 21
130.032
  0
LINE
  8
0
 10
1035.66
 20
130.032
 11
1035.65
 21
130.064
  0
LINE
  8
0
 10
1035.65
 20
130.064
 11
1035.64
 21
130.096
  0
LINE
  8
0
 10
1035.64
 20
130.096
 11
1035.63
 21
130.126
  0
LINE
  8
0
 10
1035.63
 20
130.126
 11
1035.62
 21
130.155
  0
LINE
  8
0
 10
1035.62
 20
130.155
 11
1035.6
 21
130.182
  0
LINE
  8
0
 10
1035.6
 20
130.182
 11
1035.58
 21
130.207
  0
LINE
  8
0
 10
1035.58
 20
130.207
 11
1035.56
 21
130.23
  0
LINE
  8
0
 10
1035.56
 20
130.23
 11
1035.53
 21
130.251
  0
LINE
  8
0
 10
1035.53
 20
130.251
 11
1035.51
 21
130.268
  0
LINE
  8
0
 10
1035.51
 20
130.268
 11
1035.48
 21
130.283
  0
LINE
  8
0
 10
1035.48
 20
130.283
 11
1035.45
 21
130.295
  0
LINE
  8
0
 10
1035.45
 20
130.295
 11
1035.41
 21
130.303
  0
LINE
  8
0
 10
1035.41
 20
130.303
 11
1035.38
 21
130.308
  0
LINE
  8
0
 10
1035.38
 20
130.308
 11
1035.35
 21
130.31
  0
LINE
  8
0
 10
1035.35
 20
130.31
 11
1035.32
 21
130.308
  0
LINE
  8
0
 10
1035.32
 20
130.308
 11
1035.29
 21
130.303
  0
LINE
  8
0
 10
1035.29
 20
130.303
 11
1035.25
 21
130.295
  0
LINE
  8
0
 10
1035.25
 20
130.295
 11
1035.22
 21
130.283
  0
LINE
  8
0
 10
1035.22
 20
130.283
 11
1035.19
 21
130.268
  0
LINE
  8
0
 10
1035.19
 20
130.268
 11
1035.17
 21
130.251
  0
LINE
  8
0
 10
1035.17
 20
130.251
 11
1035.14
 21
130.23
  0
LINE
  8
0
 10
1035.14
 20
130.23
 11
1035.12
 21
130.207
  0
LINE
  8
0
 10
1035.12
 20
130.207
 11
1035.1
 21
130.182
  0
LINE
  8
0
 10
1035.1
 20
130.182
 11
1035.08
 21
130.155
  0
LINE
  8
0
 10
1035.08
 20
130.155
 11
1035.07
 21
130.126
  0
LINE
  8
0
 10
1035.07
 20
130.126
 11
1035.06
 21
130.096
  0
LINE
  8
0
 10
1035.06
 20
130.096
 11
1035.05
 21
130.064
  0
LINE
  8
0
 10
1035.05
 20
130.064
 11
1035.04
 21
130.032
  0
LINE
  8
0
 10
1035.04
 20
130.032
 11
1035.04
 21
130
  0
LINE
  8
0
 10
1035.04
 20
130
 11
1035.04
 21
129.968
  0
LINE
  8
0
 10
1035.04
 20
129.968
 11
1035.05
 21
129.936
  0
LINE
  8
0
 10
1035.05
 20
129.936
 11
1035.06
 21
129.904
  0
LINE
  8
0
 10
1035.06
 20
129.904
 11
1035.07
 21
129.874
  0
LINE
  8
0
 10
1035.07
 20
129.874
 11
1035.08
 21
129.845
  0
LINE
  8
0
 10
1035.08
 20
129.845
 11
1035.1
 21
129.818
  0
LINE
  8
0
 10
1035.1
 20
129.818
 11
1035.12
 21
129.793
  0
LINE
  8
0
 10
1035.12
 20
129.793
 11
1035.14
 21
129.77
  0
LINE
  8
0
 10
1035.14
 20
129.77
 11
1035.17
 21
129.749
  0
LINE
  8
0
 10
1035.17
 20
129.749
 11
1035.19
 21
129.732
  0
LINE
  8
0
 10
1035.19
 20
129.732
 11
1035.22
 21
129.717
  0
LINE
  8
0
 10
1035.22
 20
129.717
 11
1035.25
 21
129.705
  0
LINE
  8
0
 10
1035.25
 20
129.705
 11
1035.29
 21
129.697
  0
LINE
  8
0
 10
1035.29
 20
129.697
 11
1035.32
 21
129.692
  0
LINE
  8
0
 10
1035.32
 20
129.692
 11
1035.35
 21
129.69
  0
LINE
  8
0
 10
1035.35
 20
129.69
 11
1035.38
 21
129.692
  0
LINE
  8
0
 10
824.682
 20
129.692
 11
824.714
 21
129.697
  0
LINE
  8
0
 10
824.714
 20
129.697
 11
824.746
 21
129.705
  0
LINE
  8
0
 10
824.746
 20
129.705
 11
824.776
 21
129.717
  0
LINE
  8
0
 10
824.776
 20
129.717
 11
824.805
 21
129.732
  0
LINE
  8
0
 10
824.805
 20
129.732
 11
824.832
 21
129.749
  0
LINE
  8
0
 10
824.832
 20
129.749
 11
824.857
 21
129.77
  0
LINE
  8
0
 10
824.857
 20
129.77
 11
824.88
 21
129.793
  0
LINE
  8
0
 10
824.88
 20
129.793
 11
824.901
 21
129.818
  0
LINE
  8
0
 10
824.901
 20
129.818
 11
824.918
 21
129.845
  0
LINE
  8
0
 10
824.918
 20
129.845
 11
824.933
 21
129.874
  0
LINE
  8
0
 10
824.933
 20
129.874
 11
824.945
 21
129.904
  0
LINE
  8
0
 10
824.945
 20
129.904
 11
824.953
 21
129.936
  0
LINE
  8
0
 10
824.953
 20
129.936
 11
824.958
 21
129.968
  0
LINE
  8
0
 10
824.958
 20
129.968
 11
824.96
 21
130
  0
LINE
  8
0
 10
824.96
 20
130
 11
824.958
 21
130.032
  0
LINE
  8
0
 10
824.958
 20
130.032
 11
824.953
 21
130.064
  0
LINE
  8
0
 10
824.953
 20
130.064
 11
824.945
 21
130.096
  0
LINE
  8
0
 10
824.945
 20
130.096
 11
824.933
 21
130.126
  0
LINE
  8
0
 10
824.933
 20
130.126
 11
824.918
 21
130.155
  0
LINE
  8
0
 10
824.918
 20
130.155
 11
824.901
 21
130.182
  0
LINE
  8
0
 10
824.901
 20
130.182
 11
824.88
 21
130.207
  0
LINE
  8
0
 10
824.88
 20
130.207
 11
824.857
 21
130.23
  0
LINE
  8
0
 10
824.857
 20
130.23
 11
824.832
 21
130.251
  0
LINE
  8
0
 10
824.832
 20
130.251
 11
824.805
 21
130.268
  0
LINE
  8
0
 10
824.805
 20
130.268
 11
824.776
 21
130.283
  0
LINE
  8
0
 10
824.776
 20
130.283
 11
824.746
 21
130.295
  0
LINE
  8
0
 10
824.746
 20
130.295
 11
824.714
 21
130.303
  0
LINE
  8
0
 10
824.714
 20
130.303
 11
824.682
 21
130.308
  0
LINE
  8
0
 10
824.682
 20
130.308
 11
824.65
 21
130.31
  0
LINE
  8
0
 10
824.65
 20
130.31
 11
824.618
 21
130.308
  0
LINE
  8
0
 10
824.618
 20
130.308
 11
824.586
 21
130.303
  0
LINE
  8
0
 10
824.586
 20
130.303
 11
824.554
 21
130.295
  0
LINE
  8
0
 10
824.554
 20
130.295
 11
824.524
 21
130.283
  0
LINE
  8
0
 10
824.524
 20
130.283
 11
824.495
 21
130.268
  0
LINE
  8
0
 10
824.495
 20
130.268
 11
824.468
 21
130.251
  0
LINE
  8
0
 10
824.468
 20
130.251
 11
824.443
 21
130.23
  0
LINE
  8
0
 10
824.443
 20
130.23
 11
824.42
 21
130.207
  0
LINE
  8
0
 10
824.42
 20
130.207
 11
824.399
 21
130.182
  0
LINE
  8
0
 10
824.399
 20
130.182
 11
824.382
 21
130.155
  0
LINE
  8
0
 10
824.382
 20
130.155
 11
824.367
 21
130.126
  0
LINE
  8
0
 10
824.367
 20
130.126
 11
824.355
 21
130.096
  0
LINE
  8
0
 10
824.355
 20
130.096
 11
824.347
 21
130.064
  0
LINE
  8
0
 10
824.347
 20
130.064
 11
824.342
 21
130.032
  0
LINE
  8
0
 10
824.342
 20
130.032
 11
824.34
 21
130
  0
LINE
  8
0
 10
824.34
 20
130
 11
824.342
 21
129.968
  0
LINE
  8
0
 10
824.342
 20
129.968
 11
824.347
 21
129.936
  0
LINE
  8
0
 10
824.347
 20
129.936
 11
824.355
 21
129.904
  0
LINE
  8
0
 10
824.355
 20
129.904
 11
824.367
 21
129.874
  0
LINE
  8
0
 10
824.367
 20
129.874
 11
824.382
 21
129.845
  0
LINE
  8
0
 10
824.382
 20
129.845
 11
824.399
 21
129.818
  0
LINE
  8
0
 10
824.399
 20
129.818
 11
824.42
 21
129.793
  0
LINE
  8
0
 10
824.42
 20
129.793
 11
824.443
 21
129.77
  0
LINE
  8
0
 10
824.443
 20
129.77
 11
824.468
 21
129.749
  0
LINE
  8
0
 10
824.468
 20
129.749
 11
824.495
 21
129.732
  0
LINE
  8
0
 10
824.495
 20
129.732
 11
824.524
 21
129.717
  0
LINE
  8
0
 10
824.524
 20
129.717
 11
824.554
 21
129.705
  0
LINE
  8
0
 10
824.554
 20
129.705
 11
824.586
 21
129.697
  0
LINE
  8
0
 10
824.586
 20
129.697
 11
824.618
 21
129.692
  0
LINE
  8
0
 10
824.618
 20
129.692
 11
824.65
 21
129.69
  0
LINE
  8
0
 10
824.65
 20
129.69
 11
824.682
 21
129.692
  0
LINE
  8
0
 10
825.382
 20
129.692
 11
825.414
 21
129.697
  0
LINE
  8
0
 10
825.414
 20
129.697
 11
825.446
 21
129.705
  0
LINE
  8
0
 10
825.446
 20
129.705
 11
825.476
 21
129.717
  0
LINE
  8
0
 10
825.476
 20
129.717
 11
825.505
 21
129.732
  0
LINE
  8
0
 10
825.505
 20
129.732
 11
825.532
 21
129.749
  0
LINE
  8
0
 10
825.532
 20
129.749
 11
825.557
 21
129.77
  0
LINE
  8
0
 10
825.557
 20
129.77
 11
825.58
 21
129.793
  0
LINE
  8
0
 10
825.58
 20
129.793
 11
825.601
 21
129.818
  0
LINE
  8
0
 10
825.601
 20
129.818
 11
825.618
 21
129.845
  0
LINE
  8
0
 10
825.618
 20
129.845
 11
825.633
 21
129.874
  0
LINE
  8
0
 10
825.633
 20
129.874
 11
825.645
 21
129.904
  0
LINE
  8
0
 10
825.645
 20
129.904
 11
825.653
 21
129.936
  0
LINE
  8
0
 10
825.653
 20
129.936
 11
825.658
 21
129.968
  0
LINE
  8
0
 10
825.658
 20
129.968
 11
825.66
 21
130
  0
LINE
  8
0
 10
825.66
 20
130
 11
825.658
 21
130.032
  0
LINE
  8
0
 10
825.658
 20
130.032
 11
825.653
 21
130.064
  0
LINE
  8
0
 10
825.653
 20
130.064
 11
825.645
 21
130.096
  0
LINE
  8
0
 10
825.645
 20
130.096
 11
825.633
 21
130.126
  0
LINE
  8
0
 10
825.633
 20
130.126
 11
825.618
 21
130.155
  0
LINE
  8
0
 10
825.618
 20
130.155
 11
825.601
 21
130.182
  0
LINE
  8
0
 10
825.601
 20
130.182
 11
825.58
 21
130.207
  0
LINE
  8
0
 10
825.58
 20
130.207
 11
825.557
 21
130.23
  0
LINE
  8
0
 10
825.557
 20
130.23
 11
825.532
 21
130.251
  0
LINE
  8
0
 10
825.532
 20
130.251
 11
825.505
 21
130.268
  0
LINE
  8
0
 10
825.505
 20
130.268
 11
825.476
 21
130.283
  0
LINE
  8
0
 10
825.476
 20
130.283
 11
825.446
 21
130.295
  0
LINE
  8
0
 10
825.446
 20
130.295
 11
825.414
 21
130.303
  0
LINE
  8
0
 10
825.414
 20
130.303
 11
825.382
 21
130.308
  0
LINE
  8
0
 10
825.382
 20
130.308
 11
825.35
 21
130.31
  0
LINE
  8
0
 10
825.35
 20
130.31
 11
825.318
 21
130.308
  0
LINE
  8
0
 10
825.318
 20
130.308
 11
825.286
 21
130.303
  0
LINE
  8
0
 10
825.286
 20
130.303
 11
825.254
 21
130.295
  0
LINE
  8
0
 10
825.254
 20
130.295
 11
825.224
 21
130.283
  0
LINE
  8
0
 10
825.224
 20
130.283
 11
825.195
 21
130.268
  0
LINE
  8
0
 10
825.195
 20
130.268
 11
825.168
 21
130.251
  0
LINE
  8
0
 10
825.168
 20
130.251
 11
825.143
 21
130.23
  0
LINE
  8
0
 10
825.143
 20
130.23
 11
825.12
 21
130.207
  0
LINE
  8
0
 10
825.12
 20
130.207
 11
825.099
 21
130.182
  0
LINE
  8
0
 10
825.099
 20
130.182
 11
825.082
 21
130.155
  0
LINE
  8
0
 10
825.082
 20
130.155
 11
825.067
 21
130.126
  0
LINE
  8
0
 10
825.067
 20
130.126
 11
825.055
 21
130.096
  0
LINE
  8
0
 10
825.055
 20
130.096
 11
825.047
 21
130.064
  0
LINE
  8
0
 10
825.047
 20
130.064
 11
825.042
 21
130.032
  0
LINE
  8
0
 10
825.042
 20
130.032
 11
825.04
 21
130
  0
LINE
  8
0
 10
825.04
 20
130
 11
825.042
 21
129.968
  0
LINE
  8
0
 10
825.042
 20
129.968
 11
825.047
 21
129.936
  0
LINE
  8
0
 10
825.047
 20
129.936
 11
825.055
 21
129.904
  0
LINE
  8
0
 10
825.055
 20
129.904
 11
825.067
 21
129.874
  0
LINE
  8
0
 10
825.067
 20
129.874
 11
825.082
 21
129.845
  0
LINE
  8
0
 10
825.082
 20
129.845
 11
825.099
 21
129.818
  0
LINE
  8
0
 10
825.099
 20
129.818
 11
825.12
 21
129.793
  0
LINE
  8
0
 10
825.12
 20
129.793
 11
825.143
 21
129.77
  0
LINE
  8
0
 10
825.143
 20
129.77
 11
825.168
 21
129.749
  0
LINE
  8
0
 10
825.168
 20
129.749
 11
825.195
 21
129.732
  0
LINE
  8
0
 10
825.195
 20
129.732
 11
825.224
 21
129.717
  0
LINE
  8
0
 10
825.224
 20
129.717
 11
825.254
 21
129.705
  0
LINE
  8
0
 10
825.254
 20
129.705
 11
825.286
 21
129.697
  0
LINE
  8
0
 10
825.286
 20
129.697
 11
825.318
 21
129.692
  0
LINE
  8
0
 10
825.318
 20
129.692
 11
825.35
 21
129.69
  0
LINE
  8
0
 10
825.35
 20
129.69
 11
825.382
 21
129.692
  0
LINE
  8
0
 10
1654.92
 20
118.8
 11
1654.95
 21
118.806
  0
LINE
  8
0
 10
1654.95
 20
118.806
 11
1654.98
 21
118.814
  0
LINE
  8
0
 10
1654.98
 20
118.814
 11
1655.01
 21
118.827
  0
LINE
  8
0
 10
1655.01
 20
118.827
 11
1655.05
 21
118.842
  0
LINE
  8
0
 10
1655.05
 20
118.842
 11
1655.07
 21
118.861
  0
LINE
  8
0
 10
1655.07
 20
118.861
 11
1655.1
 21
118.882
  0
LINE
  8
0
 10
1655.1
 20
118.882
 11
1655.12
 21
118.906
  0
LINE
  8
0
 10
1655.12
 20
118.906
 11
1655.15
 21
118.933
  0
LINE
  8
0
 10
1655.15
 20
118.933
 11
1655.16
 21
118.961
  0
LINE
  8
0
 10
1655.16
 20
118.961
 11
1655.18
 21
118.992
  0
LINE
  8
0
 10
1655.18
 20
118.992
 11
1655.19
 21
119.023
  0
LINE
  8
0
 10
1655.19
 20
119.023
 11
1655.2
 21
119.056
  0
LINE
  8
0
 10
1655.2
 20
119.056
 11
1655.21
 21
119.09
  0
LINE
  8
0
 10
1655.21
 20
119.09
 11
1655.21
 21
119.124
  0
LINE
  8
0
 10
1655.21
 20
119.124
 11
1655.21
 21
119.158
  0
LINE
  8
0
 10
1655.21
 20
119.158
 11
1655.2
 21
119.192
  0
LINE
  8
0
 10
1655.2
 20
119.192
 11
1655.19
 21
119.225
  0
LINE
  8
0
 10
1655.19
 20
119.225
 11
1655.18
 21
119.256
  0
LINE
  8
0
 10
1655.18
 20
119.256
 11
1655.16
 21
119.287
  0
LINE
  8
0
 10
1655.16
 20
119.287
 11
1655.15
 21
119.315
  0
LINE
  8
0
 10
1655.15
 20
119.315
 11
1655.12
 21
119.342
  0
LINE
  8
0
 10
1655.12
 20
119.342
 11
1655.1
 21
119.366
  0
LINE
  8
0
 10
1655.1
 20
119.366
 11
1655.07
 21
119.387
  0
LINE
  8
0
 10
1655.07
 20
119.387
 11
1655.05
 21
119.406
  0
LINE
  8
0
 10
1655.05
 20
119.406
 11
1655.01
 21
119.421
  0
LINE
  8
0
 10
1655.01
 20
119.421
 11
1654.98
 21
119.434
  0
LINE
  8
0
 10
1654.98
 20
119.434
 11
1654.95
 21
119.442
  0
LINE
  8
0
 10
1654.95
 20
119.442
 11
1654.92
 21
119.448
  0
LINE
  8
0
 10
1654.92
 20
119.448
 11
1654.88
 21
119.45
  0
LINE
  8
0
 10
1654.88
 20
119.45
 11
1654.85
 21
119.448
  0
LINE
  8
0
 10
1654.85
 20
119.448
 11
1654.81
 21
119.442
  0
LINE
  8
0
 10
1654.81
 20
119.442
 11
1654.78
 21
119.434
  0
LINE
  8
0
 10
1654.78
 20
119.434
 11
1654.75
 21
119.421
  0
LINE
  8
0
 10
1654.75
 20
119.421
 11
1654.72
 21
119.406
  0
LINE
  8
0
 10
1654.72
 20
119.406
 11
1654.69
 21
119.387
  0
LINE
  8
0
 10
1654.69
 20
119.387
 11
1654.66
 21
119.366
  0
LINE
  8
0
 10
1654.66
 20
119.366
 11
1654.64
 21
119.342
  0
LINE
  8
0
 10
1654.64
 20
119.342
 11
1654.62
 21
119.315
  0
LINE
  8
0
 10
1654.62
 20
119.315
 11
1654.6
 21
119.287
  0
LINE
  8
0
 10
1654.6
 20
119.287
 11
1654.59
 21
119.256
  0
LINE
  8
0
 10
1654.59
 20
119.256
 11
1654.57
 21
119.225
  0
LINE
  8
0
 10
1654.57
 20
119.225
 11
1654.56
 21
119.192
  0
LINE
  8
0
 10
1654.56
 20
119.192
 11
1654.56
 21
119.158
  0
LINE
  8
0
 10
1654.56
 20
119.158
 11
1654.56
 21
119.124
  0
LINE
  8
0
 10
1654.56
 20
119.124
 11
1654.56
 21
119.09
  0
LINE
  8
0
 10
1654.56
 20
119.09
 11
1654.56
 21
119.056
  0
LINE
  8
0
 10
1654.56
 20
119.056
 11
1654.57
 21
119.023
  0
LINE
  8
0
 10
1654.57
 20
119.023
 11
1654.59
 21
118.992
  0
LINE
  8
0
 10
1654.59
 20
118.992
 11
1654.6
 21
118.961
  0
LINE
  8
0
 10
1654.6
 20
118.961
 11
1654.62
 21
118.933
  0
LINE
  8
0
 10
1654.62
 20
118.933
 11
1654.64
 21
118.906
  0
LINE
  8
0
 10
1654.64
 20
118.906
 11
1654.66
 21
118.882
  0
LINE
  8
0
 10
1654.66
 20
118.882
 11
1654.69
 21
118.861
  0
LINE
  8
0
 10
1654.69
 20
118.861
 11
1654.72
 21
118.842
  0
LINE
  8
0
 10
1654.72
 20
118.842
 11
1654.75
 21
118.827
  0
LINE
  8
0
 10
1654.75
 20
118.827
 11
1654.78
 21
118.814
  0
LINE
  8
0
 10
1654.78
 20
118.814
 11
1654.81
 21
118.806
  0
LINE
  8
0
 10
1654.81
 20
118.806
 11
1654.85
 21
118.8
  0
LINE
  8
0
 10
1654.85
 20
118.8
 11
1654.88
 21
118.799
  0
LINE
  8
0
 10
1654.88
 20
118.799
 11
1654.92
 21
118.8
  0
LINE
  8
0
 10
415.382
 20
89.6917
 11
415.414
 21
89.6968
  0
LINE
  8
0
 10
415.414
 20
89.6968
 11
415.446
 21
89.7052
  0
LINE
  8
0
 10
415.446
 20
89.7052
 11
415.476
 21
89.7168
  0
LINE
  8
0
 10
415.476
 20
89.7168
 11
415.505
 21
89.7315
  0
LINE
  8
0
 10
415.505
 20
89.7315
 11
415.532
 21
89.7492
  0
LINE
  8
0
 10
415.532
 20
89.7492
 11
415.557
 21
89.7696
  0
LINE
  8
0
 10
415.557
 20
89.7696
 11
415.58
 21
89.7926
  0
LINE
  8
0
 10
415.58
 20
89.7926
 11
415.601
 21
89.8178
  0
LINE
  8
0
 10
415.601
 20
89.8178
 11
415.618
 21
89.845
  0
LINE
  8
0
 10
415.618
 20
89.845
 11
415.633
 21
89.8739
  0
LINE
  8
0
 10
415.633
 20
89.8739
 11
415.645
 21
89.9042
  0
LINE
  8
0
 10
415.645
 20
89.9042
 11
415.653
 21
89.9355
  0
LINE
  8
0
 10
415.653
 20
89.9355
 11
415.658
 21
89.9676
  0
LINE
  8
0
 10
415.658
 20
89.9676
 11
415.66
 21
90
  0
LINE
  8
0
 10
415.66
 20
90
 11
415.658
 21
90.0324
  0
LINE
  8
0
 10
415.658
 20
90.0324
 11
415.653
 21
90.0645
  0
LINE
  8
0
 10
415.653
 20
90.0645
 11
415.645
 21
90.0958
  0
LINE
  8
0
 10
415.645
 20
90.0958
 11
415.633
 21
90.1261
  0
LINE
  8
0
 10
415.633
 20
90.1261
 11
415.618
 21
90.155
  0
LINE
  8
0
 10
415.618
 20
90.155
 11
415.601
 21
90.1822
  0
LINE
  8
0
 10
415.601
 20
90.1822
 11
415.58
 21
90.2074
  0
LINE
  8
0
 10
415.58
 20
90.2074
 11
415.557
 21
90.2304
  0
LINE
  8
0
 10
415.557
 20
90.2304
 11
415.532
 21
90.2508
  0
LINE
  8
0
 10
415.532
 20
90.2508
 11
415.505
 21
90.2685
  0
LINE
  8
0
 10
415.505
 20
90.2685
 11
415.476
 21
90.2832
  0
LINE
  8
0
 10
415.476
 20
90.2832
 11
415.446
 21
90.2948
  0
LINE
  8
0
 10
415.446
 20
90.2948
 11
415.414
 21
90.3032
  0
LINE
  8
0
 10
415.414
 20
90.3032
 11
415.382
 21
90.3083
  0
LINE
  8
0
 10
415.382
 20
90.3083
 11
415.35
 21
90.31
  0
LINE
  8
0
 10
415.35
 20
90.31
 11
415.318
 21
90.3083
  0
LINE
  8
0
 10
415.318
 20
90.3083
 11
415.286
 21
90.3032
  0
LINE
  8
0
 10
415.286
 20
90.3032
 11
415.254
 21
90.2948
  0
LINE
  8
0
 10
415.254
 20
90.2948
 11
415.224
 21
90.2832
  0
LINE
  8
0
 10
415.224
 20
90.2832
 11
415.195
 21
90.2685
  0
LINE
  8
0
 10
415.195
 20
90.2685
 11
415.168
 21
90.2508
  0
LINE
  8
0
 10
415.168
 20
90.2508
 11
415.143
 21
90.2304
  0
LINE
  8
0
 10
415.143
 20
90.2304
 11
415.12
 21
90.2074
  0
LINE
  8
0
 10
415.12
 20
90.2074
 11
415.099
 21
90.1822
  0
LINE
  8
0
 10
415.099
 20
90.1822
 11
415.082
 21
90.155
  0
LINE
  8
0
 10
415.082
 20
90.155
 11
415.067
 21
90.1261
  0
LINE
  8
0
 10
415.067
 20
90.1261
 11
415.055
 21
90.0958
  0
LINE
  8
0
 10
415.055
 20
90.0958
 11
415.047
 21
90.0645
  0
LINE
  8
0
 10
415.047
 20
90.0645
 11
415.042
 21
90.0324
  0
LINE
  8
0
 10
415.042
 20
90.0324
 11
415.04
 21
90
  0
LINE
  8
0
 10
415.04
 20
90
 11
415.042
 21
89.9676
  0
LINE
  8
0
 10
415.042
 20
89.9676
 11
415.047
 21
89.9355
  0
LINE
  8
0
 10
415.047
 20
89.9355
 11
415.055
 21
89.9042
  0
LINE
  8
0
 10
415.055
 20
89.9042
 11
415.067
 21
89.8739
  0
LINE
  8
0
 10
415.067
 20
89.8739
 11
415.082
 21
89.845
  0
LINE
  8
0
 10
415.082
 20
89.845
 11
415.099
 21
89.8178
  0
LINE
  8
0
 10
415.099
 20
89.8178
 11
415.12
 21
89.7926
  0
LINE
  8
0
 10
415.12
 20
89.7926
 11
415.143
 21
89.7696
  0
LINE
  8
0
 10
415.143
 20
89.7696
 11
415.168
 21
89.7492
  0
LINE
  8
0
 10
415.168
 20
89.7492
 11
415.195
 21
89.7315
  0
LINE
  8
0
 10
415.195
 20
89.7315
 11
415.224
 21
89.7168
  0
LINE
  8
0
 10
415.224
 20
89.7168
 11
415.254
 21
89.7052
  0
LINE
  8
0
 10
415.254
 20
89.7052
 11
415.286
 21
89.6968
  0
LINE
  8
0
 10
415.286
 20
89.6968
 11
415.318
 21
89.6917
  0
LINE
  8
0
 10
415.318
 20
89.6917
 11
415.35
 21
89.69
  0
LINE
  8
0
 10
415.35
 20
89.69
 11
415.382
 21
89.6917
  0
LINE
  8
0
 10
824.682
 20
89.6917
 11
824.714
 21
89.6968
  0
LINE
  8
0
 10
824.714
 20
89.6968
 11
824.746
 21
89.7052
  0
LINE
  8
0
 10
824.746
 20
89.7052
 11
824.776
 21
89.7168
  0
LINE
  8
0
 10
824.776
 20
89.7168
 11
824.805
 21
89.7315
  0
LINE
  8
0
 10
824.805
 20
89.7315
 11
824.832
 21
89.7492
  0
LINE
  8
0
 10
824.832
 20
89.7492
 11
824.857
 21
89.7696
  0
LINE
  8
0
 10
824.857
 20
89.7696
 11
824.88
 21
89.7926
  0
LINE
  8
0
 10
824.88
 20
89.7926
 11
824.901
 21
89.8178
  0
LINE
  8
0
 10
824.901
 20
89.8178
 11
824.918
 21
89.845
  0
LINE
  8
0
 10
824.918
 20
89.845
 11
824.933
 21
89.8739
  0
LINE
  8
0
 10
824.933
 20
89.8739
 11
824.945
 21
89.9042
  0
LINE
  8
0
 10
824.945
 20
89.9042
 11
824.953
 21
89.9355
  0
LINE
  8
0
 10
824.953
 20
89.9355
 11
824.958
 21
89.9676
  0
LINE
  8
0
 10
824.958
 20
89.9676
 11
824.96
 21
90
  0
LINE
  8
0
 10
824.96
 20
90
 11
824.958
 21
90.0324
  0
LINE
  8
0
 10
824.958
 20
90.0324
 11
824.953
 21
90.0645
  0
LINE
  8
0
 10
824.953
 20
90.0645
 11
824.945
 21
90.0958
  0
LINE
  8
0
 10
824.945
 20
90.0958
 11
824.933
 21
90.1261
  0
LINE
  8
0
 10
824.933
 20
90.1261
 11
824.918
 21
90.155
  0
LINE
  8
0
 10
824.918
 20
90.155
 11
824.901
 21
90.1822
  0
LINE
  8
0
 10
824.901
 20
90.1822
 11
824.88
 21
90.2074
  0
LINE
  8
0
 10
824.88
 20
90.2074
 11
824.857
 21
90.2304
  0
LINE
  8
0
 10
824.857
 20
90.2304
 11
824.832
 21
90.2508
  0
LINE
  8
0
 10
824.832
 20
90.2508
 11
824.805
 21
90.2685
  0
LINE
  8
0
 10
824.805
 20
90.2685
 11
824.776
 21
90.2832
  0
LINE
  8
0
 10
824.776
 20
90.2832
 11
824.746
 21
90.2948
  0
LINE
  8
0
 10
824.746
 20
90.2948
 11
824.714
 21
90.3032
  0
LINE
  8
0
 10
824.714
 20
90.3032
 11
824.682
 21
90.3083
  0
LINE
  8
0
 10
824.682
 20
90.3083
 11
824.65
 21
90.31
  0
LINE
  8
0
 10
824.65
 20
90.31
 11
824.618
 21
90.3083
  0
LINE
  8
0
 10
824.618
 20
90.3083
 11
824.586
 21
90.3032
  0
LINE
  8
0
 10
824.586
 20
90.3032
 11
824.554
 21
90.2948
  0
LINE
  8
0
 10
824.554
 20
90.2948
 11
824.524
 21
90.2832
  0
LINE
  8
0
 10
824.524
 20
90.2832
 11
824.495
 21
90.2685
  0
LINE
  8
0
 10
824.495
 20
90.2685
 11
824.468
 21
90.2508
  0
LINE
  8
0
 10
824.468
 20
90.2508
 11
824.443
 21
90.2304
  0
LINE
  8
0
 10
824.443
 20
90.2304
 11
824.42
 21
90.2074
  0
LINE
  8
0
 10
824.42
 20
90.2074
 11
824.399
 21
90.1822
  0
LINE
  8
0
 10
824.399
 20
90.1822
 11
824.382
 21
90.155
  0
LINE
  8
0
 10
824.382
 20
90.155
 11
824.367
 21
90.1261
  0
LINE
  8
0
 10
824.367
 20
90.1261
 11
824.355
 21
90.0958
  0
LINE
  8
0
 10
824.355
 20
90.0958
 11
824.347
 21
90.0645
  0
LINE
  8
0
 10
824.347
 20
90.0645
 11
824.342
 21
90.0324
  0
LINE
  8
0
 10
824.342
 20
90.0324
 11
824.34
 21
90
  0
LINE
  8
0
 10
824.34
 20
90
 11
824.342
 21
89.9676
  0
LINE
  8
0
 10
824.342
 20
89.9676
 11
824.347
 21
89.9355
  0
LINE
  8
0
 10
824.347
 20
89.9355
 11
824.355
 21
89.9042
  0
LINE
  8
0
 10
824.355
 20
89.9042
 11
824.367
 21
89.8739
  0
LINE
  8
0
 10
824.367
 20
89.8739
 11
824.382
 21
89.845
  0
LINE
  8
0
 10
824.382
 20
89.845
 11
824.399
 21
89.8178
  0
LINE
  8
0
 10
824.399
 20
89.8178
 11
824.42
 21
89.7926
  0
LINE
  8
0
 10
824.42
 20
89.7926
 11
824.443
 21
89.7696
  0
LINE
  8
0
 10
824.443
 20
89.7696
 11
824.468
 21
89.7492
  0
LINE
  8
0
 10
824.468
 20
89.7492
 11
824.495
 21
89.7315
  0
LINE
  8
0
 10
824.495
 20
89.7315
 11
824.524
 21
89.7168
  0
LINE
  8
0
 10
824.524
 20
89.7168
 11
824.554
 21
89.7052
  0
LINE
  8
0
 10
824.554
 20
89.7052
 11
824.586
 21
89.6968
  0
LINE
  8
0
 10
824.586
 20
89.6968
 11
824.618
 21
89.6917
  0
LINE
  8
0
 10
824.618
 20
89.6917
 11
824.65
 21
89.69
  0
LINE
  8
0
 10
824.65
 20
89.69
 11
824.682
 21
89.6917
  0
LINE
  8
0
 10
824.682
 20
49.6917
 11
824.714
 21
49.6968
  0
LINE
  8
0
 10
824.714
 20
49.6968
 11
824.746
 21
49.7052
  0
LINE
  8
0
 10
824.746
 20
49.7052
 11
824.776
 21
49.7168
  0
LINE
  8
0
 10
824.776
 20
49.7168
 11
824.805
 21
49.7315
  0
LINE
  8
0
 10
824.805
 20
49.7315
 11
824.832
 21
49.7492
  0
LINE
  8
0
 10
824.832
 20
49.7492
 11
824.857
 21
49.7696
  0
LINE
  8
0
 10
824.857
 20
49.7696
 11
824.88
 21
49.7926
  0
LINE
  8
0
 10
824.88
 20
49.7926
 11
824.901
 21
49.8178
  0
LINE
  8
0
 10
824.901
 20
49.8178
 11
824.918
 21
49.845
  0
LINE
  8
0
 10
824.918
 20
49.845
 11
824.933
 21
49.8739
  0
LINE
  8
0
 10
824.933
 20
49.8739
 11
824.945
 21
49.9042
  0
LINE
  8
0
 10
824.945
 20
49.9042
 11
824.953
 21
49.9355
  0
LINE
  8
0
 10
824.953
 20
49.9355
 11
824.958
 21
49.9676
  0
LINE
  8
0
 10
824.958
 20
49.9676
 11
824.96
 21
50
  0
LINE
  8
0
 10
824.96
 20
50
 11
824.958
 21
50.0324
  0
LINE
  8
0
 10
824.958
 20
50.0324
 11
824.953
 21
50.0645
  0
LINE
  8
0
 10
824.953
 20
50.0645
 11
824.945
 21
50.0958
  0
LINE
  8
0
 10
824.945
 20
50.0958
 11
824.933
 21
50.1261
  0
LINE
  8
0
 10
824.933
 20
50.1261
 11
824.918
 21
50.155
  0
LINE
  8
0
 10
824.918
 20
50.155
 11
824.901
 21
50.1822
  0
LINE
  8
0
 10
824.901
 20
50.1822
 11
824.88
 21
50.2074
  0
LINE
  8
0
 10
824.88
 20
50.2074
 11
824.857
 21
50.2304
  0
LINE
  8
0
 10
824.857
 20
50.2304
 11
824.832
 21
50.2508
  0
LINE
  8
0
 10
824.832
 20
50.2508
 11
824.805
 21
50.2685
  0
LINE
  8
0
 10
824.805
 20
50.2685
 11
824.776
 21
50.2832
  0
LINE
  8
0
 10
824.776
 20
50.2832
 11
824.746
 21
50.2948
  0
LINE
  8
0
 10
824.746
 20
50.2948
 11
824.714
 21
50.3032
  0
LINE
  8
0
 10
824.714
 20
50.3032
 11
824.682
 21
50.3083
  0
LINE
  8
0
 10
824.682
 20
50.3083
 11
824.65
 21
50.31
  0
LINE
  8
0
 10
824.65
 20
50.31
 11
824.618
 21
50.3083
  0
LINE
  8
0
 10
824.618
 20
50.3083
 11
824.586
 21
50.3032
  0
LINE
  8
0
 10
824.586
 20
50.3032
 11
824.554
 21
50.2948
  0
LINE
  8
0
 10
824.554
 20
50.2948
 11
824.524
 21
50.2832
  0
LINE
  8
0
 10
824.524
 20
50.2832
 11
824.495
 21
50.2685
  0
LINE
  8
0
 10
824.495
 20
50.2685
 11
824.468
 21
50.2508
  0
LINE
  8
0
 10
824.468
 20
50.2508
 11
824.443
 21
50.2304
  0
LINE
  8
0
 10
824.443
 20
50.2304
 11
824.42
 21
50.2074
  0
LINE
  8
0
 10
824.42
 20
50.2074
 11
824.399
 21
50.1822
  0
LINE
  8
0
 10
824.399
 20
50.1822
 11
824.382
 21
50.155
  0
LINE
  8
0
 10
824.382
 20
50.155
 11
824.367
 21
50.1261
  0
LINE
  8
0
 10
824.367
 20
50.1261
 11
824.355
 21
50.0958
  0
LINE
  8
0
 10
824.355
 20
50.0958
 11
824.347
 21
50.0645
  0
LINE
  8
0
 10
824.347
 20
50.0645
 11
824.342
 21
50.0324
  0
LINE
  8
0
 10
824.342
 20
50.0324
 11
824.34
 21
50
  0
LINE
  8
0
 10
824.34
 20
50
 11
824.342
 21
49.9676
  0
LINE
  8
0
 10
824.342
 20
49.9676
 11
824.347
 21
49.9355
  0
LINE
  8
0
 10
824.347
 20
49.9355
 11
824.355
 21
49.9042
  0
LINE
  8
0
 10
824.355
 20
49.9042
 11
824.367
 21
49.8739
  0
LINE
  8
0
 10
824.367
 20
49.8739
 11
824.382
 21
49.845
  0
LINE
  8
0
 10
824.382
 20
49.845
 11
824.399
 21
49.8178
  0
LINE
  8
0
 10
824.399
 20
49.8178
 11
824.42
 21
49.7926
  0
LINE
  8
0
 10
824.42
 20
49.7926
 11
824.443
 21
49.7696
  0
LINE
  8
0
 10
824.443
 20
49.7696
 11
824.468
 21
49.7492
  0
LINE
  8
0
 10
824.468
 20
49.7492
 11
824.495
 21
49.7315
  0
LINE
  8
0
 10
824.495
 20
49.7315
 11
824.524
 21
49.7168
  0
LINE
  8
0
 10
824.524
 20
49.7168
 11
824.554
 21
49.7052
  0
LINE
  8
0
 10
824.554
 20
49.7052
 11
824.586
 21
49.6968
  0
LINE
  8
0
 10
824.586
 20
49.6968
 11
824.618
 21
49.6917
  0
LINE
  8
0
 10
824.618
 20
49.6917
 11
824.65
 21
49.69
  0
LINE
  8
0
 10
824.65
 20
49.69
 11
824.682
 21
49.6917
  0
LINE
  8
0
 10
415.382
 20
49.6917
 11
415.414
 21
49.6968
  0
LINE
  8
0
 10
415.414
 20
49.6968
 11
415.446
 21
49.7052
  0
LINE
  8
0
 10
415.446
 20
49.7052
 11
415.476
 21
49.7168
  0
LINE
  8
0
 10
415.476
 20
49.7168
 11
415.505
 21
49.7315
  0
LINE
  8
0
 10
415.505
 20
49.7315
 11
415.532
 21
49.7492
  0
LINE
  8
0
 10
415.532
 20
49.7492
 11
415.557
 21
49.7696
  0
LINE
  8
0
 10
415.557
 20
49.7696
 11
415.58
 21
49.7926
  0
LINE
  8
0
 10
415.58
 20
49.7926
 11
415.601
 21
49.8178
  0
LINE
  8
0
 10
415.601
 20
49.8178
 11
415.618
 21
49.845
  0
LINE
  8
0
 10
415.618
 20
49.845
 11
415.633
 21
49.8739
  0
LINE
  8
0
 10
415.633
 20
49.8739
 11
415.645
 21
49.9042
  0
LINE
  8
0
 10
415.645
 20
49.9042
 11
415.653
 21
49.9355
  0
LINE
  8
0
 10
415.653
 20
49.9355
 11
415.658
 21
49.9676
  0
LINE
  8
0
 10
415.658
 20
49.9676
 11
415.66
 21
50
  0
LINE
  8
0
 10
415.66
 20
50
 11
415.658
 21
50.0324
  0
LINE
  8
0
 10
415.658
 20
50.0324
 11
415.653
 21
50.0645
  0
LINE
  8
0
 10
415.653
 20
50.0645
 11
415.645
 21
50.0958
  0
LINE
  8
0
 10
415.645
 20
50.0958
 11
415.633
 21
50.1261
  0
LINE
  8
0
 10
415.633
 20
50.1261
 11
415.618
 21
50.155
  0
LINE
  8
0
 10
415.618
 20
50.155
 11
415.601
 21
50.1822
  0
LINE
  8
0
 10
415.601
 20
50.1822
 11
415.58
 21
50.2074
  0
LINE
  8
0
 10
415.58
 20
50.2074
 11
415.557
 21
50.2304
  0
LINE
  8
0
 10
415.557
 20
50.2304
 11
415.532
 21
50.2508
  0
LINE
  8
0
 10
415.532
 20
50.2508
 11
415.505
 21
50.2685
  0
LINE
  8
0
 10
415.505
 20
50.2685
 11
415.476
 21
50.2832
  0
LINE
  8
0
 10
415.476
 20
50.2832
 11
415.446
 21
50.2948
  0
LINE
  8
0
 10
415.446
 20
50.2948
 11
415.414
 21
50.3032
  0
LINE
  8
0
 10
415.414
 20
50.3032
 11
415.382
 21
50.3083
  0
LINE
  8
0
 10
415.382
 20
50.3083
 11
415.35
 21
50.31
  0
LINE
  8
0
 10
415.35
 20
50.31
 11
415.318
 21
50.3083
  0
LINE
  8
0
 10
415.318
 20
50.3083
 11
415.286
 21
50.3032
  0
LINE
  8
0
 10
415.286
 20
50.3032
 11
415.254
 21
50.2948
  0
LINE
  8
0
 10
415.254
 20
50.2948
 11
415.224
 21
50.2832
  0
LINE
  8
0
 10
415.224
 20
50.2832
 11
415.195
 21
50.2685
  0
LINE
  8
0
 10
415.195
 20
50.2685
 11
415.168
 21
50.2508
  0
LINE
  8
0
 10
415.168
 20
50.2508
 11
415.143
 21
50.2304
  0
LINE
  8
0
 10
415.143
 20
50.2304
 11
415.12
 21
50.2074
  0
LINE
  8
0
 10
415.12
 20
50.2074
 11
415.099
 21
50.1822
  0
LINE
  8
0
 10
415.099
 20
50.1822
 11
415.082
 21
50.155
  0
LINE
  8
0
 10
415.082
 20
50.155
 11
415.067
 21
50.1261
  0
LINE
  8
0
 10
415.067
 20
50.1261
 11
415.055
 21
50.0958
  0
LINE
  8
0
 10
415.055
 20
50.0958
 11
415.047
 21
50.0645
  0
LINE
  8
0
 10
415.047
 20
50.0645
 11
415.042
 21
50.0324
  0
LINE
  8
0
 10
415.042
 20
50.0324
 11
415.04
 21
50
  0
LINE
  8
0
 10
415.04
 20
50
 11
415.042
 21
49.9676
  0
LINE
  8
0
 10
415.042
 20
49.9676
 11
415.047
 21
49.9355
  0
LINE
  8
0
 10
415.047
 20
49.9355
 11
415.055
 21
49.9042
  0
LINE
  8
0
 10
415.055
 20
49.9042
 11
415.067
 21
49.8739
  0
LINE
  8
0
 10
415.067
 20
49.8739
 11
415.082
 21
49.845
  0
LINE
  8
0
 10
415.082
 20
49.845
 11
415.099
 21
49.8178
  0
LINE
  8
0
 10
415.099
 20
49.8178
 11
415.12
 21
49.7926
  0
LINE
  8
0
 10
415.12
 20
49.7926
 11
415.143
 21
49.7696
  0
LINE
  8
0
 10
415.143
 20
49.7696
 11
415.168
 21
49.7492
  0
LINE
  8
0
 10
415.168
 20
49.7492
 11
415.195
 21
49.7315
  0
LINE
  8
0
 10
415.195
 20
49.7315
 11
415.224
 21
49.7168
  0
LINE
  8
0
 10
415.224
 20
49.7168
 11
415.254
 21
49.7052
  0
LINE
  8
0
 10
415.254
 20
49.7052
 11
415.286
 21
49.6968
  0
LINE
  8
0
 10
415.286
 20
49.6968
 11
415.318
 21
49.6917
  0
LINE
  8
0
 10
415.318
 20
49.6917
 11
415.35
 21
49.69
  0
LINE
  8
0
 10
415.35
 20
49.69
 11
415.382
 21
49.6917
  0
LINE
  8
0
 10
580.032
 20
5.04169
 11
580.064
 21
5.04677
  0
LINE
  8
0
 10
580.064
 20
5.04677
 11
580.096
 21
5.05516
  0
LINE
  8
0
 10
580.096
 20
5.05516
 11
580.126
 21
5.06679
  0
LINE
  8
0
 10
580.126
 20
5.06679
 11
580.155
 21
5.08153
  0
LINE
  8
0
 10
580.155
 20
5.08153
 11
580.182
 21
5.0992
  0
LINE
  8
0
 10
580.182
 20
5.0992
 11
580.207
 21
5.11961
  0
LINE
  8
0
 10
580.207
 20
5.11961
 11
580.23
 21
5.14256
  0
LINE
  8
0
 10
580.23
 20
5.14256
 11
580.251
 21
5.16779
  0
LINE
  8
0
 10
580.251
 20
5.16779
 11
580.268
 21
5.19499
  0
LINE
  8
0
 10
580.268
 20
5.19499
 11
580.283
 21
5.22391
  0
LINE
  8
0
 10
580.283
 20
5.22391
 11
580.295
 21
5.2542
  0
LINE
  8
0
 10
580.295
 20
5.2542
 11
580.303
 21
5.28554
  0
LINE
  8
0
 10
580.303
 20
5.28554
 11
580.308
 21
5.3176
  0
LINE
  8
0
 10
580.308
 20
5.3176
 11
580.31
 21
5.34999
  0
LINE
  8
0
 10
580.31
 20
5.34999
 11
580.308
 21
5.3824
  0
LINE
  8
0
 10
580.308
 20
5.3824
 11
580.303
 21
5.41444
  0
LINE
  8
0
 10
580.303
 20
5.41444
 11
580.295
 21
5.44579
  0
LINE
  8
0
 10
580.295
 20
5.44579
 11
580.283
 21
5.47607
  0
LINE
  8
0
 10
580.283
 20
5.47607
 11
580.268
 21
5.50499
  0
LINE
  8
0
 10
580.268
 20
5.50499
 11
580.251
 21
5.53221
  0
LINE
  8
0
 10
580.251
 20
5.53221
 11
580.23
 21
5.55742
  0
LINE
  8
0
 10
580.23
 20
5.55742
 11
580.207
 21
5.58037
  0
LINE
  8
0
 10
580.207
 20
5.58037
 11
580.182
 21
5.60078
  0
LINE
  8
0
 10
580.182
 20
5.60078
 11
580.155
 21
5.61845
  0
LINE
  8
0
 10
580.155
 20
5.61845
 11
580.126
 21
5.63319
  0
LINE
  8
0
 10
580.126
 20
5.63319
 11
580.096
 21
5.64482
  0
LINE
  8
0
 10
580.096
 20
5.64482
 11
580.064
 21
5.65321
  0
LINE
  8
0
 10
580.064
 20
5.65321
 11
580.032
 21
5.65829
  0
LINE
  8
0
 10
580.032
 20
5.65829
 11
580
 21
5.65999
  0
LINE
  8
0
 10
580
 20
5.65999
 11
579.968
 21
5.65829
  0
LINE
  8
0
 10
579.968
 20
5.65829
 11
579.936
 21
5.65321
  0
LINE
  8
0
 10
579.936
 20
5.65321
 11
579.904
 21
5.64482
  0
LINE
  8
0
 10
579.904
 20
5.64482
 11
579.874
 21
5.63319
  0
LINE
  8
0
 10
579.874
 20
5.63319
 11
579.845
 21
5.61845
  0
LINE
  8
0
 10
579.845
 20
5.61845
 11
579.818
 21
5.60078
  0
LINE
  8
0
 10
579.818
 20
5.60078
 11
579.793
 21
5.58037
  0
LINE
  8
0
 10
579.793
 20
5.58037
 11
579.77
 21
5.55742
  0
LINE
  8
0
 10
579.77
 20
5.55742
 11
579.749
 21
5.53221
  0
LINE
  8
0
 10
579.749
 20
5.53221
 11
579.732
 21
5.50499
  0
LINE
  8
0
 10
579.732
 20
5.50499
 11
579.717
 21
5.47607
  0
LINE
  8
0
 10
579.717
 20
5.47607
 11
579.705
 21
5.44579
  0
LINE
  8
0
 10
579.705
 20
5.44579
 11
579.697
 21
5.41444
  0
LINE
  8
0
 10
579.697
 20
5.41444
 11
579.692
 21
5.3824
  0
LINE
  8
0
 10
579.692
 20
5.3824
 11
579.69
 21
5.34999
  0
LINE
  8
0
 10
579.69
 20
5.34999
 11
579.692
 21
5.3176
  0
LINE
  8
0
 10
579.692
 20
5.3176
 11
579.697
 21
5.28554
  0
LINE
  8
0
 10
579.697
 20
5.28554
 11
579.705
 21
5.2542
  0
LINE
  8
0
 10
579.705
 20
5.2542
 11
579.717
 21
5.22391
  0
LINE
  8
0
 10
579.717
 20
5.22391
 11
579.732
 21
5.19499
  0
LINE
  8
0
 10
579.732
 20
5.19499
 11
579.749
 21
5.16779
  0
LINE
  8
0
 10
579.749
 20
5.16779
 11
579.77
 21
5.14256
  0
LINE
  8
0
 10
579.77
 20
5.14256
 11
579.793
 21
5.11961
  0
LINE
  8
0
 10
579.793
 20
5.11961
 11
579.818
 21
5.0992
  0
LINE
  8
0
 10
579.818
 20
5.0992
 11
579.845
 21
5.08153
  0
LINE
  8
0
 10
579.845
 20
5.08153
 11
579.874
 21
5.06679
  0
LINE
  8
0
 10
579.874
 20
5.06679
 11
579.904
 21
5.05516
  0
LINE
  8
0
 10
579.904
 20
5.05516
 11
579.936
 21
5.04677
  0
LINE
  8
0
 10
579.936
 20
5.04677
 11
579.968
 21
5.04169
  0
LINE
  8
0
 10
579.968
 20
5.04169
 11
580
 21
5.03999
  0
LINE
  8
0
 10
580
 20
5.03999
 11
580.032
 21
5.04169
  0
LINE
  8
0
 10
1160.03
 20
5.04169
 11
1160.06
 21
5.04677
  0
LINE
  8
0
 10
1160.06
 20
5.04677
 11
1160.1
 21
5.05516
  0
LINE
  8
0
 10
1160.1
 20
5.05516
 11
1160.13
 21
5.06679
  0
LINE
  8
0
 10
1160.13
 20
5.06679
 11
1160.16
 21
5.08153
  0
LINE
  8
0
 10
1160.16
 20
5.08153
 11
1160.18
 21
5.0992
  0
LINE
  8
0
 10
1160.18
 20
5.0992
 11
1160.21
 21
5.11961
  0
LINE
  8
0
 10
1160.21
 20
5.11961
 11
1160.23
 21
5.14256
  0
LINE
  8
0
 10
1160.23
 20
5.14256
 11
1160.25
 21
5.16779
  0
LINE
  8
0
 10
1160.25
 20
5.16779
 11
1160.27
 21
5.19499
  0
LINE
  8
0
 10
1160.27
 20
5.19499
 11
1160.28
 21
5.22391
  0
LINE
  8
0
 10
1160.28
 20
5.22391
 11
1160.29
 21
5.2542
  0
LINE
  8
0
 10
1160.29
 20
5.2542
 11
1160.3
 21
5.28554
  0
LINE
  8
0
 10
1160.3
 20
5.28554
 11
1160.31
 21
5.3176
  0
LINE
  8
0
 10
1160.31
 20
5.3176
 11
1160.31
 21
5.34999
  0
LINE
  8
0
 10
1160.31
 20
5.34999
 11
1160.31
 21
5.3824
  0
LINE
  8
0
 10
1160.31
 20
5.3824
 11
1160.3
 21
5.41444
  0
LINE
  8
0
 10
1160.3
 20
5.41444
 11
1160.29
 21
5.44579
  0
LINE
  8
0
 10
1160.29
 20
5.44579
 11
1160.28
 21
5.47607
  0
LINE
  8
0
 10
1160.28
 20
5.47607
 11
1160.27
 21
5.50499
  0
LINE
  8
0
 10
1160.27
 20
5.50499
 11
1160.25
 21
5.53221
  0
LINE
  8
0
 10
1160.25
 20
5.53221
 11
1160.23
 21
5.55742
  0
LINE
  8
0
 10
1160.23
 20
5.55742
 11
1160.21
 21
5.58037
  0
LINE
  8
0
 10
1160.21
 20
5.58037
 11
1160.18
 21
5.60078
  0
LINE
  8
0
 10
1160.18
 20
5.60078
 11
1160.16
 21
5.61845
  0
LINE
  8
0
 10
1160.16
 20
5.61845
 11
1160.13
 21
5.63319
  0
LINE
  8
0
 10
1160.13
 20
5.63319
 11
1160.1
 21
5.64482
  0
LINE
  8
0
 10
1160.1
 20
5.64482
 11
1160.06
 21
5.65321
  0
LINE
  8
0
 10
1160.06
 20
5.65321
 11
1160.03
 21
5.65829
  0
LINE
  8
0
 10
1160.03
 20
5.65829
 11
1160
 21
5.65999
  0
LINE
  8
0
 10
1160
 20
5.65999
 11
1159.97
 21
5.65829
  0
LINE
  8
0
 10
1159.97
 20
5.65829
 11
1159.94
 21
5.65321
  0
LINE
  8
0
 10
1159.94
 20
5.65321
 11
1159.9
 21
5.64482
  0
LINE
  8
0
 10
1159.9
 20
5.64482
 11
1159.87
 21
5.63319
  0
LINE
  8
0
 10
1159.87
 20
5.63319
 11
1159.84
 21
5.61845
  0
LINE
  8
0
 10
1159.84
 20
5.61845
 11
1159.82
 21
5.60078
  0
LINE
  8
0
 10
1159.82
 20
5.60078
 11
1159.79
 21
5.58037
  0
LINE
  8
0
 10
1159.79
 20
5.58037
 11
1159.77
 21
5.55742
  0
LINE
  8
0
 10
1159.77
 20
5.55742
 11
1159.75
 21
5.53221
  0
LINE
  8
0
 10
1159.75
 20
5.53221
 11
1159.73
 21
5.50499
  0
LINE
  8
0
 10
1159.73
 20
5.50499
 11
1159.72
 21
5.47607
  0
LINE
  8
0
 10
1159.72
 20
5.47607
 11
1159.71
 21
5.44579
  0
LINE
  8
0
 10
1159.71
 20
5.44579
 11
1159.7
 21
5.41444
  0
LINE
  8
0
 10
1159.7
 20
5.41444
 11
1159.69
 21
5.3824
  0
LINE
  8
0
 10
1159.69
 20
5.3824
 11
1159.69
 21
5.34999
  0
LINE
  8
0
 10
1159.69
 20
5.34999
 11
1159.69
 21
5.3176
  0
LINE
  8
0
 10
1159.69
 20
5.3176
 11
1159.7
 21
5.28554
  0
LINE
  8
0
 10
1159.7
 20
5.28554
 11
1159.71
 21
5.2542
  0
LINE
  8
0
 10
1159.71
 20
5.2542
 11
1159.72
 21
5.22391
  0
LINE
  8
0
 10
1159.72
 20
5.22391
 11
1159.73
 21
5.19499
  0
LINE
  8
0
 10
1159.73
 20
5.19499
 11
1159.75
 21
5.16779
  0
LINE
  8
0
 10
1159.75
 20
5.16779
 11
1159.77
 21
5.14256
  0
LINE
  8
0
 10
1159.77
 20
5.14256
 11
1159.79
 21
5.11961
  0
LINE
  8
0
 10
1159.79
 20
5.11961
 11
1159.82
 21
5.0992
  0
LINE
  8
0
 10
1159.82
 20
5.0992
 11
1159.84
 21
5.08153
  0
LINE
  8
0
 10
1159.84
 20
5.08153
 11
1159.87
 21
5.06679
  0
LINE
  8
0
 10
1159.87
 20
5.06679
 11
1159.9
 21
5.05516
  0
LINE
  8
0
 10
1159.9
 20
5.05516
 11
1159.94
 21
5.04677
  0
LINE
  8
0
 10
1159.94
 20
5.04677
 11
1159.97
 21
5.04169
  0
LINE
  8
0
 10
1159.97
 20
5.04169
 11
1160
 21
5.03999
  0
LINE
  8
0
 10
1160
 20
5.03999
 11
1160.03
 21
5.04169
  0
LINE
  8
0
 10
1080.03
 20
5.04169
 11
1080.06
 21
5.04677
  0
LINE
  8
0
 10
1080.06
 20
5.04677
 11
1080.1
 21
5.05516
  0
LINE
  8
0
 10
1080.1
 20
5.05516
 11
1080.13
 21
5.06679
  0
LINE
  8
0
 10
1080.13
 20
5.06679
 11
1080.16
 21
5.08153
  0
LINE
  8
0
 10
1080.16
 20
5.08153
 11
1080.18
 21
5.0992
  0
LINE
  8
0
 10
1080.18
 20
5.0992
 11
1080.21
 21
5.11961
  0
LINE
  8
0
 10
1080.21
 20
5.11961
 11
1080.23
 21
5.14256
  0
LINE
  8
0
 10
1080.23
 20
5.14256
 11
1080.25
 21
5.16779
  0
LINE
  8
0
 10
1080.25
 20
5.16779
 11
1080.27
 21
5.19499
  0
LINE
  8
0
 10
1080.27
 20
5.19499
 11
1080.28
 21
5.22391
  0
LINE
  8
0
 10
1080.28
 20
5.22391
 11
1080.29
 21
5.2542
  0
LINE
  8
0
 10
1080.29
 20
5.2542
 11
1080.3
 21
5.28554
  0
LINE
  8
0
 10
1080.3
 20
5.28554
 11
1080.31
 21
5.3176
  0
LINE
  8
0
 10
1080.31
 20
5.3176
 11
1080.31
 21
5.34999
  0
LINE
  8
0
 10
1080.31
 20
5.34999
 11
1080.31
 21
5.3824
  0
LINE
  8
0
 10
1080.31
 20
5.3824
 11
1080.3
 21
5.41444
  0
LINE
  8
0
 10
1080.3
 20
5.41444
 11
1080.29
 21
5.44579
  0
LINE
  8
0
 10
1080.29
 20
5.44579
 11
1080.28
 21
5.47607
  0
LINE
  8
0
 10
1080.28
 20
5.47607
 11
1080.27
 21
5.50499
  0
LINE
  8
0
 10
1080.27
 20
5.50499
 11
1080.25
 21
5.53221
  0
LINE
  8
0
 10
1080.25
 20
5.53221
 11
1080.23
 21
5.55742
  0
LINE
  8
0
 10
1080.23
 20
5.55742
 11
1080.21
 21
5.58037
  0
LINE
  8
0
 10
1080.21
 20
5.58037
 11
1080.18
 21
5.60078
  0
LINE
  8
0
 10
1080.18
 20
5.60078
 11
1080.16
 21
5.61845
  0
LINE
  8
0
 10
1080.16
 20
5.61845
 11
1080.13
 21
5.63319
  0
LINE
  8
0
 10
1080.13
 20
5.63319
 11
1080.1
 21
5.64482
  0
LINE
  8
0
 10
1080.1
 20
5.64482
 11
1080.06
 21
5.65321
  0
LINE
  8
0
 10
1080.06
 20
5.65321
 11
1080.03
 21
5.65829
  0
LINE
  8
0
 10
1080.03
 20
5.65829
 11
1080
 21
5.65999
  0
LINE
  8
0
 10
1080
 20
5.65999
 11
1079.97
 21
5.65829
  0
LINE
  8
0
 10
1079.97
 20
5.65829
 11
1079.94
 21
5.65321
  0
LINE
  8
0
 10
1079.94
 20
5.65321
 11
1079.9
 21
5.64482
  0
LINE
  8
0
 10
1079.9
 20
5.64482
 11
1079.87
 21
5.63319
  0
LINE
  8
0
 10
1079.87
 20
5.63319
 11
1079.84
 21
5.61845
  0
LINE
  8
0
 10
1079.84
 20
5.61845
 11
1079.82
 21
5.60078
  0
LINE
  8
0
 10
1079.82
 20
5.60078
 11
1079.79
 21
5.58037
  0
LINE
  8
0
 10
1079.79
 20
5.58037
 11
1079.77
 21
5.55742
  0
LINE
  8
0
 10
1079.77
 20
5.55742
 11
1079.75
 21
5.53221
  0
LINE
  8
0
 10
1079.75
 20
5.53221
 11
1079.73
 21
5.50499
  0
LINE
  8
0
 10
1079.73
 20
5.50499
 11
1079.72
 21
5.47607
  0
LINE
  8
0
 10
1079.72
 20
5.47607
 11
1079.71
 21
5.44579
  0
LINE
  8
0
 10
1079.71
 20
5.44579
 11
1079.7
 21
5.41444
  0
LINE
  8
0
 10
1079.7
 20
5.41444
 11
1079.69
 21
5.3824
  0
LINE
  8
0
 10
1079.69
 20
5.3824
 11
1079.69
 21
5.34999
  0
LINE
  8
0
 10
1079.69
 20
5.34999
 11
1079.69
 21
5.3176
  0
LINE
  8
0
 10
1079.69
 20
5.3176
 11
1079.7
 21
5.28554
  0
LINE
  8
0
 10
1079.7
 20
5.28554
 11
1079.71
 21
5.2542
  0
LINE
  8
0
 10
1079.71
 20
5.2542
 11
1079.72
 21
5.22391
  0
LINE
  8
0
 10
1079.72
 20
5.22391
 11
1079.73
 21
5.19499
  0
LINE
  8
0
 10
1079.73
 20
5.19499
 11
1079.75
 21
5.16779
  0
LINE
  8
0
 10
1079.75
 20
5.16779
 11
1079.77
 21
5.14256
  0
LINE
  8
0
 10
1079.77
 20
5.14256
 11
1079.79
 21
5.11961
  0
LINE
  8
0
 10
1079.79
 20
5.11961
 11
1079.82
 21
5.0992
  0
LINE
  8
0
 10
1079.82
 20
5.0992
 11
1079.84
 21
5.08153
  0
LINE
  8
0
 10
1079.84
 20
5.08153
 11
1079.87
 21
5.06679
  0
LINE
  8
0
 10
1079.87
 20
5.06679
 11
1079.9
 21
5.05516
  0
LINE
  8
0
 10
1079.9
 20
5.05516
 11
1079.94
 21
5.04677
  0
LINE
  8
0
 10
1079.94
 20
5.04677
 11
1079.97
 21
5.04169
  0
LINE
  8
0
 10
1079.97
 20
5.04169
 11
1080
 21
5.03999
  0
LINE
  8
0
 10
1080
 20
5.03999
 11
1080.03
 21
5.04169
  0
LINE
  8
0
 10
500.032
 20
5.04169
 11
500.064
 21
5.04677
  0
LINE
  8
0
 10
500.064
 20
5.04677
 11
500.096
 21
5.05516
  0
LINE
  8
0
 10
500.096
 20
5.05516
 11
500.126
 21
5.06679
  0
LINE
  8
0
 10
500.126
 20
5.06679
 11
500.155
 21
5.08153
  0
LINE
  8
0
 10
500.155
 20
5.08153
 11
500.182
 21
5.0992
  0
LINE
  8
0
 10
500.182
 20
5.0992
 11
500.207
 21
5.11961
  0
LINE
  8
0
 10
500.207
 20
5.11961
 11
500.23
 21
5.14256
  0
LINE
  8
0
 10
500.23
 20
5.14256
 11
500.251
 21
5.16779
  0
LINE
  8
0
 10
500.251
 20
5.16779
 11
500.268
 21
5.19499
  0
LINE
  8
0
 10
500.268
 20
5.19499
 11
500.283
 21
5.22391
  0
LINE
  8
0
 10
500.283
 20
5.22391
 11
500.295
 21
5.2542
  0
LINE
  8
0
 10
500.295
 20
5.2542
 11
500.303
 21
5.28554
  0
LINE
  8
0
 10
500.303
 20
5.28554
 11
500.308
 21
5.3176
  0
LINE
  8
0
 10
500.308
 20
5.3176
 11
500.31
 21
5.34999
  0
LINE
  8
0
 10
500.31
 20
5.34999
 11
500.308
 21
5.3824
  0
LINE
  8
0
 10
500.308
 20
5.3824
 11
500.303
 21
5.41444
  0
LINE
  8
0
 10
500.303
 20
5.41444
 11
500.295
 21
5.44579
  0
LINE
  8
0
 10
500.295
 20
5.44579
 11
500.283
 21
5.47607
  0
LINE
  8
0
 10
500.283
 20
5.47607
 11
500.268
 21
5.50499
  0
LINE
  8
0
 10
500.268
 20
5.50499
 11
500.251
 21
5.53221
  0
LINE
  8
0
 10
500.251
 20
5.53221
 11
500.23
 21
5.55742
  0
LINE
  8
0
 10
500.23
 20
5.55742
 11
500.207
 21
5.58037
  0
LINE
  8
0
 10
500.207
 20
5.58037
 11
500.182
 21
5.60078
  0
LINE
  8
0
 10
500.182
 20
5.60078
 11
500.155
 21
5.61845
  0
LINE
  8
0
 10
500.155
 20
5.61845
 11
500.126
 21
5.63319
  0
LINE
  8
0
 10
500.126
 20
5.63319
 11
500.096
 21
5.64482
  0
LINE
  8
0
 10
500.096
 20
5.64482
 11
500.064
 21
5.65321
  0
LINE
  8
0
 10
500.064
 20
5.65321
 11
500.032
 21
5.65829
  0
LINE
  8
0
 10
500.032
 20
5.65829
 11
500
 21
5.65999
  0
LINE
  8
0
 10
500
 20
5.65999
 11
499.968
 21
5.65829
  0
LINE
  8
0
 10
499.968
 20
5.65829
 11
499.936
 21
5.65321
  0
LINE
  8
0
 10
499.936
 20
5.65321
 11
499.904
 21
5.64482
  0
LINE
  8
0
 10
499.904
 20
5.64482
 11
499.874
 21
5.63319
  0
LINE
  8
0
 10
499.874
 20
5.63319
 11
499.845
 21
5.61845
  0
LINE
  8
0
 10
499.845
 20
5.61845
 11
499.818
 21
5.60078
  0
LINE
  8
0
 10
499.818
 20
5.60078
 11
499.793
 21
5.58037
  0
LINE
  8
0
 10
499.793
 20
5.58037
 11
499.77
 21
5.55742
  0
LINE
  8
0
 10
499.77
 20
5.55742
 11
499.749
 21
5.53221
  0
LINE
  8
0
 10
499.749
 20
5.53221
 11
499.732
 21
5.50499
  0
LINE
  8
0
 10
499.732
 20
5.50499
 11
499.717
 21
5.47607
  0
LINE
  8
0
 10
499.717
 20
5.47607
 11
499.705
 21
5.44579
  0
LINE
  8
0
 10
499.705
 20
5.44579
 11
499.697
 21
5.41444
  0
LINE
  8
0
 10
499.697
 20
5.41444
 11
499.692
 21
5.3824
  0
LINE
  8
0
 10
499.692
 20
5.3824
 11
499.69
 21
5.34999
  0
LINE
  8
0
 10
499.69
 20
5.34999
 11
499.692
 21
5.3176
  0
LINE
  8
0
 10
499.692
 20
5.3176
 11
499.697
 21
5.28554
  0
LINE
  8
0
 10
499.697
 20
5.28554
 11
499.705
 21
5.2542
  0
LINE
  8
0
 10
499.705
 20
5.2542
 11
499.717
 21
5.22391
  0
LINE
  8
0
 10
499.717
 20
5.22391
 11
499.732
 21
5.19499
  0
LINE
  8
0
 10
499.732
 20
5.19499
 11
499.749
 21
5.16779
  0
LINE
  8
0
 10
499.749
 20
5.16779
 11
499.77
 21
5.14256
  0
LINE
  8
0
 10
499.77
 20
5.14256
 11
499.793
 21
5.11961
  0
LINE
  8
0
 10
499.793
 20
5.11961
 11
499.818
 21
5.0992
  0
LINE
  8
0
 10
499.818
 20
5.0992
 11
499.845
 21
5.08153
  0
LINE
  8
0
 10
499.845
 20
5.08153
 11
499.874
 21
5.06679
  0
LINE
  8
0
 10
499.874
 20
5.06679
 11
499.904
 21
5.05516
  0
LINE
  8
0
 10
499.904
 20
5.05516
 11
499.936
 21
5.04677
  0
LINE
  8
0
 10
499.936
 20
5.04677
 11
499.968
 21
5.04169
  0
LINE
  8
0
 10
499.968
 20
5.04169
 11
500
 21
5.03999
  0
LINE
  8
0
 10
500
 20
5.03999
 11
500.032
 21
5.04169
  0
LINE
  8
0
 10
950.032
 20
5.04169
 11
950.064
 21
5.04677
  0
LINE
  8
0
 10
950.064
 20
5.04677
 11
950.096
 21
5.05516
  0
LINE
  8
0
 10
950.096
 20
5.05516
 11
950.126
 21
5.06679
  0
LINE
  8
0
 10
950.126
 20
5.06679
 11
950.155
 21
5.08153
  0
LINE
  8
0
 10
950.155
 20
5.08153
 11
950.182
 21
5.0992
  0
LINE
  8
0
 10
950.182
 20
5.0992
 11
950.207
 21
5.11961
  0
LINE
  8
0
 10
950.207
 20
5.11961
 11
950.23
 21
5.14256
  0
LINE
  8
0
 10
950.23
 20
5.14256
 11
950.251
 21
5.16779
  0
LINE
  8
0
 10
950.251
 20
5.16779
 11
950.268
 21
5.19499
  0
LINE
  8
0
 10
950.268
 20
5.19499
 11
950.283
 21
5.22391
  0
LINE
  8
0
 10
950.283
 20
5.22391
 11
950.295
 21
5.2542
  0
LINE
  8
0
 10
950.295
 20
5.2542
 11
950.303
 21
5.28554
  0
LINE
  8
0
 10
950.303
 20
5.28554
 11
950.308
 21
5.3176
  0
LINE
  8
0
 10
950.308
 20
5.3176
 11
950.31
 21
5.34999
  0
LINE
  8
0
 10
950.31
 20
5.34999
 11
950.308
 21
5.3824
  0
LINE
  8
0
 10
950.308
 20
5.3824
 11
950.303
 21
5.41444
  0
LINE
  8
0
 10
950.303
 20
5.41444
 11
950.295
 21
5.44579
  0
LINE
  8
0
 10
950.295
 20
5.44579
 11
950.283
 21
5.47607
  0
LINE
  8
0
 10
950.283
 20
5.47607
 11
950.268
 21
5.50499
  0
LINE
  8
0
 10
950.268
 20
5.50499
 11
950.251
 21
5.53221
  0
LINE
  8
0
 10
950.251
 20
5.53221
 11
950.23
 21
5.55742
  0
LINE
  8
0
 10
950.23
 20
5.55742
 11
950.207
 21
5.58037
  0
LINE
  8
0
 10
950.207
 20
5.58037
 11
950.182
 21
5.60078
  0
LINE
  8
0
 10
950.182
 20
5.60078
 11
950.155
 21
5.61845
  0
LINE
  8
0
 10
950.155
 20
5.61845
 11
950.126
 21
5.63319
  0
LINE
  8
0
 10
950.126
 20
5.63319
 11
950.096
 21
5.64482
  0
LINE
  8
0
 10
950.096
 20
5.64482
 11
950.064
 21
5.65321
  0
LINE
  8
0
 10
950.064
 20
5.65321
 11
950.032
 21
5.65829
  0
LINE
  8
0
 10
950.032
 20
5.65829
 11
950
 21
5.65999
  0
LINE
  8
0
 10
950
 20
5.65999
 11
949.968
 21
5.65829
  0
LINE
  8
0
 10
949.968
 20
5.65829
 11
949.936
 21
5.65321
  0
LINE
  8
0
 10
949.936
 20
5.65321
 11
949.904
 21
5.64482
  0
LINE
  8
0
 10
949.904
 20
5.64482
 11
949.874
 21
5.63319
  0
LINE
  8
0
 10
949.874
 20
5.63319
 11
949.845
 21
5.61845
  0
LINE
  8
0
 10
949.845
 20
5.61845
 11
949.818
 21
5.60078
  0
LINE
  8
0
 10
949.818
 20
5.60078
 11
949.793
 21
5.58037
  0
LINE
  8
0
 10
949.793
 20
5.58037
 11
949.77
 21
5.55742
  0
LINE
  8
0
 10
949.77
 20
5.55742
 11
949.749
 21
5.53221
  0
LINE
  8
0
 10
949.749
 20
5.53221
 11
949.732
 21
5.50499
  0
LINE
  8
0
 10
949.732
 20
5.50499
 11
949.717
 21
5.47607
  0
LINE
  8
0
 10
949.717
 20
5.47607
 11
949.705
 21
5.44579
  0
LINE
  8
0
 10
949.705
 20
5.44579
 11
949.697
 21
5.41444
  0
LINE
  8
0
 10
949.697
 20
5.41444
 11
949.692
 21
5.3824
  0
LINE
  8
0
 10
949.692
 20
5.3824
 11
949.69
 21
5.34999
  0
LINE
  8
0
 10
949.69
 20
5.34999
 11
949.692
 21
5.3176
  0
LINE
  8
0
 10
949.692
 20
5.3176
 11
949.697
 21
5.28554
  0
LINE
  8
0
 10
949.697
 20
5.28554
 11
949.705
 21
5.2542
  0
LINE
  8
0
 10
949.705
 20
5.2542
 11
949.717
 21
5.22391
  0
LINE
  8
0
 10
949.717
 20
5.22391
 11
949.732
 21
5.19499
  0
LINE
  8
0
 10
949.732
 20
5.19499
 11
949.749
 21
5.16779
  0
LINE
  8
0
 10
949.749
 20
5.16779
 11
949.77
 21
5.14256
  0
LINE
  8
0
 10
949.77
 20
5.14256
 11
949.793
 21
5.11961
  0
LINE
  8
0
 10
949.793
 20
5.11961
 11
949.818
 21
5.0992
  0
LINE
  8
0
 10
949.818
 20
5.0992
 11
949.845
 21
5.08153
  0
LINE
  8
0
 10
949.845
 20
5.08153
 11
949.874
 21
5.06679
  0
LINE
  8
0
 10
949.874
 20
5.06679
 11
949.904
 21
5.05516
  0
LINE
  8
0
 10
949.904
 20
5.05516
 11
949.936
 21
5.04677
  0
LINE
  8
0
 10
949.936
 20
5.04677
 11
949.968
 21
5.04169
  0
LINE
  8
0
 10
949.968
 20
5.04169
 11
950
 21
5.03999
  0
LINE
  8
0
 10
950
 20
5.03999
 11
950.032
 21
5.04169
  0
LINE
  8
0
 10
910.032
 20
5.04169
 11
910.064
 21
5.04677
  0
LINE
  8
0
 10
910.064
 20
5.04677
 11
910.096
 21
5.05516
  0
LINE
  8
0
 10
910.096
 20
5.05516
 11
910.126
 21
5.06679
  0
LINE
  8
0
 10
910.126
 20
5.06679
 11
910.155
 21
5.08153
  0
LINE
  8
0
 10
910.155
 20
5.08153
 11
910.182
 21
5.0992
  0
LINE
  8
0
 10
910.182
 20
5.0992
 11
910.207
 21
5.11961
  0
LINE
  8
0
 10
910.207
 20
5.11961
 11
910.23
 21
5.14256
  0
LINE
  8
0
 10
910.23
 20
5.14256
 11
910.251
 21
5.16779
  0
LINE
  8
0
 10
910.251
 20
5.16779
 11
910.268
 21
5.19499
  0
LINE
  8
0
 10
910.268
 20
5.19499
 11
910.283
 21
5.22391
  0
LINE
  8
0
 10
910.283
 20
5.22391
 11
910.295
 21
5.2542
  0
LINE
  8
0
 10
910.295
 20
5.2542
 11
910.303
 21
5.28554
  0
LINE
  8
0
 10
910.303
 20
5.28554
 11
910.308
 21
5.3176
  0
LINE
  8
0
 10
910.308
 20
5.3176
 11
910.31
 21
5.34999
  0
LINE
  8
0
 10
910.31
 20
5.34999
 11
910.308
 21
5.3824
  0
LINE
  8
0
 10
910.308
 20
5.3824
 11
910.303
 21
5.41444
  0
LINE
  8
0
 10
910.303
 20
5.41444
 11
910.295
 21
5.44579
  0
LINE
  8
0
 10
910.295
 20
5.44579
 11
910.283
 21
5.47607
  0
LINE
  8
0
 10
910.283
 20
5.47607
 11
910.268
 21
5.50499
  0
LINE
  8
0
 10
910.268
 20
5.50499
 11
910.251
 21
5.53221
  0
LINE
  8
0
 10
910.251
 20
5.53221
 11
910.23
 21
5.55742
  0
LINE
  8
0
 10
910.23
 20
5.55742
 11
910.207
 21
5.58037
  0
LINE
  8
0
 10
910.207
 20
5.58037
 11
910.182
 21
5.60078
  0
LINE
  8
0
 10
910.182
 20
5.60078
 11
910.155
 21
5.61845
  0
LINE
  8
0
 10
910.155
 20
5.61845
 11
910.126
 21
5.63319
  0
LINE
  8
0
 10
910.126
 20
5.63319
 11
910.096
 21
5.64482
  0
LINE
  8
0
 10
910.096
 20
5.64482
 11
910.064
 21
5.65321
  0
LINE
  8
0
 10
910.064
 20
5.65321
 11
910.032
 21
5.65829
  0
LINE
  8
0
 10
910.032
 20
5.65829
 11
910
 21
5.65999
  0
LINE
  8
0
 10
910
 20
5.65999
 11
909.968
 21
5.65829
  0
LINE
  8
0
 10
909.968
 20
5.65829
 11
909.936
 21
5.65321
  0
LINE
  8
0
 10
909.936
 20
5.65321
 11
909.904
 21
5.64482
  0
LINE
  8
0
 10
909.904
 20
5.64482
 11
909.874
 21
5.63319
  0
LINE
  8
0
 10
909.874
 20
5.63319
 11
909.845
 21
5.61845
  0
LINE
  8
0
 10
909.845
 20
5.61845
 11
909.818
 21
5.60078
  0
LINE
  8
0
 10
909.818
 20
5.60078
 11
909.793
 21
5.58037
  0
LINE
  8
0
 10
909.793
 20
5.58037
 11
909.77
 21
5.55742
  0
LINE
  8
0
 10
909.77
 20
5.55742
 11
909.749
 21
5.53221
  0
LINE
  8
0
 10
909.749
 20
5.53221
 11
909.732
 21
5.50499
  0
LINE
  8
0
 10
909.732
 20
5.50499
 11
909.717
 21
5.47607
  0
LINE
  8
0
 10
909.717
 20
5.47607
 11
909.705
 21
5.44579
  0
LINE
  8
0
 10
909.705
 20
5.44579
 11
909.697
 21
5.41444
  0
LINE
  8
0
 10
909.697
 20
5.41444
 11
909.692
 21
5.3824
  0
LINE
  8
0
 10
909.692
 20
5.3824
 11
909.69
 21
5.34999
  0
LINE
  8
0
 10
909.69
 20
5.34999
 11
909.692
 21
5.3176
  0
LINE
  8
0
 10
909.692
 20
5.3176
 11
909.697
 21
5.28554
  0
LINE
  8
0
 10
909.697
 20
5.28554
 11
909.705
 21
5.2542
  0
LINE
  8
0
 10
909.705
 20
5.2542
 11
909.717
 21
5.22391
  0
LINE
  8
0
 10
909.717
 20
5.22391
 11
909.732
 21
5.19499
  0
LINE
  8
0
 10
909.732
 20
5.19499
 11
909.749
 21
5.16779
  0
LINE
  8
0
 10
909.749
 20
5.16779
 11
909.77
 21
5.14256
  0
LINE
  8
0
 10
909.77
 20
5.14256
 11
909.793
 21
5.11961
  0
LINE
  8
0
 10
909.793
 20
5.11961
 11
909.818
 21
5.0992
  0
LINE
  8
0
 10
909.818
 20
5.0992
 11
909.845
 21
5.08153
  0
LINE
  8
0
 10
909.845
 20
5.08153
 11
909.874
 21
5.06679
  0
LINE
  8
0
 10
909.874
 20
5.06679
 11
909.904
 21
5.05516
  0
LINE
  8
0
 10
909.904
 20
5.05516
 11
909.936
 21
5.04677
  0
LINE
  8
0
 10
909.936
 20
5.04677
 11
909.968
 21
5.04169
  0
LINE
  8
0
 10
909.968
 20
5.04169
 11
910
 21
5.03999
  0
LINE
  8
0
 10
910
 20
5.03999
 11
910.032
 21
5.04169
  0
LINE
  8
0
 10
1200.03
 20
5.04169
 11
1200.06
 21
5.04677
  0
LINE
  8
0
 10
1200.06
 20
5.04677
 11
1200.1
 21
5.05516
  0
LINE
  8
0
 10
1200.1
 20
5.05516
 11
1200.13
 21
5.06679
  0
LINE
  8
0
 10
1200.13
 20
5.06679
 11
1200.16
 21
5.08153
  0
LINE
  8
0
 10
1200.16
 20
5.08153
 11
1200.18
 21
5.0992
  0
LINE
  8
0
 10
1200.18
 20
5.0992
 11
1200.21
 21
5.11961
  0
LINE
  8
0
 10
1200.21
 20
5.11961
 11
1200.23
 21
5.14256
  0
LINE
  8
0
 10
1200.23
 20
5.14256
 11
1200.25
 21
5.16779
  0
LINE
  8
0
 10
1200.25
 20
5.16779
 11
1200.27
 21
5.19499
  0
LINE
  8
0
 10
1200.27
 20
5.19499
 11
1200.28
 21
5.22391
  0
LINE
  8
0
 10
1200.28
 20
5.22391
 11
1200.29
 21
5.2542
  0
LINE
  8
0
 10
1200.29
 20
5.2542
 11
1200.3
 21
5.28554
  0
LINE
  8
0
 10
1200.3
 20
5.28554
 11
1200.31
 21
5.3176
  0
LINE
  8
0
 10
1200.31
 20
5.3176
 11
1200.31
 21
5.34999
  0
LINE
  8
0
 10
1200.31
 20
5.34999
 11
1200.31
 21
5.3824
  0
LINE
  8
0
 10
1200.31
 20
5.3824
 11
1200.3
 21
5.41444
  0
LINE
  8
0
 10
1200.3
 20
5.41444
 11
1200.29
 21
5.44579
  0
LINE
  8
0
 10
1200.29
 20
5.44579
 11
1200.28
 21
5.47607
  0
LINE
  8
0
 10
1200.28
 20
5.47607
 11
1200.27
 21
5.50499
  0
LINE
  8
0
 10
1200.27
 20
5.50499
 11
1200.25
 21
5.53221
  0
LINE
  8
0
 10
1200.25
 20
5.53221
 11
1200.23
 21
5.55742
  0
LINE
  8
0
 10
1200.23
 20
5.55742
 11
1200.21
 21
5.58037
  0
LINE
  8
0
 10
1200.21
 20
5.58037
 11
1200.18
 21
5.60078
  0
LINE
  8
0
 10
1200.18
 20
5.60078
 11
1200.16
 21
5.61845
  0
LINE
  8
0
 10
1200.16
 20
5.61845
 11
1200.13
 21
5.63319
  0
LINE
  8
0
 10
1200.13
 20
5.63319
 11
1200.1
 21
5.64482
  0
LINE
  8
0
 10
1200.1
 20
5.64482
 11
1200.06
 21
5.65321
  0
LINE
  8
0
 10
1200.06
 20
5.65321
 11
1200.03
 21
5.65829
  0
LINE
  8
0
 10
1200.03
 20
5.65829
 11
1200
 21
5.65999
  0
LINE
  8
0
 10
1200
 20
5.65999
 11
1199.97
 21
5.65829
  0
LINE
  8
0
 10
1199.97
 20
5.65829
 11
1199.94
 21
5.65321
  0
LINE
  8
0
 10
1199.94
 20
5.65321
 11
1199.9
 21
5.64482
  0
LINE
  8
0
 10
1199.9
 20
5.64482
 11
1199.87
 21
5.63319
  0
LINE
  8
0
 10
1199.87
 20
5.63319
 11
1199.84
 21
5.61845
  0
LINE
  8
0
 10
1199.84
 20
5.61845
 11
1199.82
 21
5.60078
  0
LINE
  8
0
 10
1199.82
 20
5.60078
 11
1199.79
 21
5.58037
  0
LINE
  8
0
 10
1199.79
 20
5.58037
 11
1199.77
 21
5.55742
  0
LINE
  8
0
 10
1199.77
 20
5.55742
 11
1199.75
 21
5.53221
  0
LINE
  8
0
 10
1199.75
 20
5.53221
 11
1199.73
 21
5.50499
  0
LINE
  8
0
 10
1199.73
 20
5.50499
 11
1199.72
 21
5.47607
  0
LINE
  8
0
 10
1199.72
 20
5.47607
 11
1199.71
 21
5.44579
  0
LINE
  8
0
 10
1199.71
 20
5.44579
 11
1199.7
 21
5.41444
  0
LINE
  8
0
 10
1199.7
 20
5.41444
 11
1199.69
 21
5.3824
  0
LINE
  8
0
 10
1199.69
 20
5.3824
 11
1199.69
 21
5.34999
  0
LINE
  8
0
 10
1199.69
 20
5.34999
 11
1199.69
 21
5.3176
  0
LINE
  8
0
 10
1199.69
 20
5.3176
 11
1199.7
 21
5.28554
  0
LINE
  8
0
 10
1199.7
 20
5.28554
 11
1199.71
 21
5.2542
  0
LINE
  8
0
 10
1199.71
 20
5.2542
 11
1199.72
 21
5.22391
  0
LINE
  8
0
 10
1199.72
 20
5.22391
 11
1199.73
 21
5.19499
  0
LINE
  8
0
 10
1199.73
 20
5.19499
 11
1199.75
 21
5.16779
  0
LINE
  8
0
 10
1199.75
 20
5.16779
 11
1199.77
 21
5.14256
  0
LINE
  8
0
 10
1199.77
 20
5.14256
 11
1199.79
 21
5.11961
  0
LINE
  8
0
 10
1199.79
 20
5.11961
 11
1199.82
 21
5.0992
  0
LINE
  8
0
 10
1199.82
 20
5.0992
 11
1199.84
 21
5.08153
  0
LINE
  8
0
 10
1199.84
 20
5.08153
 11
1199.87
 21
5.06679
  0
LINE
  8
0
 10
1199.87
 20
5.06679
 11
1199.9
 21
5.05516
  0
LINE
  8
0
 10
1199.9
 20
5.05516
 11
1199.94
 21
5.04677
  0
LINE
  8
0
 10
1199.94
 20
5.04677
 11
1199.97
 21
5.04169
  0
LINE
  8
0
 10
1199.97
 20
5.04169
 11
1200
 21
5.03999
  0
LINE
  8
0
 10
1200
 20
5.03999
 11
1200.03
 21
5.04169
  0
LINE
  8
0
 10
870.032
 20
5.04169
 11
870.064
 21
5.04677
  0
LINE
  8
0
 10
870.064
 20
5.04677
 11
870.096
 21
5.05516
  0
LINE
  8
0
 10
870.096
 20
5.05516
 11
870.126
 21
5.06679
  0
LINE
  8
0
 10
870.126
 20
5.06679
 11
870.155
 21
5.08153
  0
LINE
  8
0
 10
870.155
 20
5.08153
 11
870.182
 21
5.0992
  0
LINE
  8
0
 10
870.182
 20
5.0992
 11
870.207
 21
5.11961
  0
LINE
  8
0
 10
870.207
 20
5.11961
 11
870.23
 21
5.14256
  0
LINE
  8
0
 10
870.23
 20
5.14256
 11
870.251
 21
5.16779
  0
LINE
  8
0
 10
870.251
 20
5.16779
 11
870.268
 21
5.19499
  0
LINE
  8
0
 10
870.268
 20
5.19499
 11
870.283
 21
5.22391
  0
LINE
  8
0
 10
870.283
 20
5.22391
 11
870.295
 21
5.2542
  0
LINE
  8
0
 10
870.295
 20
5.2542
 11
870.303
 21
5.28554
  0
LINE
  8
0
 10
870.303
 20
5.28554
 11
870.308
 21
5.3176
  0
LINE
  8
0
 10
870.308
 20
5.3176
 11
870.31
 21
5.34999
  0
LINE
  8
0
 10
870.31
 20
5.34999
 11
870.308
 21
5.3824
  0
LINE
  8
0
 10
870.308
 20
5.3824
 11
870.303
 21
5.41444
  0
LINE
  8
0
 10
870.303
 20
5.41444
 11
870.295
 21
5.44579
  0
LINE
  8
0
 10
870.295
 20
5.44579
 11
870.283
 21
5.47607
  0
LINE
  8
0
 10
870.283
 20
5.47607
 11
870.268
 21
5.50499
  0
LINE
  8
0
 10
870.268
 20
5.50499
 11
870.251
 21
5.53221
  0
LINE
  8
0
 10
870.251
 20
5.53221
 11
870.23
 21
5.55742
  0
LINE
  8
0
 10
870.23
 20
5.55742
 11
870.207
 21
5.58037
  0
LINE
  8
0
 10
870.207
 20
5.58037
 11
870.182
 21
5.60078
  0
LINE
  8
0
 10
870.182
 20
5.60078
 11
870.155
 21
5.61845
  0
LINE
  8
0
 10
870.155
 20
5.61845
 11
870.126
 21
5.63319
  0
LINE
  8
0
 10
870.126
 20
5.63319
 11
870.096
 21
5.64482
  0
LINE
  8
0
 10
870.096
 20
5.64482
 11
870.064
 21
5.65321
  0
LINE
  8
0
 10
870.064
 20
5.65321
 11
870.032
 21
5.65829
  0
LINE
  8
0
 10
870.032
 20
5.65829
 11
870
 21
5.65999
  0
LINE
  8
0
 10
870
 20
5.65999
 11
869.968
 21
5.65829
  0
LINE
  8
0
 10
869.968
 20
5.65829
 11
869.936
 21
5.65321
  0
LINE
  8
0
 10
869.936
 20
5.65321
 11
869.904
 21
5.64482
  0
LINE
  8
0
 10
869.904
 20
5.64482
 11
869.874
 21
5.63319
  0
LINE
  8
0
 10
869.874
 20
5.63319
 11
869.845
 21
5.61845
  0
LINE
  8
0
 10
869.845
 20
5.61845
 11
869.818
 21
5.60078
  0
LINE
  8
0
 10
869.818
 20
5.60078
 11
869.793
 21
5.58037
  0
LINE
  8
0
 10
869.793
 20
5.58037
 11
869.77
 21
5.55742
  0
LINE
  8
0
 10
869.77
 20
5.55742
 11
869.749
 21
5.53221
  0
LINE
  8
0
 10
869.749
 20
5.53221
 11
869.732
 21
5.50499
  0
LINE
  8
0
 10
869.732
 20
5.50499
 11
869.717
 21
5.47607
  0
LINE
  8
0
 10
869.717
 20
5.47607
 11
869.705
 21
5.44579
  0
LINE
  8
0
 10
869.705
 20
5.44579
 11
869.697
 21
5.41444
  0
LINE
  8
0
 10
869.697
 20
5.41444
 11
869.692
 21
5.3824
  0
LINE
  8
0
 10
869.692
 20
5.3824
 11
869.69
 21
5.34999
  0
LINE
  8
0
 10
869.69
 20
5.34999
 11
869.692
 21
5.3176
  0
LINE
  8
0
 10
869.692
 20
5.3176
 11
869.697
 21
5.28554
  0
LINE
  8
0
 10
869.697
 20
5.28554
 11
869.705
 21
5.2542
  0
LINE
  8
0
 10
869.705
 20
5.2542
 11
869.717
 21
5.22391
  0
LINE
  8
0
 10
869.717
 20
5.22391
 11
869.732
 21
5.19499
  0
LINE
  8
0
 10
869.732
 20
5.19499
 11
869.749
 21
5.16779
  0
LINE
  8
0
 10
869.749
 20
5.16779
 11
869.77
 21
5.14256
  0
LINE
  8
0
 10
869.77
 20
5.14256
 11
869.793
 21
5.11961
  0
LINE
  8
0
 10
869.793
 20
5.11961
 11
869.818
 21
5.0992
  0
LINE
  8
0
 10
869.818
 20
5.0992
 11
869.845
 21
5.08153
  0
LINE
  8
0
 10
869.845
 20
5.08153
 11
869.874
 21
5.06679
  0
LINE
  8
0
 10
869.874
 20
5.06679
 11
869.904
 21
5.05516
  0
LINE
  8
0
 10
869.904
 20
5.05516
 11
869.936
 21
5.04677
  0
LINE
  8
0
 10
869.936
 20
5.04677
 11
869.968
 21
5.04169
  0
LINE
  8
0
 10
869.968
 20
5.04169
 11
870
 21
5.03999
  0
LINE
  8
0
 10
870
 20
5.03999
 11
870.032
 21
5.04169
  0
LINE
  8
0
 10
660.032
 20
5.04169
 11
660.064
 21
5.04677
  0
LINE
  8
0
 10
660.064
 20
5.04677
 11
660.096
 21
5.05516
  0
LINE
  8
0
 10
660.096
 20
5.05516
 11
660.126
 21
5.06679
  0
LINE
  8
0
 10
660.126
 20
5.06679
 11
660.155
 21
5.08153
  0
LINE
  8
0
 10
660.155
 20
5.08153
 11
660.182
 21
5.0992
  0
LINE
  8
0
 10
660.182
 20
5.0992
 11
660.207
 21
5.11961
  0
LINE
  8
0
 10
660.207
 20
5.11961
 11
660.23
 21
5.14256
  0
LINE
  8
0
 10
660.23
 20
5.14256
 11
660.251
 21
5.16779
  0
LINE
  8
0
 10
660.251
 20
5.16779
 11
660.268
 21
5.19499
  0
LINE
  8
0
 10
660.268
 20
5.19499
 11
660.283
 21
5.22391
  0
LINE
  8
0
 10
660.283
 20
5.22391
 11
660.295
 21
5.2542
  0
LINE
  8
0
 10
660.295
 20
5.2542
 11
660.303
 21
5.28554
  0
LINE
  8
0
 10
660.303
 20
5.28554
 11
660.308
 21
5.3176
  0
LINE
  8
0
 10
660.308
 20
5.3176
 11
660.31
 21
5.34999
  0
LINE
  8
0
 10
660.31
 20
5.34999
 11
660.308
 21
5.3824
  0
LINE
  8
0
 10
660.308
 20
5.3824
 11
660.303
 21
5.41444
  0
LINE
  8
0
 10
660.303
 20
5.41444
 11
660.295
 21
5.44579
  0
LINE
  8
0
 10
660.295
 20
5.44579
 11
660.283
 21
5.47607
  0
LINE
  8
0
 10
660.283
 20
5.47607
 11
660.268
 21
5.50499
  0
LINE
  8
0
 10
660.268
 20
5.50499
 11
660.251
 21
5.53221
  0
LINE
  8
0
 10
660.251
 20
5.53221
 11
660.23
 21
5.55742
  0
LINE
  8
0
 10
660.23
 20
5.55742
 11
660.207
 21
5.58037
  0
LINE
  8
0
 10
660.207
 20
5.58037
 11
660.182
 21
5.60078
  0
LINE
  8
0
 10
660.182
 20
5.60078
 11
660.155
 21
5.61845
  0
LINE
  8
0
 10
660.155
 20
5.61845
 11
660.126
 21
5.63319
  0
LINE
  8
0
 10
660.126
 20
5.63319
 11
660.096
 21
5.64482
  0
LINE
  8
0
 10
660.096
 20
5.64482
 11
660.064
 21
5.65321
  0
LINE
  8
0
 10
660.064
 20
5.65321
 11
660.032
 21
5.65829
  0
LINE
  8
0
 10
660.032
 20
5.65829
 11
660
 21
5.65999
  0
LINE
  8
0
 10
660
 20
5.65999
 11
659.968
 21
5.65829
  0
LINE
  8
0
 10
659.968
 20
5.65829
 11
659.936
 21
5.65321
  0
LINE
  8
0
 10
659.936
 20
5.65321
 11
659.904
 21
5.64482
  0
LINE
  8
0
 10
659.904
 20
5.64482
 11
659.874
 21
5.63319
  0
LINE
  8
0
 10
659.874
 20
5.63319
 11
659.845
 21
5.61845
  0
LINE
  8
0
 10
659.845
 20
5.61845
 11
659.818
 21
5.60078
  0
LINE
  8
0
 10
659.818
 20
5.60078
 11
659.793
 21
5.58037
  0
LINE
  8
0
 10
659.793
 20
5.58037
 11
659.77
 21
5.55742
  0
LINE
  8
0
 10
659.77
 20
5.55742
 11
659.749
 21
5.53221
  0
LINE
  8
0
 10
659.749
 20
5.53221
 11
659.732
 21
5.50499
  0
LINE
  8
0
 10
659.732
 20
5.50499
 11
659.717
 21
5.47607
  0
LINE
  8
0
 10
659.717
 20
5.47607
 11
659.705
 21
5.44579
  0
LINE
  8
0
 10
659.705
 20
5.44579
 11
659.697
 21
5.41444
  0
LINE
  8
0
 10
659.697
 20
5.41444
 11
659.692
 21
5.3824
  0
LINE
  8
0
 10
659.692
 20
5.3824
 11
659.69
 21
5.34999
  0
LINE
  8
0
 10
659.69
 20
5.34999
 11
659.692
 21
5.3176
  0
LINE
  8
0
 10
659.692
 20
5.3176
 11
659.697
 21
5.28554
  0
LINE
  8
0
 10
659.697
 20
5.28554
 11
659.705
 21
5.2542
  0
LINE
  8
0
 10
659.705
 20
5.2542
 11
659.717
 21
5.22391
  0
LINE
  8
0
 10
659.717
 20
5.22391
 11
659.732
 21
5.19499
  0
LINE
  8
0
 10
659.732
 20
5.19499
 11
659.749
 21
5.16779
  0
LINE
  8
0
 10
659.749
 20
5.16779
 11
659.77
 21
5.14256
  0
LINE
  8
0
 10
659.77
 20
5.14256
 11
659.793
 21
5.11961
  0
LINE
  8
0
 10
659.793
 20
5.11961
 11
659.818
 21
5.0992
  0
LINE
  8
0
 10
659.818
 20
5.0992
 11
659.845
 21
5.08153
  0
LINE
  8
0
 10
659.845
 20
5.08153
 11
659.874
 21
5.06679
  0
LINE
  8
0
 10
659.874
 20
5.06679
 11
659.904
 21
5.05516
  0
LINE
  8
0
 10
659.904
 20
5.05516
 11
659.936
 21
5.04677
  0
LINE
  8
0
 10
659.936
 20
5.04677
 11
659.968
 21
5.04169
  0
LINE
  8
0
 10
659.968
 20
5.04169
 11
660
 21
5.03999
  0
LINE
  8
0
 10
660
 20
5.03999
 11
660.032
 21
5.04169
  0
LINE
  8
0
 10
1120.03
 20
5.04169
 11
1120.06
 21
5.04677
  0
LINE
  8
0
 10
1120.06
 20
5.04677
 11
1120.1
 21
5.05516
  0
LINE
  8
0
 10
1120.1
 20
5.05516
 11
1120.13
 21
5.06679
  0
LINE
  8
0
 10
1120.13
 20
5.06679
 11
1120.16
 21
5.08153
  0
LINE
  8
0
 10
1120.16
 20
5.08153
 11
1120.18
 21
5.0992
  0
LINE
  8
0
 10
1120.18
 20
5.0992
 11
1120.21
 21
5.11961
  0
LINE
  8
0
 10
1120.21
 20
5.11961
 11
1120.23
 21
5.14256
  0
LINE
  8
0
 10
1120.23
 20
5.14256
 11
1120.25
 21
5.16779
  0
LINE
  8
0
 10
1120.25
 20
5.16779
 11
1120.27
 21
5.19499
  0
LINE
  8
0
 10
1120.27
 20
5.19499
 11
1120.28
 21
5.22391
  0
LINE
  8
0
 10
1120.28
 20
5.22391
 11
1120.29
 21
5.2542
  0
LINE
  8
0
 10
1120.29
 20
5.2542
 11
1120.3
 21
5.28554
  0
LINE
  8
0
 10
1120.3
 20
5.28554
 11
1120.31
 21
5.3176
  0
LINE
  8
0
 10
1120.31
 20
5.3176
 11
1120.31
 21
5.34999
  0
LINE
  8
0
 10
1120.31
 20
5.34999
 11
1120.31
 21
5.3824
  0
LINE
  8
0
 10
1120.31
 20
5.3824
 11
1120.3
 21
5.41444
  0
LINE
  8
0
 10
1120.3
 20
5.41444
 11
1120.29
 21
5.44579
  0
LINE
  8
0
 10
1120.29
 20
5.44579
 11
1120.28
 21
5.47607
  0
LINE
  8
0
 10
1120.28
 20
5.47607
 11
1120.27
 21
5.50499
  0
LINE
  8
0
 10
1120.27
 20
5.50499
 11
1120.25
 21
5.53221
  0
LINE
  8
0
 10
1120.25
 20
5.53221
 11
1120.23
 21
5.55742
  0
LINE
  8
0
 10
1120.23
 20
5.55742
 11
1120.21
 21
5.58037
  0
LINE
  8
0
 10
1120.21
 20
5.58037
 11
1120.18
 21
5.60078
  0
LINE
  8
0
 10
1120.18
 20
5.60078
 11
1120.16
 21
5.61845
  0
LINE
  8
0
 10
1120.16
 20
5.61845
 11
1120.13
 21
5.63319
  0
LINE
  8
0
 10
1120.13
 20
5.63319
 11
1120.1
 21
5.64482
  0
LINE
  8
0
 10
1120.1
 20
5.64482
 11
1120.06
 21
5.65321
  0
LINE
  8
0
 10
1120.06
 20
5.65321
 11
1120.03
 21
5.65829
  0
LINE
  8
0
 10
1120.03
 20
5.65829
 11
1120
 21
5.65999
  0
LINE
  8
0
 10
1120
 20
5.65999
 11
1119.97
 21
5.65829
  0
LINE
  8
0
 10
1119.97
 20
5.65829
 11
1119.94
 21
5.65321
  0
LINE
  8
0
 10
1119.94
 20
5.65321
 11
1119.9
 21
5.64482
  0
LINE
  8
0
 10
1119.9
 20
5.64482
 11
1119.87
 21
5.63319
  0
LINE
  8
0
 10
1119.87
 20
5.63319
 11
1119.84
 21
5.61845
  0
LINE
  8
0
 10
1119.84
 20
5.61845
 11
1119.82
 21
5.60078
  0
LINE
  8
0
 10
1119.82
 20
5.60078
 11
1119.79
 21
5.58037
  0
LINE
  8
0
 10
1119.79
 20
5.58037
 11
1119.77
 21
5.55742
  0
LINE
  8
0
 10
1119.77
 20
5.55742
 11
1119.75
 21
5.53221
  0
LINE
  8
0
 10
1119.75
 20
5.53221
 11
1119.73
 21
5.50499
  0
LINE
  8
0
 10
1119.73
 20
5.50499
 11
1119.72
 21
5.47607
  0
LINE
  8
0
 10
1119.72
 20
5.47607
 11
1119.71
 21
5.44579
  0
LINE
  8
0
 10
1119.71
 20
5.44579
 11
1119.7
 21
5.41444
  0
LINE
  8
0
 10
1119.7
 20
5.41444
 11
1119.69
 21
5.3824
  0
LINE
  8
0
 10
1119.69
 20
5.3824
 11
1119.69
 21
5.34999
  0
LINE
  8
0
 10
1119.69
 20
5.34999
 11
1119.69
 21
5.3176
  0
LINE
  8
0
 10
1119.69
 20
5.3176
 11
1119.7
 21
5.28554
  0
LINE
  8
0
 10
1119.7
 20
5.28554
 11
1119.71
 21
5.2542
  0
LINE
  8
0
 10
1119.71
 20
5.2542
 11
1119.72
 21
5.22391
  0
LINE
  8
0
 10
1119.72
 20
5.22391
 11
1119.73
 21
5.19499
  0
LINE
  8
0
 10
1119.73
 20
5.19499
 11
1119.75
 21
5.16779
  0
LINE
  8
0
 10
1119.75
 20
5.16779
 11
1119.77
 21
5.14256
  0
LINE
  8
0
 10
1119.77
 20
5.14256
 11
1119.79
 21
5.11961
  0
LINE
  8
0
 10
1119.79
 20
5.11961
 11
1119.82
 21
5.0992
  0
LINE
  8
0
 10
1119.82
 20
5.0992
 11
1119.84
 21
5.08153
  0
LINE
  8
0
 10
1119.84
 20
5.08153
 11
1119.87
 21
5.06679
  0
LINE
  8
0
 10
1119.87
 20
5.06679
 11
1119.9
 21
5.05516
  0
LINE
  8
0
 10
1119.9
 20
5.05516
 11
1119.94
 21
5.04677
  0
LINE
  8
0
 10
1119.94
 20
5.04677
 11
1119.97
 21
5.04169
  0
LINE
  8
0
 10
1119.97
 20
5.04169
 11
1120
 21
5.03999
  0
LINE
  8
0
 10
1120
 20
5.03999
 11
1120.03
 21
5.04169
  0
LINE
  8
0
 10
990.032
 20
5.04169
 11
990.064
 21
5.04677
  0
LINE
  8
0
 10
990.064
 20
5.04677
 11
990.096
 21
5.05516
  0
LINE
  8
0
 10
990.096
 20
5.05516
 11
990.126
 21
5.06679
  0
LINE
  8
0
 10
990.126
 20
5.06679
 11
990.155
 21
5.08153
  0
LINE
  8
0
 10
990.155
 20
5.08153
 11
990.182
 21
5.0992
  0
LINE
  8
0
 10
990.182
 20
5.0992
 11
990.207
 21
5.11961
  0
LINE
  8
0
 10
990.207
 20
5.11961
 11
990.23
 21
5.14256
  0
LINE
  8
0
 10
990.23
 20
5.14256
 11
990.251
 21
5.16779
  0
LINE
  8
0
 10
990.251
 20
5.16779
 11
990.268
 21
5.19499
  0
LINE
  8
0
 10
990.268
 20
5.19499
 11
990.283
 21
5.22391
  0
LINE
  8
0
 10
990.283
 20
5.22391
 11
990.295
 21
5.2542
  0
LINE
  8
0
 10
990.295
 20
5.2542
 11
990.303
 21
5.28554
  0
LINE
  8
0
 10
990.303
 20
5.28554
 11
990.308
 21
5.3176
  0
LINE
  8
0
 10
990.308
 20
5.3176
 11
990.31
 21
5.34999
  0
LINE
  8
0
 10
990.31
 20
5.34999
 11
990.308
 21
5.3824
  0
LINE
  8
0
 10
990.308
 20
5.3824
 11
990.303
 21
5.41444
  0
LINE
  8
0
 10
990.303
 20
5.41444
 11
990.295
 21
5.44579
  0
LINE
  8
0
 10
990.295
 20
5.44579
 11
990.283
 21
5.47607
  0
LINE
  8
0
 10
990.283
 20
5.47607
 11
990.268
 21
5.50499
  0
LINE
  8
0
 10
990.268
 20
5.50499
 11
990.251
 21
5.53221
  0
LINE
  8
0
 10
990.251
 20
5.53221
 11
990.23
 21
5.55742
  0
LINE
  8
0
 10
990.23
 20
5.55742
 11
990.207
 21
5.58037
  0
LINE
  8
0
 10
990.207
 20
5.58037
 11
990.182
 21
5.60078
  0
LINE
  8
0
 10
990.182
 20
5.60078
 11
990.155
 21
5.61845
  0
LINE
  8
0
 10
990.155
 20
5.61845
 11
990.126
 21
5.63319
  0
LINE
  8
0
 10
990.126
 20
5.63319
 11
990.096
 21
5.64482
  0
LINE
  8
0
 10
990.096
 20
5.64482
 11
990.064
 21
5.65321
  0
LINE
  8
0
 10
990.064
 20
5.65321
 11
990.032
 21
5.65829
  0
LINE
  8
0
 10
990.032
 20
5.65829
 11
990
 21
5.65999
  0
LINE
  8
0
 10
990
 20
5.65999
 11
989.968
 21
5.65829
  0
LINE
  8
0
 10
989.968
 20
5.65829
 11
989.936
 21
5.65321
  0
LINE
  8
0
 10
989.936
 20
5.65321
 11
989.904
 21
5.64482
  0
LINE
  8
0
 10
989.904
 20
5.64482
 11
989.874
 21
5.63319
  0
LINE
  8
0
 10
989.874
 20
5.63319
 11
989.845
 21
5.61845
  0
LINE
  8
0
 10
989.845
 20
5.61845
 11
989.818
 21
5.60078
  0
LINE
  8
0
 10
989.818
 20
5.60078
 11
989.793
 21
5.58037
  0
LINE
  8
0
 10
989.793
 20
5.58037
 11
989.77
 21
5.55742
  0
LINE
  8
0
 10
989.77
 20
5.55742
 11
989.749
 21
5.53221
  0
LINE
  8
0
 10
989.749
 20
5.53221
 11
989.732
 21
5.50499
  0
LINE
  8
0
 10
989.732
 20
5.50499
 11
989.717
 21
5.47607
  0
LINE
  8
0
 10
989.717
 20
5.47607
 11
989.705
 21
5.44579
  0
LINE
  8
0
 10
989.705
 20
5.44579
 11
989.697
 21
5.41444
  0
LINE
  8
0
 10
989.697
 20
5.41444
 11
989.692
 21
5.3824
  0
LINE
  8
0
 10
989.692
 20
5.3824
 11
989.69
 21
5.34999
  0
LINE
  8
0
 10
989.69
 20
5.34999
 11
989.692
 21
5.3176
  0
LINE
  8
0
 10
989.692
 20
5.3176
 11
989.697
 21
5.28554
  0
LINE
  8
0
 10
989.697
 20
5.28554
 11
989.705
 21
5.2542
  0
LINE
  8
0
 10
989.705
 20
5.2542
 11
989.717
 21
5.22391
  0
LINE
  8
0
 10
989.717
 20
5.22391
 11
989.732
 21
5.19499
  0
LINE
  8
0
 10
989.732
 20
5.19499
 11
989.749
 21
5.16779
  0
LINE
  8
0
 10
989.749
 20
5.16779
 11
989.77
 21
5.14256
  0
LINE
  8
0
 10
989.77
 20
5.14256
 11
989.793
 21
5.11961
  0
LINE
  8
0
 10
989.793
 20
5.11961
 11
989.818
 21
5.0992
  0
LINE
  8
0
 10
989.818
 20
5.0992
 11
989.845
 21
5.08153
  0
LINE
  8
0
 10
989.845
 20
5.08153
 11
989.874
 21
5.06679
  0
LINE
  8
0
 10
989.874
 20
5.06679
 11
989.904
 21
5.05516
  0
LINE
  8
0
 10
989.904
 20
5.05516
 11
989.936
 21
5.04677
  0
LINE
  8
0
 10
989.936
 20
5.04677
 11
989.968
 21
5.04169
  0
LINE
  8
0
 10
989.968
 20
5.04169
 11
990
 21
5.03999
  0
LINE
  8
0
 10
990
 20
5.03999
 11
990.032
 21
5.04169
  0
LINE
  8
0
 10
740.032
 20
5.04169
 11
740.064
 21
5.04677
  0
LINE
  8
0
 10
740.064
 20
5.04677
 11
740.096
 21
5.05516
  0
LINE
  8
0
 10
740.096
 20
5.05516
 11
740.126
 21
5.06679
  0
LINE
  8
0
 10
740.126
 20
5.06679
 11
740.155
 21
5.08153
  0
LINE
  8
0
 10
740.155
 20
5.08153
 11
740.182
 21
5.0992
  0
LINE
  8
0
 10
740.182
 20
5.0992
 11
740.207
 21
5.11961
  0
LINE
  8
0
 10
740.207
 20
5.11961
 11
740.23
 21
5.14256
  0
LINE
  8
0
 10
740.23
 20
5.14256
 11
740.251
 21
5.16779
  0
LINE
  8
0
 10
740.251
 20
5.16779
 11
740.268
 21
5.19499
  0
LINE
  8
0
 10
740.268
 20
5.19499
 11
740.283
 21
5.22391
  0
LINE
  8
0
 10
740.283
 20
5.22391
 11
740.295
 21
5.2542
  0
LINE
  8
0
 10
740.295
 20
5.2542
 11
740.303
 21
5.28554
  0
LINE
  8
0
 10
740.303
 20
5.28554
 11
740.308
 21
5.3176
  0
LINE
  8
0
 10
740.308
 20
5.3176
 11
740.31
 21
5.34999
  0
LINE
  8
0
 10
740.31
 20
5.34999
 11
740.308
 21
5.3824
  0
LINE
  8
0
 10
740.308
 20
5.3824
 11
740.303
 21
5.41444
  0
LINE
  8
0
 10
740.303
 20
5.41444
 11
740.295
 21
5.44579
  0
LINE
  8
0
 10
740.295
 20
5.44579
 11
740.283
 21
5.47607
  0
LINE
  8
0
 10
740.283
 20
5.47607
 11
740.268
 21
5.50499
  0
LINE
  8
0
 10
740.268
 20
5.50499
 11
740.251
 21
5.53221
  0
LINE
  8
0
 10
740.251
 20
5.53221
 11
740.23
 21
5.55742
  0
LINE
  8
0
 10
740.23
 20
5.55742
 11
740.207
 21
5.58037
  0
LINE
  8
0
 10
740.207
 20
5.58037
 11
740.182
 21
5.60078
  0
LINE
  8
0
 10
740.182
 20
5.60078
 11
740.155
 21
5.61845
  0
LINE
  8
0
 10
740.155
 20
5.61845
 11
740.126
 21
5.63319
  0
LINE
  8
0
 10
740.126
 20
5.63319
 11
740.096
 21
5.64482
  0
LINE
  8
0
 10
740.096
 20
5.64482
 11
740.064
 21
5.65321
  0
LINE
  8
0
 10
740.064
 20
5.65321
 11
740.032
 21
5.65829
  0
LINE
  8
0
 10
740.032
 20
5.65829
 11
740
 21
5.65999
  0
LINE
  8
0
 10
740
 20
5.65999
 11
739.968
 21
5.65829
  0
LINE
  8
0
 10
739.968
 20
5.65829
 11
739.936
 21
5.65321
  0
LINE
  8
0
 10
739.936
 20
5.65321
 11
739.904
 21
5.64482
  0
LINE
  8
0
 10
739.904
 20
5.64482
 11
739.874
 21
5.63319
  0
LINE
  8
0
 10
739.874
 20
5.63319
 11
739.845
 21
5.61845
  0
LINE
  8
0
 10
739.845
 20
5.61845
 11
739.818
 21
5.60078
  0
LINE
  8
0
 10
739.818
 20
5.60078
 11
739.793
 21
5.58037
  0
LINE
  8
0
 10
739.793
 20
5.58037
 11
739.77
 21
5.55742
  0
LINE
  8
0
 10
739.77
 20
5.55742
 11
739.749
 21
5.53221
  0
LINE
  8
0
 10
739.749
 20
5.53221
 11
739.732
 21
5.50499
  0
LINE
  8
0
 10
739.732
 20
5.50499
 11
739.717
 21
5.47607
  0
LINE
  8
0
 10
739.717
 20
5.47607
 11
739.705
 21
5.44579
  0
LINE
  8
0
 10
739.705
 20
5.44579
 11
739.697
 21
5.41444
  0
LINE
  8
0
 10
739.697
 20
5.41444
 11
739.692
 21
5.3824
  0
LINE
  8
0
 10
739.692
 20
5.3824
 11
739.69
 21
5.34999
  0
LINE
  8
0
 10
739.69
 20
5.34999
 11
739.692
 21
5.3176
  0
LINE
  8
0
 10
739.692
 20
5.3176
 11
739.697
 21
5.28554
  0
LINE
  8
0
 10
739.697
 20
5.28554
 11
739.705
 21
5.2542
  0
LINE
  8
0
 10
739.705
 20
5.2542
 11
739.717
 21
5.22391
  0
LINE
  8
0
 10
739.717
 20
5.22391
 11
739.732
 21
5.19499
  0
LINE
  8
0
 10
739.732
 20
5.19499
 11
739.749
 21
5.16779
  0
LINE
  8
0
 10
739.749
 20
5.16779
 11
739.77
 21
5.14256
  0
LINE
  8
0
 10
739.77
 20
5.14256
 11
739.793
 21
5.11961
  0
LINE
  8
0
 10
739.793
 20
5.11961
 11
739.818
 21
5.0992
  0
LINE
  8
0
 10
739.818
 20
5.0992
 11
739.845
 21
5.08153
  0
LINE
  8
0
 10
739.845
 20
5.08153
 11
739.874
 21
5.06679
  0
LINE
  8
0
 10
739.874
 20
5.06679
 11
739.904
 21
5.05516
  0
LINE
  8
0
 10
739.904
 20
5.05516
 11
739.936
 21
5.04677
  0
LINE
  8
0
 10
739.936
 20
5.04677
 11
739.968
 21
5.04169
  0
LINE
  8
0
 10
739.968
 20
5.04169
 11
740
 21
5.03999
  0
LINE
  8
0
 10
740
 20
5.03999
 11
740.032
 21
5.04169
  0
LINE
  8
0
 10
990
 20
6.89999
 11
1010
 21
6.89999
  0
LINE
  8
0
 10
1010
 20
6.89999
 11
1010
 21
10
  0
LINE
  8
0
 10
1010
 20
10
 11
1030
 21
10
  0
LINE
  8
0
 10
1030
 20
10
 11
1030
 21
17
  0
LINE
  8
0
 10
1030
 20
17
 11
931.167
 21
610
  0
LINE
  8
0
 10
931.167
 20
610
 11
826.9
 21
610
  0
LINE
  8
0
 10
826.9
 20
610
 11
826.9
 21
550
  0
LINE
  8
0
 10
826.9
 20
550
 11
830
 21
550
  0
LINE
  8
0
 10
830
 20
550
 11
830
 21
490
  0
LINE
  8
0
 10
830
 20
490
 11
826.9
 21
490
  0
LINE
  8
0
 10
826.9
 20
490
 11
826.9
 21
430
  0
LINE
  8
0
 10
826.9
 20
430
 11
830
 21
430
  0
LINE
  8
0
 10
830
 20
430
 11
830
 21
370
  0
LINE
  8
0
 10
830
 20
370
 11
826.9
 21
370
  0
LINE
  8
0
 10
826.9
 20
370
 11
826.9
 21
310
  0
LINE
  8
0
 10
826.9
 20
310
 11
830
 21
310
  0
LINE
  8
0
 10
830
 20
310
 11
830
 21
250
  0
LINE
  8
0
 10
830
 20
250
 11
826.9
 21
250
  0
LINE
  8
0
 10
826.9
 20
250
 11
826.9
 21
190
  0
LINE
  8
0
 10
826.9
 20
190
 11
830
 21
190
  0
LINE
  8
0
 10
830
 20
190
 11
830
 21
130
  0
LINE
  8
0
 10
830
 20
130
 11
826.9
 21
130
  0
LINE
  8
0
 10
826.9
 20
130
 11
826.9
 21
70
  0
LINE
  8
0
 10
826.9
 20
70
 11
830
 21
70
  0
LINE
  8
0
 10
830
 20
70
 11
830
 21
6.89999
  0
LINE
  8
0
 10
830
 20
6.89999
 11
850
 21
6.89999
  0
LINE
  8
0
 10
850
 20
6.89999
 11
850
 21
10
  0
LINE
  8
0
 10
850
 20
10
 11
870
 21
10
  0
LINE
  8
0
 10
870
 20
10
 11
870
 21
6.89999
  0
LINE
  8
0
 10
870
 20
6.89999
 11
890
 21
6.89999
  0
LINE
  8
0
 10
890
 20
6.89999
 11
890
 21
10
  0
LINE
  8
0
 10
890
 20
10
 11
910
 21
10
  0
LINE
  8
0
 10
910
 20
10
 11
910
 21
6.89999
  0
LINE
  8
0
 10
910
 20
6.89999
 11
930
 21
6.89999
  0
LINE
  8
0
 10
930
 20
6.89999
 11
930
 21
10
  0
LINE
  8
0
 10
930
 20
10
 11
950
 21
10
  0
LINE
  8
0
 10
950
 20
10
 11
950
 21
6.89999
  0
LINE
  8
0
 10
950
 20
6.89999
 11
970
 21
6.89999
  0
LINE
  8
0
 10
970
 20
6.89999
 11
970
 21
10
  0
LINE
  8
0
 10
970
 20
10
 11
990
 21
10
  0
LINE
  8
0
 10
990
 20
10
 11
990
 21
6.89999
  0
LINE
  8
0
 10
975.569
 20
64.9178
 11
983.223
 21
10.453
  0
LINE
  8
0
 10
983.223
 20
10.453
 11
980
 21
10
  0
LINE
  8
0
 10
980
 20
10
 11
972.345
 21
64.4647
  0
LINE
  8
0
 10
972.345
 20
64.4647
 11
975.569
 21
64.9178
  0
LINE
  8
0
 10
911.109
 20
500.183
 11
914.333
 21
500.636
  0
LINE
  8
0
 10
914.333
 20
500.636
 11
921.987
 21
446.171
  0
LINE
  8
0
 10
921.987
 20
446.171
 11
918.764
 21
445.718
  0
LINE
  8
0
 10
918.764
 20
445.718
 11
911.109
 21
500.183
  0
LINE
  8
0
 10
926.418
 20
391.253
 11
929.642
 21
391.706
  0
LINE
  8
0
 10
929.642
 20
391.706
 11
937.296
 21
337.241
  0
LINE
  8
0
 10
937.296
 20
337.241
 11
934.073
 21
336.788
  0
LINE
  8
0
 10
934.073
 20
336.788
 11
926.418
 21
391.253
  0
LINE
  8
0
 10
941.727
 20
282.324
 11
944.951
 21
282.777
  0
LINE
  8
0
 10
944.951
 20
282.777
 11
952.605
 21
228.312
  0
LINE
  8
0
 10
952.605
 20
228.312
 11
949.382
 21
227.859
  0
LINE
  8
0
 10
949.382
 20
227.859
 11
941.727
 21
282.324
  0
LINE
  8
0
 10
957.036
 20
173.394
 11
960.26
 21
173.847
  0
LINE
  8
0
 10
960.26
 20
173.847
 11
967.914
 21
119.382
  0
LINE
  8
0
 10
967.914
 20
119.382
 11
964.691
 21
118.929
  0
LINE
  8
0
 10
964.691
 20
118.929
 11
957.036
 21
173.394
  0
LINE
  8
0
 10
1200
 20
6.89999
 11
1220
 21
6.89999
  0
LINE
  8
0
 10
1220
 20
6.89999
 11
1220
 21
10
  0
LINE
  8
0
 10
1220
 20
10
 11
1240
 21
10
  0
LINE
  8
0
 10
1240
 20
10
 11
1240
 21
17
  0
LINE
  8
0
 10
1240
 20
17
 11
1141.17
 21
610
  0
LINE
  8
0
 10
1141.17
 20
610
 11
1036.9
 21
610
  0
LINE
  8
0
 10
1036.9
 20
610
 11
1036.9
 21
550
  0
LINE
  8
0
 10
1036.9
 20
550
 11
1040
 21
550
  0
LINE
  8
0
 10
1040
 20
550
 11
1040
 21
490
  0
LINE
  8
0
 10
1040
 20
490
 11
1036.9
 21
490
  0
LINE
  8
0
 10
1036.9
 20
490
 11
1036.9
 21
430
  0
LINE
  8
0
 10
1036.9
 20
430
 11
1040
 21
430
  0
LINE
  8
0
 10
1040
 20
430
 11
1040
 21
370
  0
LINE
  8
0
 10
1040
 20
370
 11
1036.9
 21
370
  0
LINE
  8
0
 10
1036.9
 20
370
 11
1036.9
 21
310
  0
LINE
  8
0
 10
1036.9
 20
310
 11
1040
 21
310
  0
LINE
  8
0
 10
1040
 20
310
 11
1040
 21
250
  0
LINE
  8
0
 10
1040
 20
250
 11
1036.9
 21
250
  0
LINE
  8
0
 10
1036.9
 20
250
 11
1036.9
 21
190
  0
LINE
  8
0
 10
1036.9
 20
190
 11
1040
 21
190
  0
LINE
  8
0
 10
1040
 20
190
 11
1040
 21
130
  0
LINE
  8
0
 10
1040
 20
130
 11
1036.9
 21
130
  0
LINE
  8
0
 10
1036.9
 20
130
 11
1036.9
 21
70
  0
LINE
  8
0
 10
1036.9
 20
70
 11
1040
 21
70
  0
LINE
  8
0
 10
1040
 20
70
 11
1040
 21
6.89999
  0
LINE
  8
0
 10
1040
 20
6.89999
 11
1060
 21
6.89999
  0
LINE
  8
0
 10
1060
 20
6.89999
 11
1060
 21
10
  0
LINE
  8
0
 10
1060
 20
10
 11
1080
 21
10
  0
LINE
  8
0
 10
1080
 20
10
 11
1080
 21
6.89999
  0
LINE
  8
0
 10
1080
 20
6.89999
 11
1100
 21
6.89999
  0
LINE
  8
0
 10
1100
 20
6.89999
 11
1100
 21
10
  0
LINE
  8
0
 10
1100
 20
10
 11
1120
 21
10
  0
LINE
  8
0
 10
1120
 20
10
 11
1120
 21
6.89999
  0
LINE
  8
0
 10
1120
 20
6.89999
 11
1140
 21
6.89999
  0
LINE
  8
0
 10
1140
 20
6.89999
 11
1140
 21
10
  0
LINE
  8
0
 10
1140
 20
10
 11
1160
 21
10
  0
LINE
  8
0
 10
1160
 20
10
 11
1160
 21
6.89999
  0
LINE
  8
0
 10
1160
 20
6.89999
 11
1180
 21
6.89999
  0
LINE
  8
0
 10
1180
 20
6.89999
 11
1180
 21
10
  0
LINE
  8
0
 10
1180
 20
10
 11
1200
 21
10
  0
LINE
  8
0
 10
1200
 20
10
 11
1200
 21
6.89999
  0
LINE
  8
0
 10
1185.57
 20
64.9178
 11
1193.22
 21
10.453
  0
LINE
  8
0
 10
1193.22
 20
10.453
 11
1190
 21
10
  0
LINE
  8
0
 10
1190
 20
10
 11
1182.35
 21
64.4647
  0
LINE
  8
0
 10
1182.35
 20
64.4647
 11
1185.57
 21
64.9178
  0
LINE
  8
0
 10
1121.11
 20
500.183
 11
1124.33
 21
500.636
  0
LINE
  8
0
 10
1124.33
 20
500.636
 11
1131.99
 21
446.171
  0
LINE
  8
0
 10
1131.99
 20
446.171
 11
1128.76
 21
445.718
  0
LINE
  8
0
 10
1128.76
 20
445.718
 11
1121.11
 21
500.183
  0
LINE
  8
0
 10
1136.42
 20
391.253
 11
1139.64
 21
391.706
  0
LINE
  8
0
 10
1139.64
 20
391.706
 11
1147.3
 21
337.241
  0
LINE
  8
0
 10
1147.3
 20
337.241
 11
1144.07
 21
336.788
  0
LINE
  8
0
 10
1144.07
 20
336.788
 11
1136.42
 21
391.253
  0
LINE
  8
0
 10
1151.73
 20
282.324
 11
1154.95
 21
282.777
  0
LINE
  8
0
 10
1154.95
 20
282.777
 11
1162.61
 21
228.312
  0
LINE
  8
0
 10
1162.61
 20
228.312
 11
1159.38
 21
227.859
  0
LINE
  8
0
 10
1159.38
 20
227.859
 11
1151.73
 21
282.324
  0
LINE
  8
0
 10
1167.04
 20
173.394
 11
1170.26
 21
173.847
  0
LINE
  8
0
 10
1170.26
 20
173.847
 11
1177.91
 21
119.382
  0
LINE
  8
0
 10
1177.91
 20
119.382
 11
1174.69
 21
118.929
  0
LINE
  8
0
 10
1174.69
 20
118.929
 11
1167.04
 21
173.394
  0
ENDSEC
  0
SECTION
  2
OBJECTS
  0
DICTIONARY
  0
ENDSEC
  0
EOF
